<svg width="2016" height="295" viewBox="0 0 2016 295" fill="none" xmlns="http://www.w3.org/2000/svg">
<path d="M101 248H1V148L101 48H201V112L265 48H365V148L265 248H165V184L101 248Z" fill="#3F52F5"/>
<path d="M1978.08 227.307C1964.14 227.307 1953.16 223.307 1945.16 215.307C1937.37 207.307 1933.47 196.436 1933.47 182.692V31H1961.78V180.846C1961.78 187.615 1963.62 193.051 1967.32 197.154C1971.21 201.051 1976.55 203 1983.32 203H2015.01V227.307H1978.08ZM1906.39 94.6922V70.3845H2015.62V94.6922H1906.39Z" fill="#3F52F5"/>
<path d="M1873.74 227.307C1857.54 227.307 1843.08 223.82 1830.36 216.845C1817.64 209.871 1807.59 200.538 1800.2 188.845C1792.82 176.948 1789.13 163.615 1789.13 148.845C1789.13 134.076 1792.82 120.845 1800.2 109.153C1807.59 97.2558 1817.64 87.8199 1830.36 80.8456C1843.08 73.8712 1857.54 70.384 1873.74 70.384H1892.2V94.6917H1872.82C1862.36 94.6917 1852.92 97.1532 1844.51 102.076C1836.31 106.794 1829.74 113.256 1824.82 121.461C1820.1 129.666 1817.74 138.794 1817.74 148.845C1817.74 158.897 1820.1 168.025 1824.82 176.23C1829.74 184.435 1836.31 190.999 1844.51 195.922C1852.92 200.64 1862.36 202.999 1872.82 202.999H1892.2V227.307H1873.74Z" fill="#3F52F5"/>
<path d="M1701.96 227.308C1684.72 227.308 1669.44 224.128 1656.11 217.77C1642.78 211.205 1632.31 202.077 1624.72 190.385C1617.34 178.488 1613.65 164.641 1613.65 148.847C1613.65 133.257 1616.83 119.308 1623.19 107C1629.55 94.4877 1638.37 84.6416 1649.65 77.4621C1660.93 70.2826 1674.06 66.6929 1689.03 66.6929C1705.24 66.6929 1718.67 70.18 1729.34 77.1544C1740.21 84.1287 1748.31 93.5646 1753.65 105.462C1758.98 117.154 1761.65 130.282 1761.65 144.847C1761.65 147.103 1761.55 149.462 1761.34 151.923C1761.34 154.385 1761.13 156.539 1760.72 158.385H1643.8C1644.83 168.026 1648.01 176.231 1653.34 183C1658.67 189.564 1665.44 194.59 1673.65 198.077C1682.06 201.359 1691.29 203 1701.34 203H1742.26V227.308H1701.96ZM1643.49 138.385H1733.03C1733.03 134.488 1732.62 130.385 1731.8 126.077C1730.98 121.565 1729.55 117.257 1727.49 113.154C1725.44 108.847 1722.67 105.052 1719.19 101.77C1715.9 98.2826 1711.7 95.5133 1706.57 93.462C1701.65 91.4108 1695.8 90.3851 1689.03 90.3851C1681.85 90.3851 1675.49 91.821 1669.96 94.6928C1664.62 97.3595 1660.01 101.052 1656.11 105.77C1652.21 110.283 1649.24 115.411 1647.19 121.154C1645.14 126.898 1643.9 132.641 1643.49 138.385Z" fill="#3F52F5"/>
<path d="M1555.31 227.307C1541.36 227.307 1530.38 223.307 1522.38 215.307C1514.59 207.307 1510.69 196.436 1510.69 182.692V31H1539V180.846C1539 187.615 1540.85 193.051 1544.54 197.154C1548.44 201.051 1553.77 203 1560.54 203H1592.23V227.307H1555.31ZM1483.61 94.6922V70.3845H1592.85V94.6922H1483.61Z" fill="#3F52F5"/>
<path d="M1389.02 231C1373.02 231 1358.86 227.41 1346.56 220.231C1334.25 212.846 1324.5 203 1317.32 190.693C1310.15 178.18 1306.56 164.231 1306.56 148.847C1306.56 133.462 1310.15 119.616 1317.32 107.308C1324.5 94.7954 1334.25 84.9492 1346.56 77.7698C1358.86 70.3852 1373.02 66.6929 1389.02 66.6929C1405.02 66.6929 1419.17 70.3852 1431.48 77.7698C1443.99 84.9492 1453.73 94.6928 1460.71 107C1467.89 119.308 1471.48 133.257 1471.48 148.847C1471.48 164.231 1467.89 178.18 1460.71 190.693C1453.73 203 1443.99 212.846 1431.48 220.231C1419.17 227.41 1405.02 231 1389.02 231ZM1389.02 206.693C1399.89 206.693 1409.32 204.128 1417.32 199C1425.32 193.872 1431.58 187 1436.09 178.385C1440.61 169.564 1442.86 159.718 1442.86 148.847C1442.86 137.975 1440.61 128.231 1436.09 119.616C1431.58 110.795 1425.32 103.821 1417.32 98.6928C1409.32 93.5646 1399.89 91.0005 1389.02 91.0005C1378.35 91.0005 1368.91 93.5646 1360.71 98.6928C1352.71 103.821 1346.45 110.795 1341.94 119.616C1337.43 128.231 1335.17 137.975 1335.17 148.847C1335.17 159.718 1337.43 169.564 1341.94 178.385C1346.45 187 1352.71 193.872 1360.71 199C1368.91 204.128 1378.35 206.693 1389.02 206.693Z" fill="#3F52F5"/>
<path d="M1212.09 227.307V114.999C1212.09 101.051 1215.98 90.1789 1223.78 82.384C1231.78 74.384 1242.75 70.384 1256.7 70.384H1289.01V94.6917H1261.93C1255.16 94.6917 1249.83 96.6404 1245.93 100.538C1242.24 104.435 1240.39 109.871 1240.39 116.845V227.307H1212.09Z" fill="#3F52F5"/>
<path d="M1095.88 66.6929C1107.78 66.6929 1118.65 68.6416 1128.49 72.539C1138.34 76.2313 1146.85 81.7698 1154.03 89.1544C1161.21 96.539 1166.75 105.462 1170.65 115.924C1174.75 126.18 1176.8 137.77 1176.8 150.693C1176.8 166.898 1173.42 181.052 1166.65 193.154C1160.08 205.257 1151.06 214.59 1139.57 221.154C1128.08 227.718 1115.06 231 1100.49 231C1092.49 231 1084.8 229.667 1077.42 227C1070.24 224.334 1063.78 220.641 1058.03 215.923C1052.49 211 1047.98 205.462 1044.49 199.308H1043.88V295H1015.57V149.77C1015.57 132.129 1019.06 117.154 1026.03 104.847C1033.21 92.539 1042.85 83.1031 1054.96 76.539C1067.06 69.9749 1080.7 66.6929 1095.88 66.6929ZM1095.88 91.0005C1086.44 91.0005 1077.73 93.3595 1069.73 98.0774C1061.93 102.795 1055.67 109.462 1050.96 118.077C1046.44 126.693 1044.19 136.847 1044.19 148.539C1044.19 160.436 1046.44 170.795 1050.96 179.616C1055.67 188.231 1061.93 194.898 1069.73 199.616C1077.73 204.334 1086.55 206.693 1096.19 206.693C1106.03 206.693 1114.85 204.231 1122.65 199.308C1130.44 194.385 1136.6 187.616 1141.11 179C1145.83 170.385 1148.19 160.334 1148.19 148.847C1148.19 136.949 1145.83 126.693 1141.11 118.077C1136.39 109.462 1130.03 102.795 1122.03 98.0774C1114.24 93.3595 1105.52 91.0005 1095.88 91.0005Z" fill="#3F52F5"/>
<path d="M897.732 231C881.732 231 867.578 227.41 855.27 220.231C842.963 212.846 833.219 203 826.04 190.693C818.86 178.18 815.271 164.231 815.271 148.847C815.271 133.462 818.86 119.616 826.04 107.308C833.219 94.7954 842.963 84.9492 855.27 77.7698C867.578 70.3852 881.732 66.6929 897.732 66.6929C913.732 66.6929 927.886 70.3852 940.193 77.7698C952.706 84.9492 962.45 94.6928 969.424 107C976.604 119.308 980.193 133.257 980.193 148.847C980.193 164.231 976.604 178.18 969.424 190.693C962.45 203 952.706 212.846 940.193 220.231C927.886 227.41 913.732 231 897.732 231ZM897.732 206.693C908.604 206.693 918.04 204.128 926.04 199C934.04 193.872 940.296 187 944.809 178.385C949.322 169.564 951.578 159.718 951.578 148.847C951.578 137.975 949.322 128.231 944.809 119.616C940.296 110.795 934.04 103.821 926.04 98.6928C918.04 93.5646 908.604 91.0005 897.732 91.0005C887.065 91.0005 877.629 93.5646 869.424 98.6928C861.424 103.821 855.168 110.795 850.655 119.616C846.142 128.231 843.886 137.975 843.886 148.847C843.886 159.718 846.142 169.564 850.655 178.385C855.168 187 861.424 193.872 869.424 199C877.629 204.128 887.065 206.693 897.732 206.693Z" fill="#3F52F5"/>
<path d="M728.098 227.308C710.867 227.308 695.585 224.128 682.252 217.77C668.919 211.205 658.457 202.077 650.867 190.385C643.483 178.488 639.791 164.641 639.791 148.847C639.791 133.257 642.97 119.308 649.329 107C655.688 94.4877 664.508 84.6416 675.79 77.4621C687.072 70.2826 700.201 66.6929 715.175 66.6929C731.38 66.6929 744.816 70.18 755.483 77.1544C766.354 84.1287 774.457 93.5646 779.79 105.462C785.124 117.154 787.79 130.282 787.79 144.847C787.79 147.103 787.688 149.462 787.483 151.923C787.483 154.385 787.277 156.539 786.867 158.385H669.944C670.97 168.026 674.149 176.231 679.483 183C684.816 189.564 691.585 194.59 699.79 198.077C708.201 201.359 717.431 203 727.483 203H768.406V227.308H728.098ZM669.637 138.385H759.175C759.175 134.488 758.765 130.385 757.944 126.077C757.124 121.565 755.688 117.257 753.636 113.154C751.585 108.847 748.816 105.052 745.329 101.77C742.047 98.2826 737.842 95.5133 732.713 93.462C727.79 91.4108 721.944 90.3851 715.175 90.3851C707.996 90.3851 701.637 91.821 696.098 94.6928C690.765 97.3595 686.149 101.052 682.252 105.77C678.355 110.283 675.38 115.411 673.329 121.154C671.278 126.898 670.047 132.641 669.637 138.385Z" fill="#3F52F5"/>
<path d="M457 227.308V136.539C457 122.59 460.077 110.385 466.231 99.9236C472.59 89.4621 481.308 81.3595 492.385 75.6159C503.461 69.6672 516.077 66.6929 530.231 66.6929C544.59 66.6929 557.205 69.6672 568.077 75.6159C579.154 81.3595 587.769 89.4621 593.923 99.9236C600.282 110.385 603.461 122.59 603.461 136.539V227.308H575.154V136.847C575.154 127.411 573 119.308 568.692 112.539C564.59 105.565 559.051 100.231 552.077 96.539C545.308 92.8467 538.025 91.0005 530.231 91.0005C522.436 91.0005 515.051 92.8467 508.077 96.539C501.308 100.231 495.769 105.565 491.461 112.539C487.359 119.308 485.308 127.411 485.308 136.847V227.308H457Z" fill="#3F52F5"/>
</svg>
