<?xml version="1.0" encoding="UTF-8"?>
<!DOCTYPE svg PUBLIC "-//W3C//DTD SVG 1.1//EN" "http://www.w3.org/Graphics/SVG/1.1/DTD/svg11.dtd">
<svg version="1.1" xmlns="http://www.w3.org/2000/svg" xmlns:xlink="http://www.w3.org/1999/xlink" x="0" y="0" width="600" height="90" viewBox="0, 0, 600, 90">
  <g id="Layer_1">
    <path d="M8.27,26.492 Q6.25,24.473 6.25,21.627 Q6.25,18.781 8.27,16.762 Q10.289,14.742 13.135,14.742 Q15.98,14.742 18,16.762 L43.244,42.006 L56.738,55.5 L56.738,21.627 Q56.738,18.781 58.758,16.762 Q60.777,14.742 63.623,14.742 Q66.469,14.742 68.488,16.762 Q70.508,18.781 70.508,21.627 L70.508,72.115 Q70.508,74.961 68.488,76.98 Q66.469,79 63.623,79 Q60.777,79 58.758,76.98 L33.514,51.736 z" fill="#166BBD"/>
    <path d="M75.098,21.627 Q75.098,18.781 77.117,16.762 Q79.137,14.742 81.982,14.742 Q84.828,14.742 86.848,16.762 Q88.867,18.781 88.867,21.627 L88.867,72.115 Q88.867,74.961 86.848,76.98 Q84.828,79 81.982,79 Q79.137,79 77.117,76.98 Q75.098,74.961 75.098,72.115 z" fill="#4C5259"/>
    <path d="M107.227,72.115 Q107.227,74.961 105.207,76.98 Q103.188,79 100.342,79 Q97.496,79 95.477,76.98 Q93.457,74.961 93.457,72.115 L93.457,21.627 Q93.457,18.781 95.477,16.762 Q97.496,14.742 100.342,14.742 L138.208,14.742 Q146.286,14.742 152.001,20.457 Q157.715,26.171 157.715,34.249 Q157.715,42.327 152.023,48.019 Q147.617,52.425 141.88,53.435 L155.695,67.25 Q157.715,69.27 157.715,72.115 Q157.715,74.961 155.695,76.98 Q153.676,79 150.83,79 Q147.984,79 145.965,76.98 L120.721,51.736 Q118.701,49.717 118.701,46.871 Q118.701,44.025 120.721,42.006 Q122.74,39.986 125.586,39.986 L138.208,39.986 Q140.595,39.986 142.27,38.311 Q143.945,36.636 143.945,34.249 Q143.945,31.862 142.27,30.187 Q140.595,28.512 138.208,28.512 L107.227,28.512 z" fill="#4C5259"/>
    <path d="M169.189,28.512 Q166.344,28.512 164.324,26.492 Q162.305,24.473 162.305,21.627 Q162.305,18.781 164.324,16.762 Q166.344,14.742 169.189,14.742 L219.678,14.742 Q222.523,14.742 224.543,16.762 Q226.562,18.781 226.562,21.627 Q226.562,24.473 224.543,26.492 Q222.523,28.512 219.678,28.512 L201.318,28.512 L201.318,72.115 Q201.318,74.961 199.299,76.98 Q197.279,79 194.434,79 Q191.588,79 189.568,76.98 Q187.549,74.961 187.549,72.115 L187.549,28.512 z" fill="#4C5259"/>
    <path d="M288.525,39.986 Q291.371,39.986 293.391,42.006 Q295.41,44.025 295.41,46.871 Q295.41,49.717 293.391,51.736 Q291.371,53.756 288.525,53.756 L263.281,53.756 Q260.436,53.756 258.416,51.736 Q256.397,49.717 256.397,46.871 Q256.397,44.025 258.416,42.006 Q260.436,39.986 263.281,39.986 z M244.922,72.115 Q244.922,74.961 242.902,76.98 Q240.883,79 238.037,79 Q235.191,79 233.172,76.98 Q231.152,74.961 231.152,72.115 L231.152,46.871 Q231.152,33.561 240.562,24.151 Q249.971,14.742 263.281,14.742 L288.525,14.742 Q291.371,14.742 293.391,16.762 Q295.41,18.781 295.41,21.627 Q295.41,24.473 293.391,26.492 Q291.371,28.512 288.525,28.512 L263.281,28.512 Q255.662,28.512 250.292,33.882 Q244.922,39.252 244.922,46.871 z" fill="#4C5259"/>
    <path d="M300,21.627 Q300,18.781 302.02,16.762 Q304.039,14.742 306.885,14.742 Q309.73,14.742 311.75,16.762 Q313.77,18.781 313.77,21.627 L313.77,46.871 Q313.77,54.49 319.14,59.86 Q324.51,65.23 332.129,65.23 Q339.748,65.23 345.118,59.86 Q350.488,54.49 350.488,46.871 L350.488,21.627 Q350.488,18.781 352.508,16.762 Q354.527,14.742 357.373,14.742 Q360.219,14.742 362.238,16.762 Q364.258,18.781 364.258,21.627 L364.258,46.871 Q364.258,60.182 354.849,69.591 Q345.439,79 332.129,79 Q318.818,79 309.409,69.591 Q300,60.182 300,46.871 z" fill="#4C5259"/>
    <path d="M426.221,14.742 Q429.066,14.742 431.086,16.762 Q433.105,18.781 433.105,21.627 Q433.105,24.473 431.086,26.492 Q429.066,28.512 426.221,28.512 L388.355,28.512 Q385.968,28.512 384.293,30.187 Q382.617,31.862 382.617,34.249 Q382.617,36.636 384.293,38.311 Q385.968,39.986 388.355,39.986 L413.599,39.986 Q421.677,39.986 427.391,45.701 Q433.105,51.415 433.105,59.493 Q433.105,67.571 427.391,73.286 Q421.677,79 413.599,79 L375.732,79 Q372.887,79 370.867,76.98 Q368.848,74.961 368.848,72.115 Q368.848,69.27 370.867,67.25 Q372.887,65.23 375.732,65.23 L413.599,65.23 Q415.985,65.23 417.661,63.555 Q419.336,61.88 419.336,59.493 Q419.336,57.106 417.661,55.431 Q415.985,53.756 413.599,53.756 L388.355,53.756 Q380.276,53.756 374.562,48.042 Q368.848,42.327 368.848,34.249 Q368.848,26.171 374.562,20.457 Q380.276,14.742 388.355,14.742 z" fill="#4C5259"/>
    <path d="M437.695,21.627 Q437.695,18.781 439.715,16.762 Q441.734,14.742 444.58,14.742 Q447.426,14.742 449.445,16.762 Q451.465,18.781 451.465,21.627 L451.465,72.115 Q451.465,74.961 449.445,76.98 Q447.426,79 444.58,79 Q441.734,79 439.715,76.98 Q437.695,74.961 437.695,72.115 z" fill="#4C5259"/>
    <path d="M488.184,14.742 Q501.494,14.742 510.903,24.151 Q520.312,33.561 520.312,46.871 Q520.312,60.182 510.903,69.591 Q501.494,79 488.184,79 Q474.873,79 465.464,69.591 Q456.055,60.182 456.055,46.871 Q456.055,33.561 465.464,24.151 Q474.873,14.742 488.184,14.742 z M488.184,28.512 Q480.564,28.512 475.194,33.882 Q469.824,39.252 469.824,46.871 Q469.824,54.49 475.194,59.86 Q480.564,65.23 488.184,65.23 Q495.803,65.23 501.173,59.86 Q506.543,54.49 506.543,46.871 Q506.543,39.252 501.173,33.882 Q495.803,28.512 488.184,28.512 z" fill="#4C5259"/>
    <path d="M538.672,72.115 Q538.672,74.961 536.652,76.98 Q534.633,79 531.787,79 Q528.941,79 526.922,76.98 Q524.902,74.961 524.902,72.115 L524.902,21.627 Q524.902,18.781 526.922,16.762 Q528.941,14.742 531.787,14.742 Q534.633,14.742 536.652,16.762 L561.896,42.006 L575.391,55.5 L575.391,21.627 Q575.391,18.781 577.41,16.762 Q579.43,14.742 582.275,14.742 Q585.121,14.742 587.141,16.762 Q589.16,18.781 589.16,21.627 L589.16,72.115 Q589.16,74.961 587.141,76.98 Q585.121,79 582.275,79 Q579.43,79 577.41,76.98 L552.166,51.736 L538.672,38.242 z" fill="#4C5259"/>
  </g>
</svg>
