<svg xmlns="http://www.w3.org/2000/svg" width="215" height="200"><path fill="#1b17fc" d="M188.563 22.125c2.003 1.508 2.003 1.508 3.437 2.875v2h2c5.49 10.655 7.428 19.355 4 31-1.642 3.678-3.63 7.103-5.687 10.563l-1.737 2.994c-1.84 3.159-3.704 6.303-5.576 9.443l-1.854 3.112a3740 3740 0 0 1-9.4 15.65 1360 1360 0 0 0-10.621 17.988l-5.218 8.972a8407 8407 0 0 1-9.731 16.685q-1.094 1.87-2.184 3.743c-17.075 29.307-17.075 29.307-31.304 33.537-9.838 1.144-18.208.236-26.465-5.675-7.116-6.05-11.676-12.393-12.461-21.895l-.075-3.242-.113-3.195c1.106-9.555 6.482-17.48 11.478-25.485 1.935-3.102 3.845-6.22 5.757-9.336l1.129-1.836a333 333 0 0 0 7.812-13.398c3.83-6.933 7.838-13.752 11.883-20.562a2319 2319 0 0 0 9.664-16.426l2.238-3.837q1.635-2.802 3.263-5.607c3.866-6.662 7.804-13.277 11.897-19.802l1.074-1.752c4.15-6.524 9.576-10.053 16.543-13.076 12.051-1.839 20.379-.48 30.25 6.562"/><path fill="#1b17f8" d="M65.023 20.25c7.017 5.392 11.473 13.493 12.793 22.18.738 10.32-1.489 18.786-8.066 26.82-5.579 6.01-11.309 9.468-19.508 9.988-9.98.252-17.326-.608-25.992-5.925-7.055-7.251-11.282-15.595-11.625-25.75C12.935 38.299 15.564 30.756 22 24c12.215-11.153 28.78-12.549 43.023-3.75"/><path fill="#1914b6" d="M85 125c1.088 3.314 1.073 3.836-.437 7.25L83 135h-2l.063 2.438C81 140 81 140 80 141c-1.054 7.763-1.136 15.256 0 23-5.108-6.218-4.646-13.225-4-21 1.708-6.636 5.168-12.377 9-18"/><path fill="#1813b0" d="M80 165h3l2 2 2-1 1 7 2.25-.25c3.558.323 4.446 1.628 6.75 4.25 2.453 1.226 4.05 1.114 6.79 1.098l2.85-.01 2.985-.025 3.008-.014q3.683-.018 7.367-.049c-5.446 3.63-11.615 3.618-18 3-8.763-1.847-15.066-6.37-21-13z"/><path fill="#1814b4" d="M191 65h2c-1.599 4.369-3.767 8.344-6.062 12.375l-1.184 2.092C181.63 86.72 177.334 93.87 173 101c-1.392-4.176.177-6.135 2-10h2v-3h2v-5h2v-2h2l.375-2.937L184 75l2-1 1-3h2v-4h2z"/><path fill="#1914ae" d="M74 33c3.788 3.788 3.963 9.609 4.043 14.79-.455 7.516-2.263 14.043-7.293 19.773L69 69v-5h2v-3h2v-4h2z"/><path fill="#1d19ba" d="M62.125 72.875 65 73c-6.044 5.333-11.583 6.368-19.375 6.313l-2.275-.004C37.99 79.215 33.826 78.464 29 76v-1q3.5-.061 7 0l1 1c1.486.157 2.98.25 4.473.316l2.724.127 2.865.12 2.877.13q3.53.16 7.061.307v-2c2-2 2-2 5.125-2.125"/><path fill="#1814b6" d="M142 145h4c-1.986 5.21-4.653 9.87-7.437 14.688l-1.487 2.626-1.447 2.51-1.31 2.284C133 169 133 169 130 171v-5l3-1v-2h2l1-7h3l-1-4h3z"/><path fill="#1914b0" d="M134 42c.645 1.75.645 1.75 1 4-.926 2-.926 2-2.312 4-1.776 2.604-3.333 5.151-4.688 8h-2l.188 2.813C126 64 126 64 124.625 65.875 123 67 123 67 121 67v2h-2c1.664-4.59 3.971-8.707 6.375-12.937l1.172-2.092A162 162 0 0 1 134 42"/><path fill="#1813ab" d="M180 17c-4.147 1.198-7.994.89-12.25.563l-2.258-.159Q162.746 17.21 160 17v2c-6.4 3.077-6.4 3.077-9.437 2.688L149 21c8.9-6.513 20.652-8.847 31-4"/><path fill="#1713ae" d="m28 19 2 1-1.898 2.082-2.477 2.73-2.46 2.708C20.908 29.996 20.908 29.996 19 33h-2v5h-2c.333-6.668 4.004-11.193 8.73-15.621A116 116 0 0 1 28 19"/><path fill="#1714b7" d="M108 86h1l1 6-3 1a396 396 0 0 0-3 5h-2c1.317-4.609 3.152-8.141 6-12"/><path fill="#1813a9" d="M16 60c3 1 3 1 4.063 3L21 65l2 1c.625 2.563.625 2.563 1 5h-2c-1.508-1.898-1.508-1.898-3.125-4.375l-1.633-2.46C16 62 16 62 16 60"/><path fill="#1c15d1" d="M120 175h5c-1.872 2.532-2.995 2.999-6.125 3.688-4.31.347-8.555.4-12.875.312v-1l14-1z"/><path fill="#1813ac" d="M147 22h2c0 3 0 3-1.875 5L145 29l-2 3h-2c1.367-3.987 3.152-6.885 6-10"/><path fill="#1a14b6" d="M161 116h2c-1.333 3.59-2.894 6.796-5 10h-1l-1-6h2l1-2h2z"/><path fill="#1614a4" d="M191 65h2c-1.566 4.308-3.683 8.062-6 12-1-3-1-3 0-6h2v-4h2z"/><path fill="#1915b1" d="M98 103c.688 1.688.688 1.688 1 4-1.312 2.75-1.312 2.75-3 5h-2v3h-2c1.566-4.308 3.683-8.062 6-12"/><path fill="#1714aa" d="M85 125c.688 1.625.688 1.625 1 4-1.437 3.25-1.437 3.25-3 6h-3c1.335-3.594 2.96-6.755 5-10"/><path fill="#1613ae" d="m91 115 2 3-1.437 1.313c-1.8 1.71-1.8 1.71-2.563 4.687l-3 1c1.335-3.594 2.96-6.755 5-10"/><path fill="#1916ba" d="M172 101c-1.186 3.375-2.276 5.647-5 8v-7c2-1 2-1 5-1"/><path fill="#1814aa" d="M118 69c.688 1.688.688 1.688 1 4-1.25 2.688-1.25 2.688-3 5l-3 1c1.335-3.594 2.96-6.755 5-10"/><path fill="#1b16d3" d="M140 32h3l-1 5h-4z"/><path fill="#1610a5" d="M181 18c3.937 1.312 6.227 2.92 9 6h-4v-2l-1.937-.312L182 21z"/><path fill="#1411a3" d="M62.125 72.875 65 73c-5.143 4.429-5.143 4.429-9 5 1.329-3.986 1.846-4.954 6.125-5.125"/><path fill="#1715ac" d="M29 75h7l1 3c-5.75-.75-5.75-.75-8-3"/><path fill="#1915c6" d="m124 63 2 1c-1.375 1.5-1.375 1.5-3 3h-2v2h-2c.813-2.437.813-2.437 2-5z"/></svg>