<svg xmlns="http://www.w3.org/2000/svg" width="374" height="84"><path fill="#fff" d="m169.031 11.867 2.469.008 2.469-.008C176 12 176 12 177 13c.072 1.686.084 3.375.063 5.063l-.028 2.785L177 23l1.898-.035c.818-.01 1.635-.018 2.477-.027l2.46-.036C186 23 186 23 188 24c2.29-.213 4.537-.578 6.809-.941C197 23 197 23 200 25a126 126 0 0 0 6-2c2.875-.125 2.875-.125 5 0 .687 2.49 1 4.379 1 7h2l.563-1.75c2.11-3.304 4.842-4.913 8.437-6.25 6.498-1.146 10.644.353 16 4v-2l9-1c1.06 4.246 1.035 8.125.879 12.488l-.072 2.131q-.116 3.347-.244 6.694-.081 2.277-.159 4.556Q248.211 54.434 248 60h-8l-1-3-2.312 2c-4.529 3.023-9.455 2.64-14.688 2-5.601-1.935-8.454-5.07-11.187-10.25-1.986-6.72-2.2-12.149.187-18.75-1.444.372-2.88.774-4.312 1.188l-2.426.667c-3.182 1.61-3.924 2.818-5.262 6.145-.347 3.448-.283 6.852-.187 10.313l.04 2.822c.036 2.288.09 4.577.147 6.865h-10l-1-29-1 1a92 92 0 0 1-5.062.063l-2.786-.028L177 32c-.108 2.772-.187 5.54-.25 8.313l-.102 2.38c-.179 4.58-.179 4.58 2.133 8.338 3.122 1.363 5.858 1.163 9.219.969q.061 3.5 0 7c-1.853 1.853-4.766 1.217-7.25 1.25l-3.453.078c-3.669-.365-5.45-1.006-8.297-3.328-2.65-4.426-2.667-9.776-3.125-14.812l-.262-2.678Q165.3 36.255 165 33l-6-1 .527 2.29c.647 5.076.322 9.986.036 15.085l-.159 3.098Q159.21 56.237 159 60q-2.22.039-4.437.063l-2.497.035C150 60 150 60 149 59a81 81 0 0 1 .078-4.734l.078-2.93q.093-3.063.235-6.125c.163-6.123.163-6.123-2.711-11.414-2.575-2.087-2.575-2.087-5.805-1.797-2.86.995-4.113 1.589-5.875 4-.952 2.855-1.19 4.91-1.316 7.887l-.127 2.842-.12 2.959-.13 2.994Q133.149 56.34 133 60h-9c-1.007-4.03-1.114-7.25-1.098-11.39l.005-2.136c.005-2.241.018-4.483.03-6.724q.009-2.285.014-4.57.017-5.59.049-11.18c3.255-1.085 5.59-1.213 9-1l3 2 1.938-1.5c4.15-2.033 7.52-2.327 12.062-1.5 2.947 1.317 5.594 2.836 8 5v2h2v-5h7l-.035-2.371-.028-3.067-.035-3.058c.135-3.441.135-3.441 3.13-3.637M221 35c-2.352 3.208-2.468 6.096-2 10 1.775 3.42 3.103 5.471 6.438 7.438 3.064.672 4.614.667 7.562-.438 2.777-2.272 4.612-4.018 5.938-7.375.087-3.67-.518-6.23-1.938-9.625-6.097-5.17-9.826-4.832-16 0M76.938 11.55c3.752.818 6.435 2.692 9.062 5.45 2.306 4.42 2.415 8.29 1 13-2.055 4.245-4.456 8.267-6.875 12.313q-1.025 1.734-2.046 3.47a1346 1346 0 0 1-4.124 6.939 948 948 0 0 0-5.22 8.88q-1.428 2.418-2.86 4.836l-1.285 2.218C62.23 72.57 60.335 75.11 56 77c-5.206.568-8.617-.111-13-3-3.057-3.465-3.668-6.878-3.457-11.38.529-3.032 1.57-5.065 3.09-7.737l1.649-2.918L46 49l1.599-2.774C51.343 39.785 55.17 33.392 59 27l1.196-2.009A479 479 0 0 1 63 20.375l1.438-2.352c3.472-4.496 6.65-6.793 12.5-6.472M318.063 23 320 24v2l1.813.75c3.507 2.004 4.817 4.418 6.437 8.063.891 3.788.691 6.422-.25 10.187l-3 2 3 1c0 2.625 0 2.625-1 6-6.135 5.983-11.572 7.369-19.988 7.277-5.663-.521-9.126-3.079-12.887-7.277-3.71-5.237-3.777-10.727-3.125-17 1.849-6.69 6.155-10.532 12-14 4.997-1.666 10.058-1.634 15.063 0M302 36l1 1a166 166 0 0 0 7.063-.437l3.91-.31L317 36c-.675-3.038-.675-3.038-2.75-4.187-5.965-2.154-8.178-.467-12.25 4.187m0 9c.27 2.437.27 2.437 1 5 3.666 2.444 6.74 2.846 11 2 3.024-2.271 3.024-2.271 5-5v-1c-3.837-.904-7.375-1.106-11.312-1.062l-3.239.027zm-23-23c5.44 2.566 7.475 5.762 10 11 1.238 4.094 1.147 8.133 1.125 12.375l.012 2.25c-.008 4.235-.303 8.204-1.137 12.375h-9l-.152-2.048a2159 2159 0 0 0-.723-9.202l-.238-3.223-.254-3.105-.222-2.857c-.419-2.612-.948-4.364-2.411-6.565-3.13-.953-5.124-1.292-8.25-.25-2.04 1.301-2.04 1.301-3.75 4.25-.367 2.515-.367 2.515-.414 5.324l-.117 3.115-.094 3.249-.117 3.283c-.095 2.676-.177 5.352-.258 8.029h-10V24c3.335-.834 5.635-1.266 9-1l2 2 2.438-1.5c4.396-1.851 7.859-2.243 12.562-1.5"/><path fill="#fff" d="M328 23c3.541-.705 6.492-.952 10 0 3.017 3.325 5.03 6.982 7 11l.926-2.152c1.48-2.974 2.845-5.374 5.074-7.848 3.717-1.157 7.132-1.234 11-1 0 3.803-1.228 5.225-3.312 8.375C356.385 34.879 354.133 38.39 352 42l1.496 2.047 1.942 2.703 1.933 2.672C359 52 359 52 359.535 54.266L360 56l3 1v3c-4.15.604-7.88.89-12 0-2.85-2.975-4.455-6.205-6-10-3.004 3.618-3.004 3.618-5.062 7.813C338 60 338 60 335.368 60.313c-2.807 0-5.57-.1-8.368-.313 1.886-5.764 4.201-9.977 7.988-14.727 1.296-2.315 1.296-2.315.41-5.156-1.98-4.413-4.488-8.404-7.035-12.508L327 25zM29.082 11.613c5.067.672 7.657 2.832 10.793 6.7 1.95 4.657 1.67 8.268-.125 12.937-2.235 3.513-3.681 5.24-7.797 6.254C26.77 38.33 23.463 38.08 19 35c-3.354-3.234-4.516-7.456-5-12 1.615-9.69 5.897-11.711 15.082-11.387m82.731 11.254 2.187.008 2.188-.008C118 23 118 23 119 24c.089 2.666.115 5.306.098 7.973l-.005 2.417c-.005 2.557-.018 5.115-.03 7.672q-.009 2.595-.014 5.19Q119.032 53.627 119 60h-10q-.037-7.663-.055-15.326-.008-2.609-.02-5.218c-.013-2.494-.018-4.989-.023-7.483l-.015-2.37c0-1.869.051-3.736.113-5.603 1-1 1-1 2.813-1.133M118 9l2 2c-.187 3.5-.187 3.5-1 7-3 2-3 2-5.562 1.75C111 19 111 19 109 17c-.75-3-.75-3-1-6 3.118-3.118 5.878-3.511 10-2"/></svg>