<svg xmlns="http://www.w3.org/2000/svg" width="1328" height="410"><path fill="#5170ff" d="m237.195 35.504 3.59-.005q3.75.004 7.499.034c3.834.03 7.667.021 11.501.008q3.643.01 7.285.025l3.485-.008 3.227.038 2.84.016c2.814.459 3.704 1.117 5.378 3.388 1.207 6.11-2.202 10.764-5.125 15.875l-1.625 2.91c-4.571 8.142-9.297 16.195-14.031 24.243-4.43 7.551-8.661 15.194-12.823 22.896-4.322 7.984-8.811 15.864-13.333 23.736a2562 2562 0 0 0-9.5 16.715l-1.644 2.91-6.5 11.518c-5.174 9.173-10.352 18.342-15.583 27.482l-1.076 1.88a8214 8214 0 0 1-5.205 9.082q-1.89 3.3-3.762 6.614a235 235 0 0 1-3.668 6.2c-3.317 5.224-3.317 5.224-3.758 11.154L186 225l1.82 3.504a688 688 0 0 0 2.305 4.059q1.356 2.407 2.71 4.816l1.52 2.692c3.16 5.627 6.277 11.278 9.395 16.929l1.032 1.869a2858 2858 0 0 1 16.341 30.076A1408 1408 0 0 0 231.25 307.5l1.183 2.135a574 574 0 0 0 6.403 11.22l1.413 2.45q1.334 2.31 2.705 4.597c2.578 4.495 3.82 7.774 3.046 13.098-1.645 2.276-2.54 2.923-5.332 3.388l-2.779.016c-1.562.02-1.562.02-3.156.038l-3.409-.008-3.509.015q-3.678.01-7.356-.003c-3.747-.008-7.492.02-11.238.052q-3.573.003-7.147-.002l-3.39.034c-6.19-.055-10.025-.296-14.684-4.53-1.556-2.26-2.816-4.335-4.062-6.75l-1.126-2.086a660 660 0 0 1-2.467-4.622c-1.96-3.704-3.958-7.387-5.953-11.072a3846 3846 0 0 1-3.321-6.147A976 976 0 0 0 155.75 289c-6.052-10.612-11.789-21.38-17.487-32.185-3.28-6.217-6.576-12.42-9.978-18.573l-1.695-3.066a973 973 0 0 0-3.1-5.541l-1.365-2.46-1.18-2.096c-1.112-2.446-1.721-4.391-1.945-7.079.95-2.466.95-2.466 2.473-5.078l1.705-2.98 1.885-3.192 3.902-6.781 2.035-3.504c3.109-5.367 6.11-10.795 9.125-16.215a2676 2676 0 0 1 14.339-25.302c4.47-7.806 8.864-15.654 13.253-23.506 6.586-11.783 13.237-23.53 19.887-35.276l4.833-8.541 1.605-2.833q4.349-7.69 8.642-15.41l1.867-3.353q1.763-3.17 3.517-6.343c2.753-4.946 5.574-9.845 8.534-14.67l1.611-2.632c5.43-7.245 10.41-6.964 18.982-6.88"/><path fill="#37b6ff" d="m46.652 95.839 2.852-.03 3.078-.012 3.173-.017q3.324-.015 6.65-.02c3.384-.01 6.767-.041 10.152-.073q3.23-.009 6.463-.015l3.059-.038c6.825.022 11.365.802 16.366 5.82 3.664 4.75 6.487 10.084 9.43 15.296l2.947 5.184q1.02 1.79 2.037 3.583a697 697 0 0 0 7.493 12.8q1.567 2.643 3.132 5.289a691 691 0 0 0 3.031 5.028l1.829 3.104 1.63 2.72c1.251 3.1 1.077 4.399.026 7.542-1.177 2.482-1.177 2.482-2.668 5.113l-1.685 2.994c-.606 1.058-1.21 2.116-1.835 3.205l-1.902 3.362c-4.781 8.422-9.663 16.784-14.571 25.133-5.193 8.862-10.177 17.834-15.102 26.847-2.862 5.207-5.78 10.374-8.866 15.451l-1.6 2.642c-2.551 3.246-5.2 5.014-9.32 5.64l-2.729.017c-1.541.02-1.541.02-3.114.038l-3.33-.008-3.448.015q-3.602.01-7.204-.003c-3.679-.008-7.356.02-11.034.052q-3.501.003-7.002-.002l-3.337.034-3.105-.028h-2.727c-3.22-.667-4.439-1.924-6.421-4.502.08-5.168 1.668-8.838 4.176-13.29l.972-1.746c1.044-1.869 2.104-3.729 3.164-5.589l2.206-3.93q2.73-4.859 5.49-9.701 1.335-2.347 2.665-4.697a2727 2727 0 0 1 12.363-21.566q2.755-4.76 5.499-9.528 1.078-1.87 2.164-3.737a1396 1396 0 0 0 3.028-5.243l1.768-3.055c1.558-3.022 2.814-5.58 3.505-8.918-.969-2.923-.969-2.923-2.848-5.719l-2.007-3.293-1.092-1.725a364 364 0 0 1-3.32-5.37c-1.866-3.055-3.75-6.098-5.642-9.137a1326 1326 0 0 1-8.529-13.944l-1.662-2.656c-3.127-5.162-4.77-9.076-4.9-15.156 2.529-3.92 6.29-4.125 10.652-4.161"/><path fill="#fff" d="M957 130h29c5.09 6.999 9.94 13.874 14.5 21.188 7.612 12.087 15.543 23.95 23.5 35.812l8 12 1-69h29v117h-30c-10.214-12.16-10.214-12.16-13.254-18.266-4.5-8.66-9.847-16.693-15.273-24.796-5.54-8.28-10.998-16.615-16.473-24.938l-1 68h-29zm-501 0h29c5.09 6.999 9.94 13.874 14.5 21.188 7.612 12.087 15.543 23.95 23.5 35.812l8 12 1-69h29v117h-30c-10.214-12.16-10.214-12.16-13.254-18.266-4.5-8.66-9.847-16.693-15.273-24.796-5.54-8.28-10.998-16.615-16.473-24.938l-1 68h-29zm247 0c68.87 0 68.87 0 82.434 12.273 7.17 7.905 9.042 17.355 8.808 27.711-.725 9.035-4.204 16.268-10.242 23.016-4.654 3.918-9.197 6.202-15 8 7.194 12.843 14.475 25.623 22.036 38.254l1.577 2.644 1.4 2.334C795 246 795 246 795 247h-34l-4.187-8.062c-4.686-8.972-9.635-17.781-14.697-26.546l-1.624-2.833c-.48-.833-.962-1.665-1.457-2.522C738 205 738 205 738 203h-6v44h-29zm29 24v29c15.335 1.052 15.335 1.052 29-4.437 3.505-4.492 3.677-9.063 3-14.563-2.216-4.431-4.48-6.956-9-9-4.987-1.09-9.803-1.118-14.875-1.062zm125-24h34a3038 3038 0 0 1 17.625 47.938c4.588 12.796 9.186 25.588 13.875 38.347l1.068 2.907q2.499 6.8 5.013 13.593l1.77 4.809.822 2.205C933 244.773 933 244.773 933 247h-31c-2.507-6.267-4.866-12.597-7-19l-43-1-2 9-4 11h-31c3.375-11.251 3.375-11.251 4.923-15.578l1.057-2.97 1.125-3.132 1.203-3.366q1.936-5.415 3.88-10.829l2.01-5.616q8.88-24.804 17.865-49.571l1.014-2.801q1.413-3.9 2.833-7.797l.821-2.269 1.435-3.936c1.201-3.076 2.533-6.1 3.834-9.135m16 35q-2.78 8.09-5.554 16.18l-1.892 5.51q-1.357 3.949-2.71 7.9l-.862 2.503c-1.373 3.382-1.373 3.382-1.982 6.907h27c-1.687-7.591-3.78-14.704-6.313-22.014a915 915 0 0 1-2.054-6.029l-1.32-3.832-1.2-3.492c-.832-2.763-.832-2.763-3.113-3.633m316-35c23.829-4.502 23.829-4.502 34 0 10.32 7.74 16.465 21.67 22 33 2.954-3.526 5.336-7.105 7.602-11.105l.977-1.713q1.528-2.682 3.046-5.37 2.015-3.555 4.04-7.105l1.794-3.173C1264 132 1264 132 1266 130a87 87 0 0 1 7.414-.195l2.211.008c2.334.011 4.667.037 7 .062q2.37.016 4.742.027 5.817.035 11.633.098c-3.006 6.32-6.51 12.13-10.312 18l-3.727 5.813-1.954 3.046A2215 2215 0 0 0 1272.812 173l-1.925 3.055-1.805 2.882-1.587 2.528c-1.641 2.783-3.08 5.631-4.495 8.535l1.047 1.552 14.96 22.171q4.81 7.13 9.614 14.263 3.038 4.516 6.102 9.012l2.215 3.268 1.84 2.696C1300 245 1300 245 1300 247c-4.695.274-9.386.472-14.087.604q-2.393.082-4.783.226c-13.174.77-13.174.77-17.824-3.035-2.084-2.835-3.715-5.66-5.306-8.795a256 256 0 0 0-2.828-4.363 694 694 0 0 1-2.422-3.95l-2.453-3.988-1.158-1.881c-1.657-2.645-3.391-5.232-5.139-7.818-2.737 2.458-4.391 5.15-6.215 8.332l-1.83 3.17-1.892 3.31a4533 4533 0 0 1-3.715 6.458l-1.656 2.893L1227 241l-1.734 3.322c-2.266 2.678-2.266 2.678-5.75 3.36q-2.063-.004-4.125-.096l-2.203-.026a374 374 0 0 1-6.938-.185q-2.357-.045-4.715-.082c-3.846-.066-7.69-.17-11.535-.293 1.191-3.146 2.474-5.972 4.293-8.8l1.388-2.177 1.506-2.335q1.623-2.54 3.243-5.083l1.745-2.732c3.867-6.087 7.67-12.215 11.484-18.335A2271 2271 0 0 1 1226 188a679 679 0 0 0-13.992-21.34q-1.942-2.857-3.883-5.717-3.018-4.44-6.044-8.874-2.949-4.325-5.886-8.659l-1.84-2.683-1.69-2.5-1.49-2.188c-1.169-2.028-1.736-3.751-2.175-6.039m-95 0h72v24h-43v22h38v23h-38v25h43v23h-72zm-508 0h91v24h-31v93h-29v-93h-31zm-191 0h29v117h-29zM333 19l3 1v340h-4c-1.727-1.727-1.127-4.041-1.129-6.396l-.01-3.57.005-3.973-.007-4.18q-.008-5.772-.004-11.543-.002-6.214-.01-12.428-.012-12.183-.012-24.368 0-9.898-.006-19.797a109591 109591 0 0 1-.012-56.064v-6.116q-.002-24.557-.023-49.115-.023-25.185-.02-50.37.001-14.15-.014-28.303-.014-12.047-.005-24.095.007-6.152-.005-12.304-.011-5.625.002-11.25c.003-2.009-.005-4.018-.013-6.028l.014-3.578v-3.107C331 21 331 21 333 19"/></svg>