<svg xmlns="http://www.w3.org/2000/svg" width="374" height="84"><path fill="#1815db" d="m169.031 11.867 2.469.008 2.469-.008C176 12 176 12 177 13c.072 1.686.084 3.375.063 5.063l-.028 2.785L177 23l1.898-.035c.818-.01 1.635-.018 2.477-.027l2.46-.036C186 23 186 23 188 24c2.29-.213 4.537-.578 6.809-.941C197 23 197 23 200 25a126 126 0 0 0 6-2c2.875-.125 2.875-.125 5 0 .687 2.49 1 4.379 1 7h2l.563-1.75c2.11-3.304 4.842-4.913 8.437-6.25 6.498-1.146 10.644.353 16 4v-2l9-1c1.06 4.246 1.035 8.125.879 12.488l-.072 2.131q-.116 3.347-.244 6.694-.081 2.277-.159 4.556Q248.211 54.434 248 60h-8l-1-3-2.312 2c-4.529 3.023-9.455 2.64-14.688 2-5.601-1.935-8.454-5.07-11.187-10.25-1.986-6.72-2.2-12.149.187-18.75-1.444.372-2.88.774-4.312 1.188l-2.426.667c-3.182 1.61-3.924 2.818-5.262 6.145-.347 3.448-.283 6.852-.187 10.313l.04 2.822c.036 2.288.09 4.577.147 6.865h-10l-1-29-1 1a92 92 0 0 1-5.062.063l-2.786-.028L177 32c-.108 2.772-.187 5.54-.25 8.313l-.102 2.38c-.179 4.58-.179 4.58 2.133 8.338 3.122 1.363 5.858 1.163 9.219.969q.061 3.5 0 7c-1.853 1.853-4.766 1.217-7.25 1.25l-3.453.078c-3.669-.365-5.45-1.006-8.297-3.328-2.65-4.426-2.667-9.776-3.125-14.812l-.262-2.678Q165.3 36.255 165 33l-6-1 .527 2.29c.647 5.076.322 9.986.036 15.085l-.159 3.098Q159.21 56.237 159 60q-2.22.039-4.437.063l-2.497.035C150 60 150 60 149 59a81 81 0 0 1 .078-4.734l.078-2.93q.093-3.063.235-6.125c.163-6.123.163-6.123-2.711-11.414-2.575-2.087-2.575-2.087-5.805-1.797-2.86.995-4.113 1.589-5.875 4-.952 2.855-1.19 4.91-1.316 7.887l-.127 2.842-.12 2.959-.13 2.994Q133.149 56.34 133 60h-9c-1.007-4.03-1.114-7.25-1.098-11.39l.005-2.136c.005-2.241.018-4.483.03-6.724q.009-2.285.014-4.57.017-5.59.049-11.18c3.255-1.085 5.59-1.213 9-1l3 2 1.938-1.5c4.15-2.033 7.52-2.327 12.062-1.5 2.947 1.317 5.594 2.836 8 5v2h2v-5h7l-.035-2.371-.028-3.067-.035-3.058c.135-3.441.135-3.441 3.13-3.637M221 35c-2.352 3.208-2.468 6.096-2 10 1.775 3.42 3.103 5.471 6.438 7.438 3.064.672 4.614.667 7.562-.438 2.777-2.272 4.612-4.018 5.938-7.375.087-3.67-.518-6.23-1.938-9.625-6.097-5.17-9.826-4.832-16 0"/><path fill="#1b18f7" d="M76.938 11.55c3.752.818 6.435 2.692 9.062 5.45 2.306 4.42 2.415 8.29 1 13-2.055 4.245-4.456 8.267-6.875 12.313q-1.025 1.734-2.046 3.47a1346 1346 0 0 1-4.124 6.939 948 948 0 0 0-5.22 8.88q-1.428 2.418-2.86 4.836l-1.285 2.218C62.23 72.57 60.335 75.11 56 77c-5.206.568-8.617-.111-13-3-3.057-3.465-3.668-6.878-3.457-11.38.529-3.032 1.57-5.065 3.09-7.737l1.649-2.918L46 49l1.599-2.774C51.343 39.785 55.17 33.392 59 27l1.196-2.009A479 479 0 0 1 63 20.375l1.438-2.352c3.472-4.496 6.65-6.793 12.5-6.472"/><path fill="#1a17f2" d="M318.063 23 320 24v2l1.813.75c3.507 2.004 4.817 4.418 6.437 8.063.891 3.788.691 6.422-.25 10.187l-3 2 3 1c0 2.625 0 2.625-1 6-6.135 5.983-11.572 7.369-19.988 7.277-5.663-.521-9.126-3.079-12.887-7.277-3.71-5.237-3.777-10.727-3.125-17 1.849-6.69 6.155-10.532 12-14 4.997-1.666 10.058-1.634 15.063 0M302 36l1 1a166 166 0 0 0 7.063-.437l3.91-.31L317 36c-.675-3.038-.675-3.038-2.75-4.187-5.965-2.154-8.178-.467-12.25 4.187m0 9c.27 2.437.27 2.437 1 5 3.666 2.444 6.74 2.846 11 2 3.024-2.271 3.024-2.271 5-5v-1c-3.837-.904-7.375-1.106-11.312-1.062l-3.239.027z"/><path fill="#1b18f6" d="M279 22c5.44 2.566 7.475 5.762 10 11 1.238 4.094 1.147 8.133 1.125 12.375l.012 2.25c-.008 4.235-.303 8.204-1.137 12.375h-9l-.152-2.048a2159 2159 0 0 0-.723-9.202l-.238-3.223-.254-3.105-.222-2.857c-.419-2.612-.948-4.364-2.411-6.565-3.13-.953-5.124-1.292-8.25-.25-2.04 1.301-2.04 1.301-3.75 4.25-.367 2.515-.367 2.515-.414 5.324l-.117 3.115-.094 3.249-.117 3.283c-.095 2.676-.177 5.352-.258 8.029h-10V24c3.335-.834 5.635-1.266 9-1l2 2 2.438-1.5c4.396-1.851 7.859-2.243 12.562-1.5"/><path fill="#1b17f3" d="M328 23c3.541-.705 6.492-.952 10 0 3.017 3.325 5.03 6.982 7 11l.926-2.152c1.48-2.974 2.845-5.374 5.074-7.848 3.717-1.157 7.132-1.234 11-1 0 3.803-1.228 5.225-3.312 8.375C356.385 34.879 354.133 38.39 352 42l1.496 2.047 1.942 2.703 1.933 2.672C359 52 359 52 359.535 54.266L360 56l3 1v3c-4.15.604-7.88.89-12 0-2.85-2.975-4.455-6.205-6-10-3.004 3.618-3.004 3.618-5.062 7.813C338 60 338 60 335.368 60.313c-2.807 0-5.57-.1-8.368-.313 1.886-5.764 4.201-9.977 7.988-14.727 1.296-2.315 1.296-2.315.41-5.156-1.98-4.413-4.488-8.404-7.035-12.508L327 25z"/><path fill="#1c17f4" d="M29.082 11.613c5.067.672 7.657 2.832 10.793 6.7 1.95 4.657 1.67 8.268-.125 12.937-2.235 3.513-3.681 5.24-7.797 6.254C26.77 38.33 23.463 38.08 19 35c-3.354-3.234-4.516-7.456-5-12 1.615-9.69 5.897-11.711 15.082-11.387"/><path fill="#1b18f9" d="M168 14h7v10l4.938-.062A92 92 0 0 1 185 24c1 1 1 1 1.063 4.063L186 31l-1.934.148-2.504.227c-.823.07-1.647.14-2.496.21L177 32c-1.148 2.297-1.116 3.583-1.098 6.133l.01 2.441.025 2.551.014 2.574q.02 3.15.049 6.301h-4l-1 2-2-1-.076-1.912q-.175-4.263-.362-8.526l-.119-3.01-.127-2.86-.11-2.65c.012-2.035.012-2.035-1.206-3.042a236 236 0 0 0-7-1v-5l7-1z"/><path fill="#1915e6" d="m111.813 22.867 2.187.008 2.188-.008C118 23 118 23 119 24c.089 2.666.115 5.306.098 7.973l-.005 2.417c-.005 2.557-.018 5.115-.03 7.672q-.009 2.595-.014 5.19Q119.032 53.627 119 60h-10q-.037-7.663-.055-15.326-.008-2.609-.02-5.218c-.013-2.494-.018-4.989-.023-7.483l-.015-2.37c0-1.869.051-3.736.113-5.603 1-1 1-1 2.813-1.133"/><path fill="#1b18f8" d="M138 25h14v2l4 1c2.066 6.766 2.24 12.956 2.125 20l-.027 3.215Q158.062 55.107 158 59h-7l-.076-2.156q-.176-4.828-.362-9.657l-.119-3.392-.127-3.252-.11-3c-.114-2.665-.114-2.665-1.206-5.543l-5-1v-2h-6v2h-3z"/><path fill="#1c17e7" d="M318.063 23 320 24v2l1.813.75c3.507 2.004 4.817 4.418 6.437 8.063.891 3.788.691 6.422-.25 10.187l-3 2 3 1v4h-2v-3h-8v-2l-16-2v-2h25v-4l-6-2v2c-6.417.103-12.627-.255-19-1-.934-3.01-1.044-3.867 0-7h5l-4 5h14l-1-3 4 1 2-6-4-1v-2c-7.959-.563-7.959-.563-15.437 1.688a143 143 0 0 0-5.313 5.062L295 34h-2c1.309-5.563 5.389-8.115 10-11 4.997-1.666 10.058-1.634 15.063 0"/><path fill="#1b17fb" d="M240 25h7v34h-7l-1-2h-6l-1-4 2.313-1.25c2.819-1.836 4.188-2.752 5.687-5.75.55-4.736.69-7.964-2-12 .242-2.262.242-2.262.875-4.687l.617-2.45z"/><path fill="#1a16ec" d="M190 25h7l-2 5 3 1-1 3 1 1c1.034 5.504 1.121 10.85 1.063 16.438l-.014 2.505q-.02 3.03-.049 6.057h-9z"/><path fill="#1b18f9" d="M132 25c1.765 3.22 2.09 5.483 1.594 9.031-.65 5.172-.924 10.327-1.156 15.532l-.131 2.767Q132.15 55.665 132 59h-7q-.111-6.299-.165-12.598a559 559 0 0 0-.061-4.283c-.037-2.055-.054-4.11-.067-6.166l-.048-3.745C125.24 26.742 126.414 25 132 25"/><path fill="#1c17fc" d="M255 25h3v2h3v2h7l1 2-4 1v2h-3l-1 25h-6z"/><path fill="#1d16ed" d="M223 22c6.655-.543 10.458.227 16 4v-2l9-1c1.06 4.246 1.035 8.125.879 12.488l-.072 2.131q-.116 3.347-.244 6.694-.081 2.277-.159 4.556Q248.211 54.434 248 60h-8v-1h7V25h-7l-.437 2.813C239 31 239 31 238 34l2 1c1.762 3.524 1.663 7.163 1 11-2.175 3.949-4.564 6.532-8.875 7.938L230 54c1.868-1.868 3.646-3.499 5.75-5.125 2.49-3.182 2.552-3.692 2.188-7.5-.494-3.246-1.049-4.54-2.938-7.375-2.585-1.846-3.792-2.017-7-1.75-2.622.656-4.672 1.407-7 2.75v-4h5v-2l2.938-.375L232 28l1-2h-3v-2h-7z"/><path fill="#1714df" d="M168 32h1v21l7-1-1-2a215 215 0 0 1-.062-8.125l.013-2.285q.02-2.795.049-5.59l2-1-.14 3.395q-.057 2.209-.11 4.417l-.102 2.237c-.111 4.37-.111 4.37 2.133 7.951 3.122 1.407 5.843 1.195 9.219 1q.061 3.5 0 7c-1.853 1.853-4.766 1.217-7.25 1.25l-3.453.078c-3.669-.365-5.45-1.006-8.297-3.328-2.259-3.96-2.444-8.006-2.75-12.5l-.297-3.906c.045-3.464.515-5.53 2.047-8.594"/><path fill="#110ed6" d="M129.992 22.77C132 23 132 23 135 25l4-2c-1.125 2.972-2.223 5.334-4 8h3v-2h6v2l-3.312 1.188c-2.482.889-3.629 1.744-5.375 3.75-1.952 4.552-1.885 8.968-2 13.874l-.104 2.967A850 850 0 0 0 133 60h-9c-1.002-4.009-1.13-7.236-1.133-11.355l-.003-2.128q0-2.218.006-4.436.005-3.407-.007-6.813 0-2.156.004-4.311l.004-3.97c.226-5.226 2.396-4.122 7.121-4.217m-3.724 3.795c-1.702 3.267-1.608 5.713-1.561 9.388l.013 2c.017 2.1.054 4.198.093 6.297q.022 2.14.04 4.281.053 5.235.147 10.469h7l.076-1.693q.177-3.873.362-7.745l.119-2.662c.241-5.041.636-10.003 1.336-15.004.15-2.658-.628-4.589-1.893-6.896-3.895-.447-3.895-.447-5.732 1.565"/><path fill="#1e1bc6" d="M262 23v4h-4v-2h-3v34h6l-.035-3.945q-.015-2.59-.027-5.18l-.026-2.594c-.017-4.548.156-8.805 1.088-13.281h3l-1 3a119 119 0 0 0-.316 5.324l-.127 3.115-.12 3.249-.13 3.283Q263.149 55.985 263 60h-10V24c2.957-1.478 5.742-1.06 9-1"/><path fill="#1c19dd" d="m317 48 9 1 1 5a701 701 0 0 1-3.812 2.938l-2.145 1.652c-3.61 2.492-6.708 2.571-10.98 2.597l-3.153.043c-2.86-.226-4.487-.753-6.91-2.23 3.003-1.502 5.79-1.093 9.125-1.062l3.883.027L316 58v-4h-8v-2l8-1z"/><path fill="#1d17c1" d="M29.082 11.613c5.067.672 7.657 2.832 10.793 6.7C41.311 21.742 41.341 24.315 41 28l-2 3-.113-2.266-.2-2.984-.175-2.953C37.929 19.61 37.392 18.188 35 16c-2.956-.7-2.956-.7-6.187-.75l-3.293-.172L23 15v2h-3l-.375 1.938L19 21l-2 1c-.656 2.527-.656 2.527-1 5-1.125-1.562-1.125-1.562-2-4 1.733-9.703 5.83-11.714 15.082-11.387"/><path fill="#1b18f4" d="m118 9 2 2c-.187 3.5-.187 3.5-1 7-3 2-3 2-5.562 1.75C111 19 111 19 109 17c-.75-3-.75-3-1-6 3.118-3.118 5.878-3.511 10-2"/><path fill="#1b16d1" d="M328 23c3.45-.482 6.572-.7 10 0 2.445 2.308 3.943 4.81 5 8l-1 2-7-4v6h2v6c-2.525-3.227-4.657-6.604-6.75-10.125l-1.922-3.195L327 25z"/><path fill="#181ae7" d="M337 41h2c-.526 3.89-1.293 5.293-4 8a134 134 0 0 0-3.187 5.188l-1.606 2.73L329 59h6l.375-2.437L336 54l2-1 2-3 2-3h4l2 6-4-3-.926 2.188C341.6 55.178 340.273 57.55 338 60c-3.797.885-7.172.613-11 0 1.864-5.695 4.258-10.21 7.695-15.117 1.347-1.848 1.347-1.848 2.305-3.883"/><path fill="#1c18c7" d="M223 22c6.655-.543 10.458.227 16 4v-2l9-1c1.06 4.246 1.035 8.125.879 12.488l-.072 2.131q-.116 3.347-.244 6.694-.081 2.277-.159 4.556Q248.211 54.434 248 60h-8v-1h7V25h-7v2l-10-1v-2h-7z"/><path fill="#1c17de" d="M71 12c5.731-.503 9.057-.165 13.586 3.516C86.828 17.869 87.49 19.81 88 23c-.253 4.798-1.165 8.101-4 12h-1v-6h1v-5l-2-1a109 109 0 0 1-1-7c-3.83-1.802-6.781-2.196-11-2z"/><path fill="#1612b8" d="m185 23 3 1c2.295-.094 2.295-.094 4.688-.437l2.449-.31L197 23l2 3-9-1 .508 2.06c.571 3.413.503 6.531.37 9.99l-.07 1.997q-.117 3.133-.245 6.266-.081 2.133-.159 4.267-.193 5.21-.404 10.42h-1l-1-29-1 1c-1.853.072-3.708.084-5.562.063l-3.067-.028L176 32v-1h10z"/><path fill="#0809b8" d="M270 22c4.622-.37 8.055-.446 12.313 1.563 4.119 3.735 6.59 7.924 7.687 13.437.095 2.802.14 5.574.125 8.375l.012 2.25c-.008 4.235-.303 8.204-1.137 12.375h-1l-1-28h-2l-.75-2.375c-1.023-2.635-1.023-2.635-2.875-3.937-3.513-1.017-6.724-.81-10.375-.688z"/><path fill="#201dd5" d="M318.063 23 320 24v2l4 2v3a125 125 0 0 1-6-4v-2c-7.959-.563-7.959-.563-15.437 1.688a143 143 0 0 0-5.313 5.062L295 34h-2c1.309-5.563 5.389-8.115 10-11 4.997-1.666 10.058-1.634 15.063 0"/><path fill="#1b17fb" d="M212 38q2.514.428 5 1l.438 3.188c.437 2.967.94 5.88 1.562 8.812-3.75 1.125-3.75 1.125-6 0v-4h-2c-.098-6.152-.098-6.152 0-8z"/><path fill="#090a9f" d="M302 44h26l-3 3 3 1v4h-2v-3h-8v-2l-16-2z"/><path fill="#1613e9" d="M139 23c-1.125 2.972-2.223 5.334-4 8h3v-2h6v2l-3.25 1.188c-3.641 1.536-5.52 3.51-7.75 6.812l.035-1.828.028-2.422.035-2.39c-.094-2.267-.466-4.189-1.098-6.36 4.75-3 4.75-3 7-3"/><path fill="#1513d4" d="M302 31h5l-4 5h14l-1-3 3 1c.75 2 .75 2 1 4l-1 1a225 225 0 0 1-8.562-.437l-2.444-.159Q304.997 38.208 302 38c-.934-3.01-1.044-3.867 0-7"/><path fill="#1d18f6" d="m209 25 1 5c-5.75 2-5.75 2-8 2l-1 2c-1.125-5.75-1.125-5.75 0-8 2.928-.976 4.956-1.082 8-1"/><path fill="#1b18f7" d="M352 25h7v3l-2 1a109 109 0 0 0-1 7h-2l-1-2-3-1c0-3.767.235-4.912 2-8"/><path fill="#1b16d4" d="M168 32h1v21h2l1 5c-3-1-3-1-4.14-3.094-1.036-3.5-1.362-6.764-1.61-10.406l-.297-3.906c.045-3.464.515-5.53 2.047-8.594"/><path fill="#1614a8" d="m118 9 2 2c-.187 3.5-.187 3.5-1 7-3 2-3 2-5.562 1.75C111 19 111 19 109 17c-.75-3-.75-3-1-6 3.118-3.118 5.878-3.511 10-2m-7 1c-.93 2.606-1.15 3.642-.062 6.25L112 18h6c.2-3.716.152-4.772-2-8-2.584-.25-2.584-.25-5 0"/><path fill="#1717c8" d="M337 41h2c-.526 3.89-1.293 5.293-4 8a134 134 0 0 0-3.187 5.188l-1.606 2.73L329 59h9v1h-11c1.864-5.695 4.258-10.21 7.695-15.117 1.347-1.848 1.347-1.848 2.305-3.883"/><path fill="#1612d3" d="m239 36 2 1c.488 3.989.814 7.511-1.16 11.121-2.397 2.949-4.06 4.625-7.715 5.816L230 54c1.848-1.848 3.651-3.53 5.688-5.187 3.19-3.882 2.635-5.894 2.312-10.813z"/><path fill="#2216c1" d="M269 29c4.243-.364 6.627.377 10 3 1.031 2.936 1.108 5.658 1.063 8.75l-.028 2.422L280 45h-1l-.332-2.336-.48-3.039-.458-3.023c-.518-2.93-.518-2.93-3.73-4.602-3.2.333-5.949.983-9 2l-1-3h5z"/><path fill="#1b16cf" d="M306 22c9.41-.369 9.41-.369 14 2v2l4 2v3a125 125 0 0 1-6-4v-2h-11z"/><path fill="#1513ac" d="M167 12q2.219-.04 4.438-.062l2.496-.036C176 12 176 12 177 13c.072 1.686.084 3.375.063 5.063l-.028 2.785L177 23l-2 1V14l-9 1z"/><path fill="#1d19b8" d="m361 23 2 2-7 10-1-2c.938-2.625.938-2.625 2-5h2v-3c-4.822.325-4.822.325-8.937 2.563L349 29l2-5c1.623-.222 3.249-.427 4.875-.625l2.742-.352z"/><path fill="#07044e" d="M22.75 12.25 25 13l-3 2c-4.37 3.443-4.947 6.737-6 12-1.125-1.562-1.125-1.562-2-4 .677-3.792 1.548-6.376 3.813-9.5C20 12 20 12 22.75 12.25"/><path fill="#201acf" d="m65 64 1 2c-.89 1.91-.89 1.91-2.25 4.063l-1.328 2.16C61 74 61 74 58 75v-5l-2-1 7-1v-3z"/><path fill="#16139d" d="M262 34h3l-1 3a119 119 0 0 0-.316 5.324l-.127 3.115-.12 3.249-.13 3.283A2818 2818 0 0 0 263 60h-1z"/><path fill="#1c18ce" d="M226 29h6l1 3 2 1-3.625-.687c-4.246-.56-6.71.397-10.375 2.687v-4h5z"/><path fill="#1612ca" d="M270 22c6.407-.513 9.987-.136 15 4 1 1 1 1 1.063 3.563L286 32l-.687-1.812c-1.755-2.924-3.181-3.826-6.313-5.188-2.722-.237-5.258-.14-8 0z"/><path fill="#1e1bc4" d="M231 56q3.51.43 7 1c-2.506 2.62-3.853 3.957-7.602 4.098l-3.023-.035-3.04-.028L222 61v-1h10v-2l-2-1z"/><path fill="#201cca" d="M81 35h2c-1.764 4.972-4.394 9.434-7 14-1.255-3.766-.37-5.372 1-9h2v-3h2z"/><path fill="#1c1ac6" d="M138 29h6v2l-3.25 1.188c-3.641 1.536-5.52 3.51-7.75 6.812.523-2.763 1.109-5.326 2-8h3z"/><path fill="#110cde" d="M211 23c.981 3.053.981 4.947 0 8l-2-1v-4h-7l-1-2c3.473-1.158 6.36-1.069 10-1"/><path fill="#1c19ce" d="M140 22q2.188-.04 4.375-.062l2.46-.036C149 22 149 22 151 23v2h-12z"/><path fill="#1916e1" d="M336 26h4c1.813 2.375 1.813 2.375 3 5l-1 2-7-4z"/><path fill="#1b1bc7" d="M342 47h4l2 6-4-3-4 5c.875-5.75.875-5.75 2-8"/><path fill="#2219c3" d="M71 12c5.394-.274 8.52-.36 13 3l-1 2-3.125-1.5c-3.4-1.475-6.145-1.773-9.875-1.5z"/><path fill="#1917e1" d="M270.25 23.875 272 25c-3.188 2.125-5.265 2.502-9 3 1-3 1-3 2.813-4.312C268 23 268 23 270.25 23.875"/><path fill="#1914c9" d="M124 23h8v3l-2.375.375c-2.766.416-2.766.416-4.625 2.625v-3h-2z"/><path fill="#1c17d6" d="m221 23 1 2-1.437 1.375C218.91 27.933 218.91 27.933 218 30h-4c1.453-3.83 3.429-5.12 7-7"/><path fill="#1a18c0" d="m116 8 4 3-1 7h-1c-1.316-3.62-2-6.096-2-10"/><path fill="#0e12b3" d="M328 48v4h-2v-3h-7c2.2-4.4 5.38-2.663 9-1"/><path fill="#1b19c3" d="M302 31h5l-4 5 4 2h-5c-.934-3.01-1.044-3.867 0-7"/><path fill="#1c19ca" d="m360 56 3 1v3h-12v-1l9-1z"/><path fill="#1e18ce" d="M144 31h6l1 8-1.812-2.312C147.53 34.652 145.897 32.802 144 31"/><path fill="#1f1ddd" d="m202 26-1 2h-3l-1 3-2-1 1-4c3.75-1.125 3.75-1.125 6 0"/><path fill="#1e19d3" d="M67 57h3c-1.074 2.915-1.778 4.778-4 7-1-3-1-3-.062-5.187z"/></svg>