<svg xmlns="http://www.w3.org/2000/svg" width="778" height="908"><path fill="#5170ff" d="m608.666 26.853 3.5-.022 3.83-.008 4.04-.02c4.42-.02 8.84-.031 13.26-.041l4.573-.013q10.741-.029 21.484-.041 12.382-.015 24.766-.077 9.582-.044 19.164-.048c3.813-.002 7.624-.011 11.436-.036q5.383-.034 10.766-.018c1.935.001 3.871-.018 5.806-.038 7.05.042 11.74.657 17.709 4.509 4.685 5.045 5.608 8.625 5.52 15.418-1.048 7.225-4.947 13.328-8.52 19.582l-1.331 2.363c-2.44 4.33-4.908 8.643-7.396 12.946-3.482 6.031-6.88 12.109-10.273 18.191a2557 2557 0 0 1-14.46 25.547A2186 2186 0 0 0 701 145.5a2701 2701 0 0 1-14.533 25.692c-5.315 9.278-10.57 18.589-15.826 27.9q-4.068 7.205-8.141 14.408l-3.25 5.75-6.5 11.5-4.882 8.636q-4.01 7.092-8.013 14.188a5390 5390 0 0 1-16.771 29.517 3779 3779 0 0 0-19.717 34.89c-4.886 8.744-9.823 17.46-14.758 26.176a20899 20899 0 0 0-9.74 17.23q-4.01 7.091-8.014 14.187a5390 5390 0 0 1-16.771 29.517 3779 3779 0 0 0-19.717 34.89c-4.886 8.744-9.823 17.46-14.758 26.176q-3.243 5.73-6.482 11.464l-4.873 8.621-6.54 11.578-1.643 2.911a3537 3537 0 0 0-3.236 5.745 694 694 0 0 1-8.355 14.461l-1.706 2.896a464 464 0 0 1-3.257 5.431l-1.447 2.463-1.288 2.143c-1.348 3.673-.174 6.279 1.41 9.72l1.511 2.777c.561 1.038 1.123 2.076 1.7 3.146l1.847 3.362 1.913 3.519c4.5 8.263 9.13 16.453 13.792 24.626 4.921 8.667 9.604 17.453 14.274 26.257 4.296 8.097 8.633 16.166 13.115 24.162 3.446 6.154 6.805 12.354 10.156 18.561 3.793 7.023 7.607 14.032 11.5 21 4.469 8 8.83 16.055 13.184 24.117 3.234 5.983 6.5 11.946 9.816 17.883 4.469 8 8.83 16.055 13.184 24.117 3.234 5.983 6.5 11.946 9.816 17.883 4.469 8 8.83 16.055 13.184 24.117 3.234 5.983 6.5 11.946 9.816 17.883 4.464 7.99 8.821 16.037 13.168 24.09 2.964 5.484 5.953 10.95 8.999 16.388a1508 1508 0 0 1 4.777 8.622c.985 1.772 1.994 3.53 3.005 5.287 3.625 6.599 5.42 12.064 4.051 19.613-1.372 4.318-3.684 7.066-7.562 9.375-4.255 2.011-7.169 2.751-11.819 2.765l-3.385.018-3.717.003-3.913.015q-5.32.019-10.637.024-3.327.004-6.655.012-10.421.02-20.842.027-12.008.007-24.014.05-9.293.034-18.587.034-5.543 0-11.087.025c-4.131.02-8.262.015-12.394.008l-3.673.028c-9.697-.047-17.869-1.362-25.715-7.384l-2.437-1.625c-7.224-6.695-11.675-15.943-16.188-24.563-4.47-8.423-9.013-16.786-13.75-25.062-5.407-9.47-10.555-19.063-15.657-28.7-4.329-8.17-8.744-16.278-13.343-24.3-5.845-10.202-11.33-20.579-16.8-30.985-5.147-9.786-10.42-19.474-15.923-29.066-5.034-8.822-9.763-17.799-14.5-26.783a949 949 0 0 0-15.8-28.748c-4.231-7.423-8.182-14.97-12.095-22.565-3.418-6.602-7-13.09-10.694-19.54-5.686-9.932-11.066-20.007-16.402-30.129-5.271-9.99-10.672-19.885-16.302-29.68Q309.037 550.638 307 547l-1.275-2.219-1.143-2.094-1.005-1.8c-1.067-3.487.092-6.194 1.615-9.385l1.511-2.65 1.702-3.01 1.845-3.217 1.906-3.36q1.96-3.454 3.927-6.904c2.309-4.048 4.6-8.106 6.888-12.166 3.205-5.68 6.42-11.354 9.633-17.029l4.834-8.541 1.615-2.855a5187 5187 0 0 0 12.01-21.395 2661 2661 0 0 1 14.4-25.427c4.471-7.807 8.867-15.657 13.256-23.51 4.438-7.94 8.905-15.862 13.388-23.776 2.79-4.93 5.569-9.866 8.327-14.814 5.777-10.365 11.61-20.684 17.629-30.91 5.261-8.949 10.278-18.005 15.186-27.151 3.94-7.332 8.012-14.577 12.166-21.79 3.878-6.739 7.677-13.518 11.46-20.31a1217 1217 0 0 1 14.188-24.75c5.261-8.948 10.278-18.004 15.186-27.15 3.94-7.332 8.013-14.575 12.164-21.788 3.89-6.764 7.719-13.562 11.525-20.374 7.178-12.845 14.417-25.654 21.666-38.459l4.834-8.541 1.615-2.855a5202 5202 0 0 0 12.01-21.395c4.8-8.585 9.626-17.155 14.532-25.68a771 771 0 0 0 7.503-13.316c14.72-26.647 14.72-26.647 28.676-30.922 2.674-.549 5.16-.593 7.892-.604"/><path fill="#37b6ff" d="m90.557 195.846 3.504-.026 3.849-.013 4.051-.025c4.439-.026 8.878-.041 13.316-.055l4.594-.017q9.561-.033 19.124-.051 13.672-.023 27.346-.107 9.628-.056 19.256-.063c3.828-.004 7.656-.016 11.484-.048q5.413-.044 10.827-.025c1.937 0 3.874-.024 5.811-.05 9.584.068 17.561 2.21 25.388 7.888 5.79 6.092 10.074 12.372 14.08 19.746l2.888 5.153q1.484 2.656 2.956 5.317c3.143 5.658 6.409 11.245 9.656 16.843a5495 5495 0 0 1 14.755 25.716 5378 5378 0 0 0 13.99 24.314q5.845 10.125 11.63 20.282c5.474 9.602 11.035 19.15 16.614 28.691l1.62 2.803a209 209 0 0 0 3.742 6.072l1.993 3.184 1.85 2.871C336 367 336 367 335.396 369.881c-1.213 2.565-2.626 4.902-4.196 7.263-1.84 2.845-3.46 5.807-5.116 8.762a822 822 0 0 1-4.615 8.078 5893 5893 0 0 0-12.368 21.557 3209 3209 0 0 0-16.097 28.523C287.405 454.083 281.709 464.044 276 474a19553 19553 0 0 0-8.904 15.547 2571 2571 0 0 0-14.221 25.203c-5.071 9.1-10.278 18.11-15.555 27.09-4.386 7.493-8.625 15.06-12.82 22.66-6.966 12.62-14.155 25.098-21.5 37.5l-1.624 2.752-1.583 2.666-1.402 2.364c-5.411 8.627-12.63 14.348-22.723 16.78-2.79.458-5.4.57-8.227.578l-3.351.018-3.648.003-3.865.015q-5.237.019-10.475.024l-6.553.012q-10.263.02-20.525.027a7612 7612 0 0 0-23.65.05q-9.157.034-18.312.034-5.462 0-10.923.025c-4.065.02-8.129.015-12.193.008l-3.63.028c-7.856-.039-13.986-.56-20.191-5.821-3.841-4.633-4.829-8.307-4.672-14.29C26.631 600.22 30.543 594.161 34 588l3.156-5.742c6.336-11.466 12.887-22.801 19.522-34.096 5.048-8.62 9.89-17.349 14.716-26.095 4.654-8.412 9.462-16.723 14.336-25.008 4.373-7.458 8.594-14.99 12.77-22.559 4.726-8.566 9.54-17.068 14.5-25.5 5.663-9.628 11.125-19.356 16.529-29.131 3.359-6.075 6.735-12.137 10.182-18.162q1.46-2.553 2.902-5.115a238 238 0 0 1 8.008-13.17l1.775-2.813a144 144 0 0 1 3.476-5.245c1.57-2.529 2.589-4.432 3.128-7.364-1.284-4.147-3.574-7.431-6-11a287 287 0 0 1-2.867-5.156c-6.526-11.62-13.225-23.125-20.044-34.576-5.27-8.858-10.444-17.769-15.582-26.704-5.87-10.204-11.798-20.372-17.738-30.535a8993 8993 0 0 1-7.435-12.755l-3.541-6.083a955 955 0 0 0-9.575-16.09C73.258 219.997 72.11 214.869 73 209c1.78-5.292 4.23-8.942 9-12 3.113-1.038 5.291-1.136 8.557-1.154"/></svg>