<svg xmlns="http://www.w3.org/2000/svg" width="1328" height="395"><path fill="#5170ff" d="m242.195 37.504 3.59-.005q3.75.004 7.499.034c3.834.03 7.667.021 11.501.008q3.643.01 7.285.025l3.485-.008 3.227.038 2.84.016c2.817.46 3.722 1.095 5.378 3.388.512 4.404-.225 7.157-2.352 10.992l-1.558 2.847-1.715 3.036-1.774 3.206c-4.623 8.307-9.408 16.52-14.23 24.712-4.364 7.425-8.583 14.92-12.746 22.457a1972 1972 0 0 1-15.687 27.875A2550 2550 0 0 0 222 162.5a2525 2525 0 0 1-14.213 25.125 2788 2788 0 0 0-3.068 5.377c-2.968 5.21-5.95 10.407-9.024 15.557l-1.464 2.5q-1.308 2.235-2.666 4.439c-1.727 2.986-2.653 4.88-2.163 8.346 2.286 4.515 4.743 8.905 7.286 13.281A941 941 0 0 1 211.5 264a1099 1099 0 0 0 15.929 28.895 572 572 0 0 1 11.023 20.37c1.969 3.798 3.99 7.539 6.165 11.223l1.277 2.178a228 228 0 0 0 2.416 3.998c2.513 4.263 3.344 7.412 2.69 12.336-1.642 2.28-2.538 2.923-5.332 3.388l-2.779.016c-1.562.02-1.562.02-3.156.038l-3.409-.008-3.509.015q-3.678.01-7.356-.003c-3.747-.008-7.492.02-11.238.052q-3.573.003-7.147-.002l-3.39.034c-6.19-.055-10.025-.296-14.684-4.53-1.556-2.26-2.816-4.335-4.062-6.75l-1.124-2.083a676 676 0 0 1-2.464-4.621 862 862 0 0 0-4.397-8.163 4420 4420 0 0 1-6.629-12.235 4601 4601 0 0 0-10.806-19.86q-3.871-7.084-7.702-14.19c-6.015-11.16-12.108-22.264-18.415-33.262A684 684 0 0 1 129 233l-1.52-2.708-1.418-2.644-1.277-2.346c-1.251-3.67-.324-6.168 1.3-9.584l1.364-2.359 1.55-2.705 1.689-2.904 3.57-6.227 1.872-3.254c3.018-5.276 5.973-10.586 8.933-15.894a2634 2634 0 0 1 14.4-25.427c4.47-7.806 8.865-15.654 13.254-23.506 6.586-11.783 13.237-23.53 19.887-35.276l4.833-8.541 1.605-2.833q4.349-7.69 8.642-15.41l1.867-3.353q1.763-3.17 3.517-6.343c2.753-4.946 5.574-9.845 8.534-14.67l1.611-2.632c5.43-7.245 10.41-6.964 18.982-6.88"/><path fill="#37b6ff" d="m51.652 97.839 2.852-.03 3.078-.012 3.173-.017q3.324-.015 6.65-.02c3.384-.01 6.767-.041 10.152-.073q3.23-.009 6.463-.015l3.059-.038c6.825.022 11.365.802 16.366 5.82 3.664 4.75 6.487 10.084 9.43 15.296l2.947 5.184q1.02 1.79 2.037 3.583a697 697 0 0 0 7.493 12.8q1.567 2.643 3.132 5.289a691 691 0 0 0 3.031 5.028l1.829 3.104 1.63 2.72c1.251 3.1 1.077 4.399.026 7.542-1.177 2.482-1.177 2.482-2.668 5.113l-1.685 2.994c-.606 1.058-1.21 2.116-1.835 3.205l-1.902 3.362c-4.781 8.422-9.663 16.784-14.571 25.133-5.193 8.862-10.177 17.834-15.102 26.847-2.862 5.207-5.78 10.374-8.866 15.451l-1.6 2.642c-2.551 3.246-5.2 5.014-9.32 5.64l-2.729.017c-1.541.02-1.541.02-3.114.038l-3.33-.008-3.448.015q-3.602.01-7.204-.003c-3.679-.008-7.356.02-11.034.052q-3.501.003-7.002-.002l-3.337.034-3.105-.028h-2.727c-3.21-.665-4.424-1.952-6.421-4.502-.385-7.18 4.099-13.17 7.562-19.188q1.015-1.79 2.028-3.583c1.77-3.127 3.553-6.247 5.34-9.364q2.069-3.611 4.13-7.227a7818 7818 0 0 1 6.993-12.24A4436 4436 0 0 0 63.937 174l1.811-3.184 1.654-2.941 1.453-2.57c1.537-3.026 1.537-3.026 2.145-6.305-1.137-2.706-1.137-2.706-2.945-5.523l-1.998-3.314-1.079-1.749a579 579 0 0 1-3.295-5.423 1948 1948 0 0 0-8.705-14.283q-1.86-3.033-3.706-6.076a448 448 0 0 0-3.372-5.475c-3.126-5.164-4.771-9.078-4.9-15.157 2.529-3.92 6.29-4.125 10.652-4.161"/><path fill="#181818" d="M962 132h29c5.09 6.999 9.94 13.874 14.5 21.188 7.612 12.087 15.543 23.95 23.5 35.812l8 12 1-69h29v117h-30c-10.214-12.16-10.214-12.16-13.254-18.266-4.5-8.66-9.847-16.693-15.273-24.796-5.54-8.28-10.998-16.615-16.473-24.938l-1 68h-29zm-501 0h29c5.09 6.999 9.94 13.874 14.5 21.188 7.612 12.087 15.543 23.95 23.5 35.812l8 12 1-69h29v117h-30c-10.214-12.16-10.214-12.16-13.254-18.266-4.5-8.66-9.847-16.693-15.273-24.796-5.54-8.28-10.998-16.615-16.473-24.938l-1 68h-29zm247 0c68.87 0 68.87 0 82.434 12.273 7.17 7.905 9.042 17.355 8.808 27.711-.725 9.035-4.204 16.268-10.242 23.016-4.654 3.918-9.197 6.202-15 8 7.194 12.843 14.475 25.623 22.036 38.254l1.577 2.644 1.4 2.334C800 248 800 248 800 249h-34l-4.187-8.062c-4.686-8.972-9.635-17.781-14.697-26.546l-1.624-2.833c-.48-.833-.962-1.665-1.457-2.522C743 207 743 207 743 205h-6v44h-29zm29 24v29c15.335 1.052 15.335 1.052 29-4.437 3.505-4.492 3.677-9.063 3-14.563-2.216-4.431-4.48-6.956-9-9-4.987-1.09-9.803-1.118-14.875-1.062zm125-24h34a3038 3038 0 0 1 17.625 47.938c4.588 12.796 9.186 25.588 13.875 38.347l1.068 2.907q2.499 6.8 5.013 13.593l1.77 4.809.822 2.205C938 246.773 938 246.773 938 249h-31c-2.507-6.267-4.866-12.597-7-19l-43-1-2 9-4 11h-31c3.375-11.251 3.375-11.251 4.923-15.578l1.057-2.97 1.125-3.132 1.203-3.366q1.936-5.415 3.88-10.829l2.01-5.616q8.88-24.804 17.865-49.571l1.014-2.801q1.413-3.9 2.833-7.797l.821-2.269 1.435-3.936c1.201-3.076 2.533-6.1 3.834-9.135m16 35q-2.78 8.09-5.554 16.18l-1.892 5.51q-1.357 3.949-2.71 7.9l-.862 2.503c-1.373 3.382-1.373 3.382-1.982 6.907h27c-1.687-7.591-3.78-14.704-6.313-22.014a915 915 0 0 1-2.054-6.029l-1.32-3.832-1.2-3.492c-.832-2.763-.832-2.763-3.113-3.633m316-35c23.829-4.502 23.829-4.502 34 0 10.32 7.74 16.465 21.67 22 33 2.954-3.526 5.336-7.105 7.602-11.105l.977-1.713q1.528-2.682 3.046-5.37 2.015-3.555 4.04-7.105l1.794-3.173C1269 134 1269 134 1271 132a87 87 0 0 1 7.414-.195l2.211.008c2.334.011 4.667.037 7 .062q2.37.016 4.742.027 5.817.035 11.633.098c-3.006 6.32-6.51 12.13-10.312 18l-3.727 5.813-1.954 3.046A2215 2215 0 0 0 1277.812 175l-1.925 3.055-1.805 2.882-1.587 2.528c-1.641 2.783-3.08 5.631-4.495 8.535l1.047 1.552 14.96 22.171q4.81 7.13 9.614 14.263 3.038 4.516 6.102 9.012l2.215 3.268 1.84 2.696C1305 247 1305 247 1305 249c-4.695.274-9.386.472-14.087.604q-2.393.082-4.783.226c-13.174.77-13.174.77-17.824-3.035-2.084-2.835-3.715-5.66-5.306-8.795a256 256 0 0 0-2.828-4.363 694 694 0 0 1-2.422-3.95l-2.453-3.988-1.158-1.881c-1.657-2.645-3.391-5.232-5.139-7.818-2.737 2.458-4.391 5.15-6.215 8.332l-1.83 3.17-1.892 3.31a4533 4533 0 0 1-3.715 6.458l-1.656 2.893L1232 243l-1.734 3.322c-2.266 2.678-2.266 2.678-5.75 3.36q-2.063-.004-4.125-.096l-2.203-.026a374 374 0 0 1-6.938-.185q-2.357-.045-4.715-.082c-3.846-.066-7.69-.17-11.535-.293 1.191-3.146 2.474-5.972 4.293-8.8l1.388-2.177 1.506-2.335q1.623-2.54 3.243-5.083l1.745-2.732c3.867-6.087 7.67-12.215 11.484-18.335A2271 2271 0 0 1 1231 190a679 679 0 0 0-13.992-21.34q-1.942-2.857-3.883-5.717-3.018-4.44-6.044-8.874-2.949-4.325-5.886-8.659l-1.84-2.683-1.69-2.5-1.49-2.188c-1.169-2.028-1.736-3.751-2.175-6.039m-95 0h72v24h-43v22h38v23h-38v25h43v23h-72zm-508 0h91v24h-31v93h-29v-93h-31zm-191 0h29v117h-29z"/><path fill="#131313" d="m338 21 3 1v340h-4c-1.727-1.727-1.127-4.041-1.129-6.396l-.01-3.57.005-3.973-.007-4.18q-.008-5.772-.004-11.543-.002-6.214-.01-12.428-.012-12.183-.012-24.368 0-9.898-.006-19.797a109591 109591 0 0 1-.012-56.064v-6.116q-.002-24.557-.023-49.115-.023-25.185-.02-50.37.001-14.15-.014-28.303-.014-12.047-.005-24.095.007-6.152-.005-12.304-.011-5.625.002-11.25c.003-2.009-.005-4.018-.013-6.028l.014-3.578v-3.107C336 23 336 23 338 21"/></svg>