<svg xmlns="http://www.w3.org/2000/svg" width="2016" height="295" fill="none"><path fill="#3f52f5" d="M101 248H1V148L101 48h100v64l64-64h100v100L265 248H165v-64zm1877.08-20.693c-13.94 0-24.92-4-32.92-12-7.79-8-11.69-18.871-11.69-32.615V31h28.31v149.846c0 6.769 1.84 12.205 5.54 16.308 3.89 3.897 9.23 5.846 16 5.846h31.69v24.307zm-71.69-132.615V70.385h109.23v24.307zm-32.65 132.615q-24.3 0-43.38-10.462c-12.72-6.974-22.77-16.307-30.16-28q-11.07-17.845-11.07-40 0-22.154 11.07-39.692c7.39-11.897 17.44-21.333 30.16-28.307q19.08-10.462 43.38-10.462h18.46v24.308h-19.38c-10.46 0-19.9 2.461-28.31 7.384-8.2 4.718-14.77 11.18-19.69 19.385q-7.08 12.307-7.08 27.384t7.08 27.385c4.92 8.205 11.49 14.769 19.69 19.692 8.41 4.718 17.85 7.077 28.31 7.077h19.38v24.308zm-171.78.001c-17.24 0-32.52-3.18-45.85-9.538-13.33-6.565-23.8-15.693-31.39-27.385q-11.07-17.846-11.07-41.538 0-23.385 9.54-41.847 9.54-18.768 26.46-29.538c11.28-7.18 24.41-10.77 39.38-10.77 16.21 0 29.64 3.488 40.31 10.462 10.87 6.975 18.97 16.41 24.31 28.308 5.33 11.692 8 24.82 8 39.385 0 2.256-.1 4.615-.31 7.076 0 2.462-.21 4.616-.62 6.462H1643.8q1.545 14.462 9.54 24.615 7.995 9.846 20.31 15.077 12.615 4.923 27.69 4.923h40.92v24.308zm-58.47-88.923h89.54q0-5.846-1.23-12.308a47.6 47.6 0 0 0-4.31-12.923 37.9 37.9 0 0 0-8.3-11.384c-3.29-3.487-7.49-6.257-12.62-8.308-4.92-2.051-10.77-3.077-17.54-3.077-7.18 0-13.54 1.436-19.07 4.308-5.34 2.666-9.95 6.359-13.85 11.077-3.9 4.513-6.87 9.641-8.92 15.384s-3.29 11.487-3.7 17.231m-88.18 88.922c-13.95 0-24.93-4-32.93-12-7.79-8-11.69-18.871-11.69-32.615V31H1539v149.846c0 6.769 1.85 12.205 5.54 16.308 3.9 3.897 9.23 5.846 16 5.846h31.69v24.307zm-71.7-132.615V70.385h109.24v24.307zM1389.02 231c-16 0-30.16-3.59-42.46-10.769-12.31-7.385-22.06-17.231-29.24-29.538-7.17-12.513-10.76-26.462-10.76-41.846 0-15.385 3.59-29.231 10.76-41.539 7.18-12.513 16.93-22.359 29.24-29.538 12.3-7.385 26.46-11.077 42.46-11.077s30.15 3.692 42.46 11.077c12.51 7.18 22.25 16.923 29.23 29.23q10.77 18.462 10.77 41.847 0 23.076-10.77 41.846c-6.98 12.307-16.72 22.153-29.23 29.538-12.31 7.179-26.46 10.769-42.46 10.769m0-24.307c10.87 0 20.3-2.565 28.3-7.693s14.26-12 18.77-20.615c4.52-8.821 6.77-18.667 6.77-29.538 0-10.872-2.25-20.616-6.77-29.231-4.51-8.821-10.77-15.795-18.77-20.923S1399.89 91 1389.02 91c-10.67 0-20.11 2.564-28.31 7.692-8 5.128-14.26 12.102-18.77 20.923-4.51 8.615-6.77 18.359-6.77 29.231s2.26 20.717 6.77 29.538c4.51 8.615 10.77 15.487 18.77 20.615 8.2 5.128 17.64 7.693 28.31 7.693m-176.93 20.615V114.999c0-13.948 3.89-24.82 11.69-32.615 8-8 18.97-12 32.92-12h32.31v24.308h-27.08c-6.77 0-12.1 1.948-16 5.846-3.69 3.897-5.54 9.333-5.54 16.307v110.462zM1095.88 66.693q17.85 0 32.61 5.846c9.85 3.692 18.36 9.23 25.54 16.615q10.77 11.077 16.62 26.77 6.15 15.384 6.15 34.769c0 16.205-3.38 30.359-10.15 42.461-6.57 12.103-15.59 21.436-27.08 28S1115.06 231 1100.49 231q-12 0-23.07-4c-7.18-2.666-13.64-6.359-19.39-11.077-5.54-4.923-10.05-10.461-13.54-16.615h-.61V295h-28.31V149.77c0-17.641 3.49-32.616 10.46-44.923 7.18-12.308 16.82-21.744 28.93-28.308q18.15-9.846 40.92-9.846m0 24.308c-9.44 0-18.15 2.358-26.15 7.076-7.8 4.718-14.06 11.385-18.77 20-4.52 8.616-6.77 18.77-6.77 30.462 0 11.897 2.25 22.256 6.77 31.077 4.71 8.615 10.97 15.282 18.77 20q12 7.077 26.46 7.077 14.76 0 26.46-7.385c7.79-4.923 13.95-11.692 18.46-20.308q7.08-12.923 7.08-30.153 0-17.846-7.08-30.77t-19.08-20c-7.79-4.718-16.51-7.076-26.15-7.076M897.732 231q-24 0-42.462-10.769-18.461-11.077-29.23-29.538-10.77-18.77-10.769-41.846 0-23.077 10.769-41.539 10.769-18.77 29.23-29.538 18.462-11.077 42.462-11.077t42.461 11.077q18.77 10.77 29.231 29.23 10.77 18.462 10.769 41.847 0 23.076-10.769 41.846-10.461 18.46-29.231 29.538Q921.733 231 897.732 231m0-24.307q16.308 0 28.308-7.693t18.769-20.615q6.77-13.231 6.769-29.538t-6.769-29.231q-6.77-13.231-18.769-20.923Q914.04 91 897.732 91q-16 0-28.308 7.692-12 7.692-18.769 20.923-6.77 12.923-6.769 29.231 0 16.307 6.769 29.538 6.77 12.923 18.769 20.615 12.308 7.693 28.308 7.693m-169.634 20.616q-25.847 0-45.846-9.538-20-9.847-31.385-27.385-11.076-17.846-11.076-41.538 0-23.385 9.538-41.847 9.538-18.768 26.461-29.538 16.924-10.77 39.385-10.77 24.308 0 40.308 10.462 16.307 10.462 24.307 28.308 8 17.538 8 39.385a85 85 0 0 1-.307 7.076q0 3.693-.616 6.462H669.944q1.539 14.462 9.539 24.615 8 9.846 20.307 15.077Q712.406 203 727.483 203h40.923v24.308zm-58.461-88.923h89.538q0-5.846-1.231-12.308a47.9 47.9 0 0 0-4.308-12.923 37.9 37.9 0 0 0-8.307-11.384q-4.923-5.231-12.616-8.308-7.385-3.077-17.538-3.077-10.768 0-19.077 4.308-8 4-13.846 11.077-5.846 6.77-8.923 15.384t-3.692 17.231M457 227.308v-90.769q0-20.923 9.231-36.615 9.539-15.693 26.154-24.308 16.615-8.923 37.846-8.923 21.538 0 37.846 8.923 16.615 8.615 25.846 24.308 9.538 15.691 9.538 36.615v90.769h-28.307v-90.461q0-14.154-6.462-24.308-6.153-10.461-16.615-16-10.154-5.538-21.846-5.538t-22.154 5.538q-10.154 5.538-16.616 16-6.153 10.154-6.153 24.308v90.461z"/></svg>