<svg xmlns="http://www.w3.org/2000/svg" width="600" height="90"><path fill="#166bbd" d="M8.27 26.492q-2.02-2.019-2.02-4.865t2.02-4.865 4.865-2.02T18 16.762l25.244 25.244L56.738 55.5V21.627q0-2.846 2.02-4.865t4.865-2.02q2.846 0 4.865 2.02t2.02 4.865v50.488q0 2.846-2.02 4.865T63.623 79t-4.865-2.02L33.514 51.736z"/><path fill="#4c5259" d="M75.098 21.627q0-2.846 2.019-4.865t4.865-2.02q2.846 0 4.866 2.02t2.019 4.865v50.488q0 2.846-2.019 4.865T81.982 79q-2.845 0-4.865-2.02t-2.019-4.865zm32.129 50.488q0 2.846-2.02 4.865T100.342 79q-2.846 0-4.865-2.02t-2.02-4.865V21.627q0-2.846 2.02-4.865t4.865-2.02h37.866q8.078 0 13.793 5.715t5.714 13.792q0 8.078-5.692 13.77-4.406 4.406-10.143 5.416l13.815 13.815q2.02 2.02 2.02 4.865t-2.02 4.865Q153.676 79 150.83 79t-4.865-2.02l-25.244-25.244q-2.02-2.019-2.02-4.865t2.02-4.865q2.019-2.02 4.865-2.02h12.622q2.387 0 4.062-1.675t1.675-4.062-1.675-4.062-4.062-1.675h-30.981zm61.962-43.603q-2.845 0-4.865-2.02t-2.019-4.865 2.019-4.865q2.02-2.02 4.865-2.02h50.489q2.845 0 4.865 2.02t2.019 4.865q0 2.846-2.019 4.865t-4.865 2.02h-18.36v43.603q0 2.846-2.019 4.865T194.434 79t-4.866-2.02q-2.019-2.019-2.019-4.865V28.512zm119.336 11.474q2.846 0 4.866 2.02t2.019 4.865-2.019 4.865-4.866 2.02h-25.244q-2.845 0-4.865-2.02t-2.019-4.865 2.019-4.865 4.865-2.02zm-43.603 32.129q0 2.846-2.02 4.865T238.037 79q-2.846 0-4.865-2.02t-2.02-4.865V46.871q0-13.31 9.41-22.72t22.719-9.409h25.244q2.846 0 4.866 2.02t2.019 4.865q0 2.846-2.019 4.865t-4.866 2.02h-25.244q-7.619 0-12.989 5.37t-5.37 12.989zM300 21.627q0-2.846 2.02-4.865t4.865-2.02 4.865 2.02 2.02 4.865v25.244q0 7.619 5.37 12.989t12.989 5.37 12.989-5.37 5.37-12.989V21.627q0-2.846 2.02-4.865t4.865-2.02q2.846 0 4.865 2.02t2.02 4.865v25.244q0 13.311-9.409 22.72T332.129 79t-22.72-9.409T300 46.871zm126.221-6.885q2.845 0 4.865 2.02t2.019 4.865-2.019 4.865-4.865 2.02h-37.866q-2.387 0-4.062 1.675t-1.676 4.062 1.676 4.062q1.675 1.675 4.062 1.675h25.244q8.078 0 13.792 5.715t5.714 13.792q0 8.078-5.714 13.793T413.599 79h-37.867q-2.845 0-4.865-2.02t-2.019-4.865 2.019-4.865q2.02-2.02 4.865-2.02h37.867q2.386 0 4.062-1.675 1.675-1.675 1.675-4.062t-1.675-4.062-4.062-1.675h-25.244q-8.079 0-13.793-5.714t-5.714-13.793q0-8.078 5.714-13.792t13.793-5.715zm11.474 6.885q0-2.846 2.02-4.865t4.865-2.02 4.865 2.02 2.02 4.865v50.488q0 2.846-2.02 4.865T444.58 79t-4.865-2.02q-2.02-2.019-2.02-4.865zm50.489-6.885q13.31 0 22.719 9.409t9.409 22.72-9.409 22.72T488.184 79t-22.72-9.409-9.409-22.72 9.409-22.72 22.72-9.409m0 13.77q-7.62 0-12.99 5.37t-5.37 12.989 5.37 12.989 12.99 5.37 12.989-5.37 5.37-12.989-5.37-12.989-12.989-5.37m50.488 43.603q0 2.846-2.02 4.865T531.787 79t-4.865-2.02q-2.02-2.019-2.02-4.865V21.627q0-2.846 2.02-4.865t4.865-2.02 4.865 2.02l25.244 25.244L575.391 55.5V21.627q0-2.846 2.019-4.865t4.865-2.02 4.866 2.02 2.019 4.865v50.488q0 2.846-2.019 4.865T582.275 79q-2.845 0-4.865-2.02l-25.244-25.244-13.494-13.494z"/></svg>