<?xml version="1.0" encoding="UTF-8"?>
<svg version="1.1" xmlns="http://www.w3.org/2000/svg" width="374" height="84">
<path d="M0 0 C0.8146875 0.00257812 1.629375 0.00515625 2.46875 0.0078125 C3.2834375 0.00523438 4.098125 0.00265625 4.9375 0 C6.96875 0.1328125 6.96875 0.1328125 7.96875 1.1328125 C8.04080511 2.81890216 8.05261068 4.50781909 8.03125 6.1953125 C8.02222656 7.11441406 8.01320312 8.03351562 8.00390625 8.98046875 C7.99230469 9.69074219 7.98070312 10.40101562 7.96875 11.1328125 C8.59523437 11.12121094 9.22171875 11.10960937 9.8671875 11.09765625 C10.68445313 11.08863281 11.50171875 11.07960938 12.34375 11.0703125 C13.15585938 11.05871094 13.96796875 11.04710937 14.8046875 11.03515625 C16.96875 11.1328125 16.96875 11.1328125 18.96875 12.1328125 C21.25925112 11.91984371 23.50612313 11.55435254 25.77734375 11.19140625 C27.96875 11.1328125 27.96875 11.1328125 30.96875 13.1328125 C32.98559563 12.51898992 34.98518517 11.84689584 36.96875 11.1328125 C39.84375 11.0078125 39.84375 11.0078125 41.96875 11.1328125 C42.65582555 13.62346138 42.96875 15.51167542 42.96875 18.1328125 C43.62875 18.1328125 44.28875 18.1328125 44.96875 18.1328125 C45.2471875 17.2665625 45.2471875 17.2665625 45.53125 16.3828125 C47.64207969 13.07890515 50.37410394 11.46972071 53.96875 10.1328125 C60.46664556 8.98679917 64.61241592 10.48594675 69.96875 14.1328125 C69.96875 13.4728125 69.96875 12.8128125 69.96875 12.1328125 C74.42375 11.6378125 74.42375 11.6378125 78.96875 11.1328125 C80.02936259 15.37883394 80.00410509 19.2579094 79.84765625 23.62109375 C79.81223976 24.6758918 79.81223976 24.6758918 79.77610779 25.7519989 C79.6999407 27.98333322 79.61571693 30.2142785 79.53125 32.4453125 C79.47798218 33.96417409 79.42524215 35.4830543 79.37304688 37.00195312 C79.2443901 40.71247459 79.10850943 44.42269074 78.96875 48.1328125 C76.32875 48.1328125 73.68875 48.1328125 70.96875 48.1328125 C70.63875 47.1428125 70.30875 46.1528125 69.96875 45.1328125 C69.205625 45.7928125 68.4425 46.4528125 67.65625 47.1328125 C63.12776318 50.15538922 58.20195212 49.77233944 52.96875 49.1328125 C47.3677502 47.19792166 44.51520696 44.06294148 41.78125 38.8828125 C39.79555057 32.16198366 39.58107924 26.7340199 41.96875 20.1328125 C40.52497465 20.50510677 39.08875903 20.90678118 37.65625 21.3203125 C36.85574219 21.54074219 36.05523437 21.76117188 35.23046875 21.98828125 C32.04917405 23.59815922 31.30637863 24.80589001 29.96875 28.1328125 C29.62212371 31.58098737 29.68586133 34.98441571 29.78125 38.4453125 C29.79478516 39.37666016 29.80832031 40.30800781 29.82226562 41.26757812 C29.8574758 43.55623962 29.91127866 45.84460179 29.96875 48.1328125 C26.66875 48.1328125 23.36875 48.1328125 19.96875 48.1328125 C19.63875 38.5628125 19.30875 28.9928125 18.96875 19.1328125 C18.47375 19.6278125 18.47375 19.6278125 17.96875 20.1328125 C16.28266034 20.20486761 14.59374341 20.21667318 12.90625 20.1953125 C11.98714844 20.18628906 11.06804687 20.17726563 10.12109375 20.16796875 C9.41082031 20.15636719 8.70054687 20.14476563 7.96875 20.1328125 C7.86087182 22.90468238 7.78151673 25.67236787 7.71875 28.4453125 C7.68523437 29.23099609 7.65171875 30.01667969 7.6171875 30.82617188 C7.43818942 35.4050543 7.43818942 35.4050543 9.75 39.1640625 C12.87224175 40.52729482 15.60769682 40.32671941 18.96875 40.1328125 C19.01116723 42.46576025 19.00967937 44.79983817 18.96875 47.1328125 C17.11584648 48.98571602 14.20250369 48.34939877 11.71875 48.3828125 C10.57921875 48.40859375 9.4396875 48.434375 8.265625 48.4609375 C4.59703667 48.09581733 2.815871 47.45493247 -0.03125 45.1328125 C-2.68163328 40.7071725 -2.69800458 35.35725602 -3.15625 30.3203125 C-3.24261719 29.43666016 -3.32898438 28.55300781 -3.41796875 27.64257812 C-3.62903444 25.47329192 -3.83104426 23.30312792 -4.03125 21.1328125 C-6.01125 20.8028125 -7.99125 20.4728125 -10.03125 20.1328125 C-9.85722656 20.88820313 -9.68320313 21.64359375 -9.50390625 22.421875 C-8.85722412 27.49913143 -9.18254879 32.40882545 -9.46875 37.5078125 C-9.52095703 38.53003906 -9.57316406 39.55226562 -9.62695312 40.60546875 C-9.75594487 43.11494446 -9.89087858 45.6239519 -10.03125 48.1328125 C-11.51031892 48.15970466 -12.98952483 48.17915871 -14.46875 48.1953125 C-15.70431641 48.21271484 -15.70431641 48.21271484 -16.96484375 48.23046875 C-19.03125 48.1328125 -19.03125 48.1328125 -20.03125 47.1328125 C-20.0575145 45.55469119 -20.01919058 43.97539407 -19.953125 42.3984375 C-19.92734375 41.43164062 -19.9015625 40.46484375 -19.875 39.46875 C-19.81295791 37.42653134 -19.7350661 35.38472701 -19.640625 33.34375 C-19.47733921 27.22080795 -19.47733921 27.22080795 -22.3515625 21.9296875 C-24.92610297 19.84274303 -24.92610297 19.84274303 -28.15625 20.1328125 C-31.01561501 21.12737424 -32.26908385 21.72142724 -34.03125 24.1328125 C-34.98293683 26.98787299 -35.2213446 29.04218532 -35.34765625 32.01953125 C-35.38955078 32.95732422 -35.43144531 33.89511719 -35.47460938 34.86132812 C-35.51392578 35.83779297 -35.55324219 36.81425781 -35.59375 37.8203125 C-35.63693359 38.80837891 -35.68011719 39.79644531 -35.72460938 40.81445312 C-35.83066542 43.25374222 -35.93145974 45.69325904 -36.03125 48.1328125 C-39.00125 48.1328125 -41.97125 48.1328125 -45.03125 48.1328125 C-46.0385526 44.10360209 -46.14533767 40.88290515 -46.12890625 36.7421875 C-46.1274913 36.03757385 -46.12607635 35.33296021 -46.12461853 34.60699463 C-46.11903933 32.36555666 -46.10649073 30.12422007 -46.09375 27.8828125 C-46.08873231 26.35937645 -46.08416987 24.83593882 -46.08007812 23.3125 C-46.06907674 19.58590478 -46.05182646 15.85936854 -46.03125 12.1328125 C-42.77656799 11.0479185 -40.4416476 10.91966265 -37.03125 11.1328125 C-36.04125 11.7928125 -35.05125 12.4528125 -34.03125 13.1328125 C-33.391875 12.6378125 -32.7525 12.1428125 -32.09375 11.6328125 C-27.94287642 9.59973157 -24.57348352 9.30558454 -20.03125 10.1328125 C-17.08428503 11.45016439 -14.43768154 12.96899123 -12.03125 15.1328125 C-12.03125 15.7928125 -12.03125 16.4528125 -12.03125 17.1328125 C-11.37125 17.1328125 -10.71125 17.1328125 -10.03125 17.1328125 C-10.03125 15.4828125 -10.03125 13.8328125 -10.03125 12.1328125 C-7.72125 12.1328125 -5.41125 12.1328125 -3.03125 12.1328125 C-3.04285156 11.35035156 -3.05445313 10.56789063 -3.06640625 9.76171875 C-3.07542969 8.74980469 -3.08445313 7.73789062 -3.09375 6.6953125 C-3.10535156 5.68597656 -3.11695313 4.67664063 -3.12890625 3.63671875 C-2.99470535 0.19580766 -2.99470535 0.19580766 0 0 Z M51.96875 23.1328125 C49.61632653 26.34066268 49.5003291 29.22930502 49.96875 33.1328125 C51.74403226 36.55187463 53.07223435 38.60409814 56.40625 40.5703125 C59.47112866 41.24309074 61.02089962 41.23825639 63.96875 40.1328125 C66.74585814 37.86063312 68.58116841 36.11468586 69.90625 32.7578125 C69.99362456 29.08808114 69.38826189 26.52729746 67.96875 23.1328125 C61.87151082 17.96341407 58.14237331 18.30128121 51.96875 23.1328125 Z " fill="#FFFFFF" transform="translate(169.03125,11.8671875)"/>
<path d="M0 0 C3.7528186 0.81737526 6.43543828 2.69152965 9.0625 5.44921875 C11.36834497 9.86875494 11.47793952 13.73940091 10.0625 18.44921875 C8.00729925 22.69408691 5.60674443 26.71584227 3.1875 30.76171875 C2.50466321 31.91828353 1.82253996 33.07526987 1.14111328 34.23266602 C-0.22625739 36.54973799 -1.60118109 38.86206957 -2.98242188 41.17089844 C-4.74140891 44.12040867 -6.47632143 47.08236485 -8.203125 50.05078125 C-9.15494725 51.66352999 -10.10797972 53.27556539 -11.0625 54.88671875 C-11.48644043 55.61866455 -11.91038086 56.35061035 -12.34716797 57.10473633 C-14.70793369 61.01908381 -16.60210615 63.55907135 -20.9375 65.44921875 C-26.14385305 66.01718454 -29.5546637 65.33790631 -33.9375 62.44921875 C-36.9947866 58.98429393 -37.60535283 55.57093478 -37.39428711 51.06982422 C-36.86574917 48.03758145 -35.82519426 46.004241 -34.3046875 43.33203125 C-33.76046143 42.3692627 -33.21623535 41.40649414 -32.65551758 40.41455078 C-31.80509888 38.94671143 -31.80509888 38.94671143 -30.9375 37.44921875 C-30.40987061 36.53382324 -29.88224121 35.61842773 -29.33862305 34.67529297 C-25.5940532 28.23377904 -21.7662574 21.8409456 -17.9375 15.44921875 C-17.34557861 14.45486816 -17.34557861 14.45486816 -16.74169922 13.44042969 C-15.81792201 11.89509054 -14.87865984 10.35903326 -13.9375 8.82421875 C-13.463125 8.04820313 -12.98875 7.2721875 -12.5 6.47265625 C-9.02773647 1.97607497 -5.84946583 -0.32127748 0 0 Z " fill="#FFFFFF" transform="translate(76.9375,11.55078125)"/>
<path d="M0 0 C0.639375 0.33 1.27875 0.66 1.9375 1 C1.9375 1.66 1.9375 2.32 1.9375 3 C2.535625 3.2475 3.13375 3.495 3.75 3.75 C7.25736313 5.7542075 8.56785055 8.16828874 10.1875 11.8125 C11.07891363 15.60100795 10.87885844 18.23456625 9.9375 22 C8.9475 22.66 7.9575 23.32 6.9375 24 C7.9275 24.33 8.9175 24.66 9.9375 25 C9.9375 27.625 9.9375 27.625 8.9375 31 C2.80271543 36.98347822 -2.63466656 38.36871291 -11.05078125 38.27734375 C-16.71302478 37.75591795 -20.17601592 35.19837033 -23.9375 31 C-27.64713032 25.76287485 -27.71435628 20.27293577 -27.0625 14 C-25.21349353 7.3106008 -20.90729152 3.46846971 -15.0625 0 C-10.06597926 -1.66550691 -5.00477317 -1.63421165 0 0 Z M-16.0625 13 C-15.7325 13.33 -15.4025 13.66 -15.0625 14 C-12.70555046 13.90968426 -10.35096418 13.75311872 -8 13.5625 C-6.06447266 13.40974609 -6.06447266 13.40974609 -4.08984375 13.25390625 C-3.09082031 13.17011719 -2.09179688 13.08632813 -1.0625 13 C-1.73784517 9.96154763 -1.73784517 9.96154763 -3.8125 8.8125 C-9.77736618 6.65852055 -11.9904791 8.34626183 -16.0625 13 Z M-16.0625 22 C-15.79215366 24.43717258 -15.79215366 24.43717258 -15.0625 27 C-11.39629707 29.44413529 -8.32342284 29.84555278 -4.0625 29 C-1.03840636 26.72872666 -1.03840636 26.72872666 0.9375 24 C0.9375 23.67 0.9375 23.34 0.9375 23 C-2.89974172 22.09586327 -6.43752274 21.89423102 -10.375 21.9375 C-11.97794922 21.95103516 -11.97794922 21.95103516 -13.61328125 21.96484375 C-14.42152344 21.97644531 -15.22976563 21.98804687 -16.0625 22 Z " fill="#FFFFFF" transform="translate(318.0625,23)"/>
<path d="M0 0 C5.4393432 2.56572792 7.474523 5.76197363 10 11 C11.23782626 15.09403697 11.1468656 19.13307363 11.125 23.375 C11.13080078 24.48875 11.13080078 24.48875 11.13671875 25.625 C11.12923668 29.8598522 10.83418021 33.82909897 10 38 C7.03 38 4.06 38 1 38 C0.9498877 37.32420898 0.89977539 36.64841797 0.84814453 35.95214844 C0.61574397 32.88403941 0.37051349 29.81708639 0.125 26.75 C0.04636719 25.68652344 -0.03226562 24.62304688 -0.11328125 23.52734375 C-0.19707031 22.50253906 -0.28085937 21.47773437 -0.3671875 20.421875 C-0.44050293 19.47924805 -0.51381836 18.53662109 -0.58935547 17.56542969 C-1.00759236 14.95256806 -1.53745172 13.20102554 -3 11 C-6.13005815 10.04737361 -8.12350845 9.70783615 -11.25 10.75 C-13.29017165 12.05104872 -13.29017165 12.05104872 -15 15 C-15.36696181 17.51502177 -15.36696181 17.51502177 -15.4140625 20.32421875 C-15.47207031 21.86625977 -15.47207031 21.86625977 -15.53125 23.43945312 C-15.5621875 24.51130859 -15.593125 25.58316406 -15.625 26.6875 C-15.68300781 28.31268555 -15.68300781 28.31268555 -15.7421875 29.97070312 C-15.83650116 32.64685334 -15.91934126 35.32340342 -16 38 C-19.3 38 -22.6 38 -26 38 C-26 26.12 -26 14.24 -26 2 C-22.66507467 1.16626867 -20.36512103 0.73433255 -17 1 C-16.34 1.66 -15.68 2.32 -15 3 C-14.195625 2.505 -13.39125 2.01 -12.5625 1.5 C-8.16568152 -0.35129199 -4.70345908 -0.74309587 0 0 Z " fill="#FFFFFF" transform="translate(279,22)"/>
<path d="M0 0 C3.54113396 -0.70537678 6.49192104 -0.95212012 10 0 C13.01699277 3.32452455 15.03033842 6.98241213 17 11 C17.30550781 10.28972656 17.61101562 9.57945313 17.92578125 8.84765625 C19.406584 5.87353692 20.7707294 3.47368968 23 1 C26.71725281 -0.15749848 30.13172704 -0.23402363 34 0 C34 3.80286295 32.77188575 5.22468614 30.6875 8.375 C28.38517086 11.87917391 26.13326281 15.38986293 24 19 C24.49371094 19.67546875 24.98742187 20.3509375 25.49609375 21.046875 C26.13675781 21.93890625 26.77742188 22.8309375 27.4375 23.75 C28.07558594 24.63171875 28.71367187 25.5134375 29.37109375 26.421875 C31 29 31 29 31.53515625 31.265625 C31.68855469 31.83796875 31.84195313 32.4103125 32 33 C32.99 33.33 33.98 33.66 35 34 C35 34.99 35 35.98 35 37 C30.8501683 37.60434442 27.11918207 37.89091724 23 37 C20.15028144 34.02501908 18.54516951 30.79515318 17 27 C13.99564993 30.61798832 13.99564993 30.61798832 11.9375 34.8125 C10 37 10 37 7.3671875 37.3125 C4.56139808 37.3125 1.7971147 37.21370146 -1 37 C0.88623931 31.236491 3.2013132 27.02259557 6.98828125 22.2734375 C8.28427268 19.95756712 8.28427268 19.95756712 7.3984375 17.1171875 C5.41861258 12.7040582 2.91007387 8.71282443 0.36328125 4.609375 C-0.31154297 3.31773438 -0.31154297 3.31773438 -1 2 C-0.67 1.34 -0.34 0.68 0 0 Z " fill="#FFFFFF" transform="translate(328,23)"/>
<path d="M0 0 C5.06715354 0.67155047 7.65690657 2.83140873 10.79296875 6.69921875 C12.74255726 11.35656908 12.46373199 14.96773432 10.66796875 19.63671875 C8.43270079 23.14928269 6.98676038 24.87741699 2.87109375 25.890625 C-2.31211309 26.7168073 -5.61943028 26.46803847 -10.08203125 23.38671875 C-13.43598679 20.15254733 -14.59789643 15.93079121 -15.08203125 11.38671875 C-13.46718052 1.69761435 -9.18477389 -0.32443172 0 0 Z " fill="#FFFFFF" transform="translate(29.08203125,11.61328125)"/>
<path d="M0 0 C0.721875 0.00257812 1.44375 0.00515625 2.1875 0.0078125 C2.909375 0.00523438 3.63125 0.00265625 4.375 0 C6.1875 0.1328125 6.1875 0.1328125 7.1875 1.1328125 C7.27605161 3.7990728 7.30274673 6.43928364 7.28515625 9.10546875 C7.2837413 9.90311142 7.28232635 10.70075409 7.28086853 11.52256775 C7.27525316 14.08018685 7.26269812 16.63771968 7.25 19.1953125 C7.24498698 20.92512895 7.24042373 22.65494676 7.23632812 24.38476562 C7.22527875 28.63414803 7.20800386 32.88346562 7.1875 37.1328125 C3.8875 37.1328125 0.5875 37.1328125 -2.8125 37.1328125 C-2.8371501 32.02417354 -2.85533607 26.91556891 -2.86743164 21.80688477 C-2.87247204 20.06762082 -2.8793043 18.32836114 -2.88793945 16.58911133 C-2.90001792 14.09455313 -2.90573108 11.60005077 -2.91015625 9.10546875 C-2.91531754 8.32317398 -2.92047882 7.54087921 -2.92579651 6.73487854 C-2.92599226 4.86714136 -2.87449694 2.99952046 -2.8125 1.1328125 C-1.8125 0.1328125 -1.8125 0.1328125 0 0 Z " fill="#FFFFFF" transform="translate(111.8125,22.8671875)"/>
<path d="M0 0 C0.66 0.66 1.32 1.32 2 2 C1.8125 5.5 1.8125 5.5 1 9 C-2 11 -2 11 -4.5625 10.75 C-7 10 -7 10 -9 8 C-9.75 5 -9.75 5 -10 2 C-6.8820123 -1.1179877 -4.12216267 -1.51145965 0 0 Z " fill="#FFFFFF" transform="translate(118,9)"/>
</svg>
