<?xml version="1.0" encoding="UTF-8"?>
<svg version="1.1" xmlns="http://www.w3.org/2000/svg" width="778" height="908">
<path d="M0 0 C1.15509064 -0.0071553 2.31018127 -0.01431061 3.50027466 -0.02168274 C5.39545334 -0.02571609 5.39545334 -0.02571609 7.32891846 -0.02983093 C8.67611871 -0.0360991 10.02331725 -0.04274621 11.37051392 -0.04974365 C15.79055588 -0.07074425 20.21059803 -0.08114219 24.63067627 -0.09111023 C26.15475736 -0.09515926 27.67883828 -0.09927623 29.20291901 -0.10346031 C36.36406773 -0.12250308 43.52520621 -0.13673611 50.68637538 -0.14507228 C58.94185025 -0.15484208 67.19705681 -0.18115852 75.45243716 -0.22157317 C81.84070266 -0.25176992 88.22889138 -0.26654451 94.61722684 -0.26985329 C98.42933398 -0.27219969 102.24115418 -0.28110623 106.05318451 -0.30631447 C109.64183376 -0.32966296 113.23000851 -0.33380163 116.81871414 -0.32355309 C118.75425542 -0.32282484 120.68977297 -0.34186817 122.62521362 -0.36161804 C129.6752275 -0.31964679 134.36447446 0.29486522 140.33380127 4.14717102 C145.01886175 9.19262077 145.94196679 12.77253127 145.85333252 19.56513977 C144.80536627 26.79059131 140.90638862 32.89311789 137.33380127 39.14717102 C136.89455322 39.92705383 136.45530518 40.70693665 136.00274658 41.51045227 C133.56318654 45.84054186 131.09497314 50.1531888 128.60723877 54.45576477 C125.12524243 60.4876441 121.72686236 66.56494343 118.33380127 72.64717102 C113.56220433 81.19134031 108.74219752 89.70526098 103.87286377 98.19404602 C99.98223133 104.98721377 96.1512059 111.81262565 92.33380127 118.64717102 C87.53494019 127.23778148 82.69279938 135.80144387 77.800354 144.33906555 C72.48550399 153.61695078 67.2301377 162.92819475 61.97491455 172.23994446 C59.26331104 177.0435408 56.54840031 181.84526708 53.83380127 186.64717102 C52.75045184 188.56382859 51.66711852 190.48049526 50.58380127 192.39717102 C48.4171346 196.23050435 46.25046794 200.06383769 44.08380127 203.89717102 C43.54779297 204.84551819 43.01178467 205.79386536 42.45953369 206.77095032 C41.37384472 208.69173448 40.28806969 210.61246999 39.20220947 212.53315735 C36.52921705 217.26143555 33.8576204 221.99049014 31.18927002 226.72138977 C25.62807106 236.57718009 20.04101579 246.417482 14.41784668 256.23805237 C7.77971386 267.83148372 1.21584759 279.4643901 -5.29901123 291.12763977 C-10.18506667 299.87207194 -15.12264665 308.58733898 -20.05731201 317.30439758 C-22.21917893 321.12424257 -24.37880928 324.94534959 -26.53826904 328.76655579 C-27.62470728 330.68900402 -28.71129615 332.61136713 -29.79803467 334.53364563 C-32.47097731 339.26174324 -35.14246887 343.99064842 -37.81072998 348.72138977 C-43.37192894 358.57718009 -48.95898421 368.417482 -54.58215332 378.23805237 C-61.22028614 389.83148372 -67.78415241 401.4643901 -74.29901123 413.12763977 C-79.18506667 421.87207194 -84.12264665 430.58733898 -89.05731201 439.30439758 C-91.21950209 443.12481356 -93.37945221 446.9464935 -95.53924561 450.76826477 C-97.16333751 453.64210806 -98.7878146 456.5157334 -100.41229248 459.38935852 C-102.59333292 463.2479711 -104.77287423 467.10742527 -106.95135498 470.96748352 C-107.49388916 471.92799622 -108.03642334 472.88850891 -108.59539795 473.87812805 C-109.67561858 475.7921692 -110.75409861 477.70719384 -111.83074951 479.62324524 C-114.56349893 484.47636092 -117.33692968 489.29862355 -120.18572998 494.08467102 C-121.0305896 495.51818909 -121.0305896 495.51818909 -121.89251709 496.98066711 C-122.96589069 498.79807474 -124.05079866 500.60873521 -125.14886475 502.41133118 C-125.62638184 503.22392395 -126.10389893 504.03651672 -126.59588623 504.87373352 C-127.02111572 505.58094543 -127.44634521 506.28815735 -127.88446045 507.01679993 C-129.23250371 510.69044936 -128.05806646 513.29619864 -126.47381592 516.73652649 C-125.975271 517.65321106 -125.47672607 518.56989563 -124.96307373 519.51435852 C-124.40184814 520.5523761 -123.84062256 521.59039368 -123.26239014 522.65986633 C-122.65314697 523.76942688 -122.04390381 524.87898743 -121.41619873 526.02217102 C-120.7782912 527.19481868 -120.14076429 528.36767346 -119.50360107 529.54072571 C-115.0028823 537.80453487 -110.37406811 545.99393401 -105.71087646 554.16694641 C-100.7900616 562.83384383 -96.10673956 571.62017801 -91.43685913 580.42372131 C-87.14129343 588.52150916 -82.8045694 596.58978344 -78.32171631 604.58589172 C-74.87579559 610.7404027 -71.51731698 616.94060765 -68.16619873 623.14717102 C-64.37318619 630.17020946 -60.55878611 637.17880148 -56.66619873 644.14717102 C-52.19768128 652.1465498 -47.83689869 660.20234836 -43.48260498 668.26435852 C-40.24788152 674.24669415 -36.98281918 680.20987671 -33.66619873 686.14717102 C-29.19768128 694.1465498 -24.83689869 702.20234836 -20.48260498 710.26435852 C-17.24788152 716.24669415 -13.98281918 722.20987671 -10.66619873 728.14717102 C-6.19768128 736.1465498 -1.83689869 744.20234836 2.51739502 752.26435852 C5.75211848 758.24669415 9.01718082 764.20987671 12.33380127 770.14717102 C16.79735281 778.13766 21.15485398 786.18368899 25.50201416 794.23799133 C28.46530925 799.72125044 31.45481673 805.18739055 34.50030518 810.6254425 C36.10459542 813.4928879 37.69214286 816.36940458 39.27764893 819.24726868 C40.26253842 821.01897696 41.27186767 822.7770379 42.28302002 824.53388977 C45.9078927 831.13301696 47.70315228 836.59787937 46.33380127 844.14717102 C44.96145013 848.46486058 42.64957306 851.21328464 38.77130127 853.52217102 C34.51723906 855.53318225 31.6027955 856.2733894 26.95317078 856.28761292 C25.83600174 856.29332306 24.7188327 856.2990332 23.56781006 856.30491638 C22.34130737 856.30603424 21.11480469 856.3071521 19.85113525 856.30830383 C18.55978165 856.31326874 17.26842804 856.31823364 15.9379425 856.323349 C12.39210776 856.33646928 8.84629196 856.34291797 5.30043674 856.34735966 C3.08234386 856.35029278 0.86425613 856.35439819 -1.35383415 856.35886383 C-8.30141919 856.37254174 -15.24899244 856.38220528 -22.19659001 856.38606572 C-30.20127617 856.39053841 -38.2057909 856.40804822 -46.21042496 856.43706632 C-52.40592308 856.45874121 -58.60137319 856.4687732 -64.7969088 856.47010684 C-68.49278636 856.47115131 -72.18850284 856.47698158 -75.88434029 856.49492645 C-80.01558805 856.51459398 -84.14648143 856.51009514 -88.277771 856.50361633 C-90.0962706 856.51743851 -90.0962706 856.51743851 -91.95150757 856.53153992 C-101.64820572 856.48404056 -109.81971907 855.16888797 -117.66619873 849.14717102 C-118.47057373 848.61092102 -119.27494873 848.07467102 -120.10369873 847.52217102 C-127.32671893 840.8276645 -131.77844474 831.57930433 -136.29119873 822.95967102 C-140.76047441 814.53611756 -145.30426005 806.1731764 -150.04119873 797.89717102 C-155.44834016 788.42677806 -160.59655202 778.83406757 -165.69842529 769.19746399 C-170.02674748 761.02698661 -174.44209953 752.91939722 -179.04119873 744.89717102 C-184.88578984 734.6948999 -190.37088596 724.31823 -195.84091187 713.91249084 C-200.98837642 704.1265764 -206.26078277 694.43825864 -211.76385498 684.84638977 C-216.798162 676.02376671 -221.52769397 667.04753608 -226.26495361 658.06340027 C-231.37173123 648.384663 -236.62601479 638.81263386 -242.06463623 629.31513977 C-246.29556577 621.89245638 -250.24602136 614.34423099 -254.15887451 606.75019836 C-257.57764047 600.148174 -261.15939255 593.66105793 -264.85369873 587.20967102 C-270.53891967 577.27782519 -275.91895117 567.20308778 -281.25524902 557.08152771 C-286.5262395 547.09067903 -291.92769319 537.19632175 -297.55682373 527.40107727 C-298.94010913 524.9904181 -300.3071507 522.57155911 -301.66619873 520.14717102 C-302.29727539 519.04888977 -302.29727539 519.04888977 -302.94110107 517.92842102 C-303.50691895 516.89201477 -303.50691895 516.89201477 -304.08416748 515.83467102 C-304.58146362 514.9432843 -304.58146362 514.9432843 -305.08880615 514.03388977 C-306.15587701 510.5470722 -304.99703833 507.84014585 -303.47381592 504.64961243 C-302.975271 503.77482239 -302.47672607 502.90003235 -301.96307373 501.99873352 C-301.40160645 501.00534973 -300.84013916 500.01196594 -300.26165771 498.98847961 C-299.65265625 497.92709778 -299.04365479 496.86571594 -298.41619873 495.77217102 C-297.7872168 494.66309387 -297.15823486 493.55401672 -296.51019287 492.41133118 C-295.20383041 490.10879577 -293.89463642 487.8078647 -292.58270264 485.50849915 C-290.27442846 481.46005088 -287.98399198 477.40172025 -285.69476318 473.34248352 C-282.49033292 467.66232725 -279.27481376 461.98843749 -276.06170654 456.31318665 C-274.45024769 453.46643928 -272.83928049 450.61941471 -271.22869873 447.77217102 C-270.69567139 446.82986633 -270.16264404 445.88756165 -269.61346436 444.91670227 C-265.58969419 437.79660956 -261.59373991 430.66120724 -257.60369873 423.52217102 C-252.85061598 415.01899152 -248.04896048 406.54584066 -243.20281982 398.09541321 C-238.73180894 390.28776091 -234.33643718 382.43865034 -229.94744873 374.58467102 C-225.50960815 366.64532545 -221.0417332 358.72346767 -216.55877686 350.80952454 C-213.76839599 345.87954238 -210.99032457 340.94316418 -208.23260498 335.99482727 C-202.45554239 325.63035863 -196.62167381 315.31147003 -190.60369873 305.08467102 C-185.34188547 296.1364377 -180.32528794 287.08042315 -175.41766357 277.93379211 C-171.47684196 270.60178034 -167.4047676 263.35697502 -163.25115967 256.14375305 C-159.3736317 249.4055668 -155.57413102 242.62634924 -151.79119873 235.83467102 C-147.15951038 227.52521525 -142.42909983 219.2830248 -137.60369873 211.08467102 C-132.34179064 202.13649584 -127.32528572 193.08041902 -122.41766357 183.93379211 C-118.47730666 176.60264493 -114.40449299 169.35943365 -110.25335693 162.14595032 C-106.36274109 155.38173591 -102.53451881 148.58443192 -98.72869873 141.77217102 C-91.550223 128.92756657 -84.31118849 116.11781027 -77.06170654 103.31318665 C-75.45024769 100.46643928 -73.83928049 97.61941471 -72.22869873 94.77217102 C-71.42915771 93.35871399 -71.42915771 93.35871399 -70.61346436 91.91670227 C-66.58969389 84.79660903 -62.59383841 77.66115256 -58.60369873 70.52217102 C-53.80341034 61.93705257 -48.9775262 53.36766161 -44.07098389 44.84272766 C-41.52916674 40.42529203 -39.02236407 35.99309376 -36.56854248 31.52607727 C-21.84760988 4.8787099 -21.84760988 4.8787099 -7.8926506 0.60387897 C-5.2179242 0.05521729 -2.73164906 0.01163199 0 0 Z " fill="#5170FF" transform="translate(608.6661987304688,26.852828979492188)"/>
<path d="M0 0 C1.15634949 -0.00860046 2.31269897 -0.01720093 3.50408936 -0.02606201 C5.40926079 -0.03245193 5.40926079 -0.03245193 7.35292053 -0.03897095 C8.70333567 -0.04687445 10.05374871 -0.05514356 11.40415955 -0.06375122 C15.84286995 -0.08995863 20.28158968 -0.10528488 24.72035217 -0.11953735 C26.25146045 -0.12489894 27.78256867 -0.13027646 29.31367683 -0.13566971 C35.6883446 -0.15730307 42.06300986 -0.17603497 48.43770504 -0.1872921 C57.55324703 -0.2034976 66.66836047 -0.23658676 75.78374094 -0.29369295 C82.20261941 -0.33252346 88.62138395 -0.35194064 95.04037672 -0.35721266 C98.86834962 -0.36085037 102.69586533 -0.3726999 106.52371025 -0.4053154 C110.13294799 -0.43562546 113.74145752 -0.4416277 117.35079575 -0.42993164 C119.28799053 -0.42960935 121.22514191 -0.45392551 123.16217041 -0.47930908 C132.74591505 -0.41184668 140.72320513 1.72967822 148.54969788 7.4078064 C154.33972263 13.49999222 158.62411563 19.78004331 162.63050842 27.15390015 C163.59242673 28.87200715 164.55437294 30.59009919 165.51791382 32.30729675 C166.50830494 34.07686554 167.49168007 35.85019836 168.47425842 37.62411499 C171.61749126 43.28142814 174.88283269 48.86865799 178.13050842 54.46640015 C183.07299986 63.02465066 187.9889134 71.59768511 192.88514709 80.1824646 C197.52032582 88.30349559 202.19693945 96.40043427 206.87440491 104.49716187 C210.77151279 111.24643224 214.64768494 118.00711281 218.50550842 124.77890015 C223.97852426 134.38060082 229.54013991 143.92967346 235.11878967 153.4703064 C235.92086853 154.85778076 235.92086853 154.85778076 236.739151 156.27328491 C237.94946857 158.31950027 239.20132861 160.34139303 240.48085022 162.34506226 C241.46758728 163.92106201 241.46758728 163.92106201 242.47425842 165.52890015 C243.08462952 166.47636108 243.69500061 167.42382202 244.3238678 168.3999939 C245.44300842 171.15390015 245.44300842 171.15390015 244.83924866 174.03500366 C243.62644241 176.59999947 242.21291541 178.93680728 240.64271545 181.29794312 C238.8035255 184.14318569 237.18269773 187.10493761 235.52674866 190.05941772 C234.00657948 192.76315628 232.4624321 195.45192317 230.91175842 198.13827515 C227.11546708 204.71822123 223.33881806 211.30933066 219.56800842 217.90390015 C219.22993164 218.49486481 218.89185486 219.08582947 218.54353333 219.69470215 C213.12327757 229.17217545 207.77019799 238.68577 202.44691467 248.21810913 C196.84819679 258.23665769 191.15232999 268.19810155 185.44300842 278.15390015 C182.81622922 282.73621671 180.19107313 287.31945665 177.56800842 291.90390015 C177.22854187 292.4970401 176.88907532 293.09018005 176.5393219 293.70129395 C171.74898857 302.0747159 167.01383012 310.47699731 162.31800842 318.90390015 C157.2468079 328.00326292 152.04003623 337.01356759 146.76283264 345.99472046 C142.37671199 353.48691318 138.13758768 361.0530538 133.94300842 368.65390015 C126.97702217 381.27305915 119.78784641 393.75169571 112.44300842 406.15390015 C111.90708069 407.06220581 111.37115295 407.97051147 110.81898499 408.90634155 C110.03539612 410.22577759 110.03539612 410.22577759 109.23597717 411.5718689 C108.77344543 412.35199341 108.3109137 413.13211792 107.83436584 413.93588257 C102.42252673 422.5631081 95.20348063 428.28422714 85.11122608 430.71567917 C82.32084537 431.17396388 79.71148381 431.28556733 76.88433838 431.29434204 C75.22536781 431.30290726 75.22536781 431.30290726 73.53288269 431.31164551 C72.32912994 431.31276337 71.1253772 431.31388123 69.88514709 431.31503296 C67.97212044 431.32248032 67.97212044 431.32248032 66.02044678 431.33007812 C62.52858203 431.34316261 59.03673648 431.34963924 55.54485106 431.35408878 C53.36059994 431.35702565 51.17635399 431.36113159 48.99210548 431.36559296 C42.15025075 431.37925694 35.30840794 431.3889292 28.46654052 431.39279485 C20.58297454 431.39727427 12.69958206 431.41482131 4.81606883 431.44379544 C-1.28771943 431.4654459 -7.39145898 431.4755009 -13.49528521 431.47683597 C-17.13629666 431.47788151 -20.77714478 431.4837357 -24.41811562 431.50165558 C-28.48249895 431.5212715 -32.54652113 431.51683394 -36.61094666 431.51034546 C-37.80862671 431.51956024 -39.00630676 431.52877502 -40.24028015 431.53826904 C-48.09694144 431.49900721 -54.22713877 430.97703622 -60.43199158 425.71640015 C-64.27337163 421.08414773 -65.26087952 417.40953087 -65.10386658 411.42733765 C-63.92555321 404.3742905 -60.01349976 398.31476085 -56.55699158 392.15390015 C-55.5042275 390.24021198 -54.45218729 388.32612549 -53.40074158 386.41171265 C-47.06526352 374.94552405 -40.5143501 363.61045737 -33.87876892 352.31600952 C-28.83112308 343.69499549 -23.98874427 334.96725321 -19.16270447 326.22079468 C-14.50868255 317.80875093 -9.70109156 309.49816039 -4.82652283 301.2124939 C-0.4543623 293.7552583 3.76695233 286.22246367 7.94300842 278.65390015 C12.6693177 270.08807364 17.48233869 261.58619861 22.44300842 253.15390015 C28.10564699 243.5258127 33.5681678 233.79816259 38.97157288 224.02255249 C42.33079058 217.94838658 45.70702695 211.8860842 49.15394592 205.86117554 C50.12714207 204.15920867 51.09473491 202.45402374 52.05628967 200.74545288 C54.59465983 196.25841291 57.24092605 191.89014438 60.06410217 187.57577515 C60.64973938 186.64748901 61.23537659 185.71920288 61.83876038 184.76278687 C62.95999042 182.99015746 64.11709908 181.23952956 65.31483459 179.51766968 C66.88454218 176.98899224 67.90358569 175.08547067 68.44300842 172.15390015 C67.15913459 168.00669435 64.8689005 164.72273015 62.44300842 161.15390015 C61.46983461 159.44496699 60.51363472 157.72624064 59.57582092 155.99765015 C53.05024262 144.37769371 46.35051554 132.87245677 39.53187561 121.42221069 C34.26173427 112.56366011 29.08836523 103.65288102 23.94960022 94.71762085 C18.08077499 84.51382399 12.15153631 74.34597981 6.21205139 64.18319702 C4.36091863 61.01333016 2.51291439 57.8416563 0.66566467 54.66952515 C0.04248352 53.5997644 -0.58069763 52.53000366 -1.22276306 51.42782593 C-2.40371439 49.40041873 -3.58424884 47.37276861 -4.76426697 45.34481812 C-7.90739836 39.95136784 -11.09047892 34.58637097 -14.33872986 29.25546265 C-17.29854868 24.14962689 -18.44713022 19.02222156 -17.55699158 13.15390015 C-15.7769216 7.8618002 -13.32713508 4.21168444 -8.55699158 1.15390015 C-5.44390105 0.1162033 -3.26587588 0.01807763 0 0 Z " fill="#37B6FF" transform="translate(90.55699157714844,195.84609985351563)"/>
</svg>
