<svg viewBox="0 0 371 43" xmlns="http://www.w3.org/2000/svg" data-logo="logo">
        <g transform="translate(0, 1) rotate(0)" id="logogram" style="opacity: 1;"><path fill="#FF7A00" d="M68.75 0.809967H96.25L72.5 40.81H45L68.75 0.809967Z"></path><path fill="#FF9736" d="M43.75 0.809967H63.75L40 40.81H20L43.75 0.809967Z"></path><path fill="#FFBC7D" d="M23.75 0.809967H38.75L15 40.81H0L23.75 0.809967Z"></path></g>
        <g transform="translate(103, 4.5)" id="logotype" style="opacity: 1;"><path d="M23.86 33L17.79 33L5.24 1.50L12.52 1.50L19.73 21.52Q20.45 23.51 20.85 25.48L20.85 25.48Q21.07 24.50 21.34 23.48Q21.62 22.47 21.98 21.52L21.98 21.52L29.18 1.50L36.33 1.50L23.86 33ZM45.46 33.59L45.46 33.59Q41.86 33.59 39.03 31.92Q36.19 30.25 34.60 27.49Q33.00 24.72 33.00 21.34L33.00 21.34Q33.00 17.97 34.60 15.18Q36.19 12.39 39.03 10.73Q41.86 9.06 45.46 9.06L45.46 9.06Q49.11 9.06 51.92 10.73Q54.73 12.39 56.33 15.18Q57.93 17.97 57.93 21.34L57.93 21.34Q57.93 24.72 56.33 27.49Q54.73 30.25 51.92 31.92Q49.11 33.59 45.46 33.59ZM45.46 28.05L45.46 28.05Q47.40 28.05 48.84 27.13Q50.28 26.20 51.07 24.68Q51.85 23.14 51.85 21.34L51.85 21.34Q51.85 19.50 51.07 17.97Q50.28 16.44 48.84 15.52Q47.40 14.60 45.46 14.60L45.46 14.60Q43.53 14.60 42.09 15.52Q40.65 16.44 39.86 17.97Q39.07 19.50 39.07 21.34L39.07 21.34Q39.07 23.14 39.86 24.68Q40.65 26.20 42.09 27.13Q43.53 28.05 45.46 28.05ZM66.70 33L60.63 33L60.63 0.15L66.70 0.15L66.70 33ZM82.50 33L79.17 33Q75.70 33 73.86 31.29Q72.02 29.58 72.02 25.75L72.02 25.75L72.02 14.78L68.73 14.78L68.73 9.60L72.02 9.60L72.02 4.88L78.09 4.25L78.09 9.60L83.04 9.60L83.04 14.78L78.09 14.78L78.09 25.44Q78.09 27.60 79.98 27.60L79.98 27.60L82.50 27.60L82.50 33ZM95.64 33.59L95.64 33.59Q92.04 33.59 89.30 31.92Q86.55 30.25 85.04 27.49Q83.54 24.72 83.54 21.34L83.54 21.34Q83.54 17.97 85.11 15.16Q86.69 12.35 89.41 10.68Q92.13 9.02 95.64 9.02L95.64 9.02Q99.15 9.02 101.83 10.68Q104.50 12.35 106.01 15.16Q107.52 17.97 107.52 21.34L107.52 21.34Q107.52 21.84 107.48 22.38Q107.43 22.92 107.34 23.51L107.34 23.51L89.84 23.51Q90.33 25.57 91.84 26.88Q93.34 28.19 95.64 28.19L95.64 28.19Q97.62 28.19 99.08 27.29Q100.55 26.39 101.36 25.04L101.36 25.04L106.08 28.59Q104.69 30.80 101.90 32.19Q99.11 33.59 95.64 33.59ZM95.55 14.23L95.55 14.23Q93.39 14.23 91.86 15.54Q90.33 16.84 89.84 18.96L89.84 18.96L101.40 18.96Q100.91 17.02 99.35 15.63Q97.80 14.23 95.55 14.23ZM116.25 33L110.17 33L110.17 9.60L116.07 9.60L116.07 14.05Q116.66 11.54 118.45 10.21Q120.25 8.88 123.31 9.06L123.31 9.06L123.31 14.78L122.46 14.78Q119.85 14.78 118.05 16.44Q116.25 18.11 116.25 21.03L116.25 21.03L116.25 33ZM134.88 33.59L134.88 33.59Q131.69 33.59 129.05 31.94Q126.42 30.30 124.87 27.53Q123.31 24.77 123.31 21.39L123.31 21.39Q123.31 18.87 124.21 16.64Q125.11 14.41 126.69 12.73Q128.26 11.04 130.36 10.07Q132.45 9.11 134.88 9.11L134.88 9.11Q137.94 9.11 139.65 10.25Q141.36 11.40 142.31 13.29L142.31 13.29L142.31 9.60L148.33 9.60L148.33 33L142.44 33L142.44 29.18Q141.50 31.16 139.76 32.37Q138.03 33.59 134.88 33.59ZM135.87 28.09L135.87 28.09Q137.89 28.09 139.36 27.17Q140.82 26.25 141.63 24.72Q142.44 23.19 142.44 21.39L142.44 21.39Q142.44 19.55 141.63 18.02Q140.82 16.48 139.36 15.54Q137.89 14.60 135.87 14.60L135.87 14.60Q133.94 14.60 132.47 15.52Q131.01 16.44 130.20 17.97Q129.39 19.50 129.39 21.34L129.39 21.34Q129.39 23.10 130.20 24.65Q131.01 26.20 132.47 27.15Q133.94 28.09 135.87 28.09ZM167.69 33.59L167.69 33.59Q164.17 33.59 161.18 32.33Q158.19 31.07 155.96 28.82Q153.73 26.57 152.50 23.62Q151.26 20.67 151.26 17.30L151.26 17.30Q151.26 13.92 152.45 10.95Q153.64 7.98 155.83 5.73Q158.01 3.48 161.02 2.20Q164.04 0.91 167.69 0.91L167.69 0.91Q171.55 0.91 174.32 2.13Q177.09 3.35 179.20 5.87L179.20 5.87L174.75 9.73Q171.91 6.77 167.69 6.77L167.69 6.77Q164.67 6.77 162.44 8.21Q160.22 9.64 159 12.03Q157.78 14.41 157.78 17.30L157.78 17.30Q157.78 20.18 159 22.54Q160.22 24.90 162.47 26.32Q164.72 27.73 167.82 27.73L167.82 27.73Q170.11 27.73 171.87 26.97Q173.63 26.20 175.02 24.68L175.02 24.68L179.61 28.59Q177.81 30.75 174.82 32.17Q171.82 33.59 167.69 33.59ZM187.80 33L181.72 33L181.72 0.15L187.80 0.15L187.80 33ZM202.97 33.59L202.97 33.59Q199.36 33.59 196.53 31.92Q193.69 30.25 192.10 27.49Q190.50 24.72 190.50 21.34L190.50 21.34Q190.50 17.97 192.10 15.18Q193.69 12.39 196.53 10.73Q199.36 9.06 202.97 9.06L202.97 9.06Q206.61 9.06 209.42 10.73Q212.23 12.39 213.83 15.18Q215.43 17.97 215.43 21.34L215.43 21.34Q215.43 24.72 213.83 27.49Q212.23 30.25 209.42 31.92Q206.61 33.59 202.97 33.59ZM202.97 28.05L202.97 28.05Q204.90 28.05 206.34 27.13Q207.78 26.20 208.57 24.68Q209.35 23.14 209.35 21.34L209.35 21.34Q209.35 19.50 208.57 17.97Q207.78 16.44 206.34 15.52Q204.90 14.60 202.97 14.60L202.97 14.60Q201.03 14.60 199.59 15.52Q198.15 16.44 197.36 17.97Q196.57 19.50 196.57 21.34L196.57 21.34Q196.57 23.14 197.36 24.68Q198.15 26.20 199.59 27.13Q201.03 28.05 202.97 28.05ZM226.81 33.54L226.81 33.54Q224.29 33.54 222.27 32.37Q220.24 31.20 219.07 29.02Q217.90 26.84 217.90 23.91L217.90 23.91L217.90 9.60L223.98 9.60L223.98 22.43Q223.98 25.44 225.19 26.84Q226.41 28.23 228.66 28.23L228.66 28.23Q230.59 28.23 232.06 26.84Q233.52 25.44 233.52 22.43L233.52 22.43L233.52 9.60L239.59 9.60L239.59 33L233.70 33L233.70 29.49Q232.84 31.52 231.20 32.53Q229.56 33.54 226.81 33.54ZM253.86 33.59L253.86 33.59Q250.66 33.59 248.03 31.94Q245.40 30.30 243.85 27.53Q242.29 24.77 242.29 21.39L242.29 21.39Q242.29 18.87 243.19 16.64Q244.09 14.41 245.67 12.73Q247.24 11.04 249.34 10.07Q251.43 9.11 253.86 9.11L253.86 9.11Q256.88 9.11 258.58 10.23Q260.29 11.36 261.24 13.20L261.24 13.20L261.24 0.15L267.31 0.15L267.31 33L261.42 33L261.42 29.18Q260.47 31.16 258.74 32.37Q257.01 33.59 253.86 33.59ZM254.85 28.09L254.85 28.09Q256.88 28.09 258.34 27.17Q259.80 26.25 260.61 24.72Q261.42 23.19 261.42 21.39L261.42 21.39Q261.42 19.55 260.61 18.02Q259.80 16.48 258.34 15.54Q256.88 14.60 254.85 14.60L254.85 14.60Q252.91 14.60 251.45 15.52Q249.99 16.44 249.18 17.97Q248.37 19.50 248.37 21.34L248.37 21.34Q248.37 23.10 249.18 24.65Q249.99 26.20 251.45 27.15Q252.91 28.09 254.85 28.09Z" fill="#ffffff"></path></g>
        
      </svg>