<?xml version="1.0" encoding="UTF-8"?>
<svg version="1.1" xmlns="http://www.w3.org/2000/svg" width="1328" height="395">
<path d="M0 0 C1.18439667 -0.00145523 2.36879333 -0.00291046 3.58908081 -0.00440979 C6.08887191 -0.00275176 8.58867332 0.00879857 11.08837891 0.02954102 C14.92263909 0.05854044 18.75552068 0.05013791 22.58984375 0.03710938 C25.01823591 0.04334536 27.44662369 0.05173521 29.875 0.0625 C31.02501495 0.05956436 32.17502991 0.05662872 33.3598938 0.05360413 C34.42464935 0.0662883 35.48940491 0.07897247 36.58642578 0.09204102 C37.52398712 0.097444 38.46154846 0.10284698 39.42752075 0.1084137 C42.24353599 0.56766332 43.14858272 1.20277991 44.8046875 3.49609375 C45.31691991 7.89979692 44.58000268 10.65358173 42.453125 14.48828125 C41.9389502 15.42776611 41.42477539 16.36725098 40.89501953 17.33520508 C40.32895996 18.33704834 39.76290039 19.3388916 39.1796875 20.37109375 C38.59429199 21.42901123 38.00889648 22.48692871 37.40576172 23.5769043 C32.78258635 31.88423018 27.99773531 40.09701004 23.17480469 48.28955078 C18.81217332 55.71369889 14.5925407 63.20830738 10.4296875 70.74609375 C5.27400904 80.08132676 0.04844216 89.37101412 -5.2578125 98.62109375 C-10.28515164 107.3861989 -15.27246725 116.17175501 -20.1953125 124.99609375 C-24.88368932 133.39994028 -29.6241838 141.77171056 -34.40826416 150.12127686 C-35.43317871 151.91238907 -36.4551397 153.70515178 -37.47607422 155.49853516 C-40.44440365 160.70869008 -43.42715922 165.90537408 -46.5 171.0546875 C-46.98307617 171.87976807 -47.46615234 172.70484863 -47.96386719 173.55493164 C-48.8361204 175.0443244 -49.72366377 176.52492286 -50.62988281 177.99389648 C-52.35744537 180.97999506 -53.28336023 182.87377581 -52.79296875 186.33984375 C-50.5072439 190.85540776 -48.05024138 195.24547147 -45.5078125 199.62109375 C-40.41456482 208.49986335 -35.49623787 217.4561988 -30.6953125 226.49609375 C-25.53060295 236.21275351 -20.22053906 245.83329679 -14.76660156 255.39086914 C-10.94586191 262.10795684 -7.28912171 268.89499266 -3.7434082 275.76098633 C-1.77471034 279.5587783 0.24719443 283.29999216 2.421875 286.984375 C2.84307617 287.70310791 3.26427734 288.42184082 3.69824219 289.16235352 C4.49039099 290.50275597 5.29482281 291.83601455 6.11425781 293.15991211 C8.62747578 297.42312102 9.45882439 300.57222695 8.8046875 305.49609375 C7.16254068 307.7767045 6.26641627 308.41934989 3.47221375 308.8837738 C2.5554335 308.88917679 1.63865326 308.89457977 0.6940918 308.90014648 C-0.86816887 308.91917274 -0.86816887 308.91917274 -2.46199036 308.93858337 C-3.58699448 308.93564774 -4.7119986 308.9327121 -5.87109375 308.9296875 C-7.02900925 308.93492935 -8.18692474 308.9401712 -9.37992859 308.9455719 C-11.83197223 308.95200051 -14.28404667 308.95064433 -16.73608398 308.94213867 C-20.48282127 308.93365037 -24.22802364 308.96234604 -27.97460938 308.99414062 C-30.35677038 308.99575326 -32.73893407 308.99517392 -35.12109375 308.9921875 C-36.79949089 309.00903847 -36.79949089 309.00903847 -38.51179504 309.02622986 C-44.7013045 308.970982 -48.53596517 308.72990587 -53.1953125 304.49609375 C-54.7511373 302.23623651 -56.01111911 300.16131411 -57.2578125 297.74609375 C-57.81408325 296.71476318 -57.81408325 296.71476318 -58.3815918 295.66259766 C-59.20909671 294.12568299 -60.03012471 292.58526887 -60.84570312 291.04199219 C-62.29340925 288.31104438 -63.76518649 285.59411721 -65.2421875 282.87890625 C-67.45829601 278.8042451 -69.66782421 274.72614951 -71.87109375 270.64453125 C-75.45283772 264.01336636 -79.06296902 257.3978959 -82.67724609 250.78442383 C-85.25684479 246.06079247 -87.82623132 241.33199275 -90.37890625 236.59375 C-96.39402305 225.43393493 -102.48739681 214.33030164 -108.79467773 203.33227539 C-110.28033529 200.73017555 -111.74396381 198.11746806 -113.1953125 195.49609375 C-113.94748047 194.15562988 -113.94748047 194.15562988 -114.71484375 192.78808594 C-115.18277344 191.91571289 -115.65070313 191.04333984 -116.1328125 190.14453125 C-116.55433594 189.37028809 -116.97585937 188.59604492 -117.41015625 187.79833984 C-118.66173046 184.1284565 -117.73428481 181.63008275 -116.1105957 178.21386719 C-115.66031006 177.4355957 -115.21002441 176.65732422 -114.74609375 175.85546875 C-114.2348999 174.96263184 -113.72370605 174.06979492 -113.19702148 173.14990234 C-112.63958252 172.19164551 -112.08214355 171.23338867 -111.5078125 170.24609375 C-110.3170627 168.17094326 -109.12698147 166.09540901 -107.9375 164.01953125 C-107.3197168 162.94541992 -106.70193359 161.87130859 -106.06542969 160.76464844 C-103.04723095 155.489499 -100.0923861 150.17928009 -97.1328125 144.87109375 C-92.38069831 136.3673793 -87.57806814 127.89475274 -82.73193359 119.44433594 C-78.26173477 111.63810172 -73.86743622 103.79026818 -69.47875977 95.93798828 C-62.89188101 84.1553274 -56.24139486 72.40889412 -49.59082031 60.66210938 C-47.97936149 57.81536207 -46.36851542 54.96826881 -44.7578125 52.12109375 C-44.22841064 51.18604004 -43.69900879 50.25098633 -43.15356445 49.28759766 C-40.25462294 44.16142592 -37.3731867 39.0261001 -34.51171875 33.87890625 C-33.89546631 32.77208496 -33.27921387 31.66526367 -32.64428711 30.52490234 C-31.46903514 28.4122489 -30.29646202 26.2981019 -29.12719727 24.18212891 C-26.37422041 19.23585306 -23.55349962 14.33750176 -20.59375 9.51171875 C-20.06185059 8.64321289 -19.52995117 7.77470703 -18.98193359 6.87988281 C-13.55180736 -0.36523232 -8.57220862 -0.08403388 0 0 Z " fill="#5170FF" transform="translate(242.1953125,37.50390625)"/>
<path d="M0 0 C0.94140335 -0.00960754 1.8828067 -0.01921509 2.85273743 -0.02911377 C4.37619026 -0.03548859 4.37619026 -0.03548859 5.93041992 -0.04199219 C6.97735519 -0.04769226 8.02429047 -0.05339233 9.10295105 -0.05926514 C11.31960032 -0.06871485 13.53626363 -0.075249 15.75292969 -0.07910156 C19.13721357 -0.08879935 22.52088816 -0.11982032 25.9050293 -0.15136719 C28.05932257 -0.15789817 30.21362018 -0.16314827 32.36791992 -0.16699219 C33.37748245 -0.17933899 34.38704498 -0.19168579 35.42720032 -0.20440674 C42.25275043 -0.18286397 46.79219013 0.5967675 51.79370117 5.61425781 C55.45759018 10.36536289 58.27989829 15.69940975 61.22338867 20.91113281 C62.2054305 22.6391866 63.18749062 24.36723028 64.17059326 26.09468079 C64.8501979 27.28885813 65.52910487 28.48343278 66.20733643 29.6783905 C68.65308928 33.97649345 71.1634069 38.23252461 73.69995117 42.47753906 C74.74534862 44.24002955 75.78938304 46.0033188 76.83282471 47.76696777 C77.8335284 49.44865998 78.8484326 51.12187579 79.86352539 52.79492188 C80.46696777 53.8194043 81.07041016 54.84388672 81.69213867 55.89941406 C82.23032227 56.79700439 82.76850586 57.69459473 83.32299805 58.61938477 C84.57337165 61.71882276 84.39934534 63.01781416 83.34838867 66.16113281 C82.171875 68.64282227 82.171875 68.64282227 80.68041992 71.27441406 C80.12427002 72.26231934 79.56812012 73.25022461 78.99511719 74.26806641 C78.38982178 75.32590332 77.78452637 76.38374023 77.16088867 77.47363281 C76.53303467 78.58303223 75.90518066 79.69243164 75.25830078 80.83544922 C70.4771545 89.25718635 65.59550242 97.61958297 60.68725586 105.96777344 C55.49466076 114.83034482 50.5103514 123.80185223 45.58496094 132.81494141 C42.72331133 138.02175743 39.80540838 143.18894915 36.71948242 148.26660156 C36.19153076 149.13824951 35.6635791 150.00989746 35.11962891 150.90795898 C32.56806213 154.15377701 29.91968078 155.92210434 25.7999115 156.54881287 C24.89930496 156.55421585 23.99869843 156.55961884 23.07080078 156.56518555 C21.52911476 156.58421181 21.52911476 156.58421181 19.95628357 156.60362244 C18.85720169 156.6006868 17.75811981 156.59775116 16.62573242 156.59472656 C14.91928307 156.60258934 14.91928307 156.60258934 13.17835999 156.61061096 C10.77695532 156.61702613 8.37551921 156.61570074 5.97412109 156.60717773 C2.2955762 156.59865526 -1.38142242 156.62745881 -5.05981445 156.65917969 C-7.39379836 156.66079145 -9.72778503 156.66021465 -12.06176758 156.65722656 C-13.16287369 156.66846054 -14.2639798 156.67969452 -15.39845276 156.69126892 C-16.42309128 156.68188797 -17.4477298 156.67250702 -18.50341797 156.6628418 C-19.40322891 156.66267563 -20.30303986 156.66250946 -21.2301178 156.66233826 C-24.43979492 155.99799304 -25.65447329 154.71090846 -27.65161133 152.16113281 C-28.03640086 144.98152326 -23.55306107 138.99130996 -20.08911133 132.97363281 C-19.41246001 131.77967283 -18.73677896 130.5851625 -18.06201172 129.39013672 C-16.2922798 126.26280329 -14.50890803 123.14349069 -12.72094727 120.02655029 C-11.34106669 117.61939903 -9.96654149 115.20921316 -8.59213257 112.79893494 C-6.26434111 108.71692488 -3.93353704 104.63664391 -1.59838867 100.55883789 C3.05147106 92.43844724 7.68749761 84.31079781 12.28588867 76.16113281 C12.88344971 75.11038574 13.48101074 74.05963867 14.09667969 72.97705078 C14.91543579 71.52129639 14.91543579 71.52129639 15.75073242 70.03613281 C16.23018311 69.18792969 16.70963379 68.33972656 17.20361328 67.46582031 C18.7400088 64.44048023 18.7400088 64.44048023 19.34838867 61.16113281 C18.21183495 58.45507738 18.21183495 58.45507738 16.40307617 55.63769531 C15.74380127 54.54432861 15.08452637 53.45096191 14.40527344 52.32446289 C14.04926056 51.74725494 13.69324768 51.170047 13.32644653 50.5753479 C12.21626248 48.77457377 11.12211245 46.96492731 10.03173828 45.15209961 C7.15419728 40.37639121 4.24484345 35.62044256 1.32641602 30.86962891 C0.08576261 28.84748158 -1.14984778 26.82222884 -2.37963867 24.79345703 C-3.49087161 22.9604464 -4.61428382 21.13474495 -5.75170898 19.31787109 C-8.87777087 14.15460034 -10.5229931 10.24003658 -10.65161133 4.16113281 C-8.12272055 0.2413521 -4.3613454 0.03596723 0 0 Z " fill="#37B6FF" transform="translate(51.651611328125,97.8388671875)"/>
<path d="M0 0 C9.57 0 19.14 0 29 0 C34.08990627 6.99862112 38.94077295 13.87445068 43.5 21.1875 C51.1122784 33.27463439 59.04291127 45.13819557 67 57 C70.96 62.94 70.96 62.94 75 69 C75.33 46.23 75.66 23.46 76 0 C85.57 0 95.14 0 105 0 C105 38.61 105 77.22 105 117 C95.1 117 85.2 117 75 117 C64.78609651 104.84059108 64.78609651 104.84059108 61.74609375 98.734375 C57.24579434 90.07328459 51.89918687 82.04071975 46.47290039 73.93847656 C40.93361744 65.65776833 35.47511212 57.32327651 30 49 C29.67 71.44 29.34 93.88 29 117 C19.43 117 9.86 117 0 117 C0 78.39 0 39.78 0 0 Z " fill="#181818" transform="translate(962,132)"/>
<path d="M0 0 C9.57 0 19.14 0 29 0 C34.08990627 6.99862112 38.94077295 13.87445068 43.5 21.1875 C51.1122784 33.27463439 59.04291127 45.13819557 67 57 C70.96 62.94 70.96 62.94 75 69 C75.33 46.23 75.66 23.46 76 0 C85.57 0 95.14 0 105 0 C105 38.61 105 77.22 105 117 C95.1 117 85.2 117 75 117 C64.78609651 104.84059108 64.78609651 104.84059108 61.74609375 98.734375 C57.24579434 90.07328459 51.89918687 82.04071975 46.47290039 73.93847656 C40.93361744 65.65776833 35.47511212 57.32327651 30 49 C29.67 71.44 29.34 93.88 29 117 C19.43 117 9.86 117 0 117 C0 78.39 0 39.78 0 0 Z " fill="#181818" transform="translate(461,132)"/>
<path d="M0 0 C68.86987179 0 68.86987179 0 82.43359375 12.2734375 C89.60469954 20.17774862 91.47636827 29.62838084 91.2421875 39.984375 C90.51660333 49.01906818 87.03842148 56.25186039 81 63 C76.345556 66.91782764 71.80266398 69.20175693 66 71 C73.19388716 83.84330386 80.47544438 96.622594 88.03588867 109.25439453 C88.55642822 110.12692871 89.07696777 110.99946289 89.61328125 111.8984375 C90.07516846 112.66849121 90.53705566 113.43854492 91.01293945 114.23193359 C92 116 92 116 92 117 C80.78 117 69.56 117 58 117 C56.618125 114.339375 55.23625 111.67875 53.8125 108.9375 C49.12748166 99.96581386 44.17776679 91.15670175 39.11645508 82.39233398 C38.58044678 81.45719971 38.04443848 80.52206543 37.4921875 79.55859375 C37.01120605 78.72642334 36.53022461 77.89425293 36.03466797 77.03686523 C35 75 35 75 35 73 C33.02 73 31.04 73 29 73 C29 87.52 29 102.04 29 117 C19.43 117 9.86 117 0 117 C0 78.39 0 39.78 0 0 Z M29 24 C29 33.57 29 43.14 29 53 C44.33492191 54.05232584 44.33492191 54.05232584 58 48.5625 C61.50517332 44.07149669 61.67692281 39.49999783 61 34 C58.78432289 29.56864579 56.51936887 27.04447639 52 25 C47.01287259 23.9099991 42.19720144 23.88205806 37.125 23.9375 C34.44375 23.958125 31.7625 23.97875 29 24 Z " fill="#181818" transform="translate(708,132)"/>
<path d="M0 0 C11.22 0 22.44 0 34 0 C40.00860625 15.93406529 45.88516536 31.90505728 51.625 47.9375 C56.21317021 60.73363229 60.81053284 73.52573616 65.5 86.28515625 C65.85242767 87.24453598 66.20485535 88.20391571 66.56796265 89.19236755 C68.23404904 93.72499721 69.90454209 98.25594818 71.58056641 102.78491211 C72.1709768 104.38782921 72.76131334 105.99077352 73.3515625 107.59375 C73.62250732 108.3214711 73.89345215 109.0491922 74.17260742 109.79896545 C76 114.77349626 76 114.77349626 76 117 C65.77 117 55.54 117 45 117 C42.49330399 110.73325997 40.13437475 104.40312424 38 98 C23.81 97.67 9.62 97.34 -5 97 C-5.66 99.97 -6.32 102.94 -7 106 C-8.32 109.63 -9.64 113.26 -11 117 C-21.23 117 -31.46 117 -42 117 C-38.62460988 105.7486996 -38.62460988 105.7486996 -37.07739258 101.42236328 C-36.72828827 100.44244919 -36.37918396 99.4625351 -36.01950073 98.45292664 C-35.46264084 96.90228264 -35.46264084 96.90228264 -34.89453125 95.3203125 C-34.49783234 94.20956863 -34.10113342 93.09882477 -33.69241333 91.954422 C-32.40183922 88.34363106 -31.10737549 84.73425043 -29.8125 81.125 C-29.14220194 79.25298441 -28.4719046 77.38096855 -27.80174732 75.50890255 C-21.88131204 58.97273824 -15.92805985 42.44839189 -9.9375 25.9375 C-9.4354454 24.55126434 -9.4354454 24.55126434 -8.92324829 23.13702393 C-7.98102522 20.53714131 -7.03595326 17.93831421 -6.08984375 15.33984375 C-5.81882843 14.59128616 -5.54781311 13.84272858 -5.26858521 13.07148743 C-5.0122934 12.36976913 -4.75600159 11.66805084 -4.49194336 10.94506836 C-4.27469101 10.34786484 -4.05743866 9.75066132 -3.83360291 9.13536072 C-2.63268374 6.05908113 -1.30087058 3.03536468 0 0 Z M16 35 C14.14666022 40.39280925 12.29529903 45.78629198 10.44580078 51.18041992 C9.81581641 53.01687153 9.18528346 54.85313505 8.55419922 56.68920898 C7.64928577 59.32226563 6.74632156 61.95598357 5.84375 64.58984375 C5.55939087 65.41588608 5.27503174 66.24192841 4.98205566 67.09300232 C3.60880606 70.47506058 3.60880606 70.47506058 3 74 C11.91 74 20.82 74 30 74 C28.31301134 66.40855104 26.22065522 59.29555569 23.68652344 51.98583984 C22.99282344 49.97924105 22.31253399 47.96840223 21.6328125 45.95703125 C21.19350624 44.67941286 20.75343073 43.40205866 20.3125 42.125 C19.91675781 40.97257812 19.52101563 39.82015625 19.11328125 38.6328125 C18.28097817 35.86980864 18.28097817 35.86980864 16 35 Z " fill="#181818" transform="translate(862,132)"/>
<path d="M0 0 C23.82892482 -4.50176535 23.82892482 -4.50176535 34 0 C44.31945544 7.74056218 50.4648696 21.67042263 56 33 C58.95425414 29.47399406 61.33628157 25.89513644 63.6015625 21.89453125 C64.0853688 21.04661263 64.0853688 21.04661263 64.57894897 20.18156433 C65.59839728 18.39416994 66.612225 16.60368286 67.625 14.8125 C68.9675616 12.44180219 70.3146422 10.07385046 71.6640625 7.70703125 C72.55279053 6.13659058 72.55279053 6.13659058 73.45947266 4.53442383 C75 2 75 2 77 0 C79.50920846 -0.17495606 81.90624941 -0.23169569 84.4140625 -0.1953125 C85.14370209 -0.1924826 85.87334167 -0.18965271 86.62509155 -0.18673706 C88.95856028 -0.17553002 91.29164703 -0.1504251 93.625 -0.125 C95.20572363 -0.11497085 96.78645327 -0.10584489 98.3671875 -0.09765625 C102.24493914 -0.07558905 106.12240478 -0.04105615 110 0 C106.99352502 6.32018099 103.48991788 12.12997413 99.6875 18 C98.44450397 19.93698139 97.20234782 21.87450194 95.9609375 23.8125 C95.31608398 24.81796875 94.67123047 25.8234375 94.00683594 26.859375 C90.58030227 32.22177514 87.19266837 37.60828992 83.8125 43 C82.85960083 44.51207031 82.85960083 44.51207031 81.88745117 46.0546875 C81.2916626 47.00601563 80.69587402 47.95734375 80.08203125 48.9375 C79.55843018 49.77152344 79.0348291 50.60554688 78.49536133 51.46484375 C76.85399822 54.24752367 75.41455543 57.09639714 74 60 C74.34554932 60.51205994 74.69109863 61.02411987 75.04711914 61.55169678 C78.68204083 66.93832868 82.31649167 72.32527806 85.95068359 77.71240234 C87.30245374 79.7160626 88.65433922 81.71964505 90.00634766 83.72314453 C93.21361126 88.4759631 96.41935737 93.22978406 99.62109375 97.98632812 C101.64694805 100.9957739 103.67897924 104.00067974 105.72265625 106.99804688 C106.45355469 108.07634766 107.18445312 109.15464844 107.9375 110.265625 C108.54464844 111.15540039 109.15179687 112.04517578 109.77734375 112.96191406 C111 115 111 115 111 117 C106.30483354 117.27373157 101.61437711 117.47227019 96.91308594 117.60424805 C95.31786178 117.6592836 93.72318557 117.73415048 92.12988281 117.82983398 C78.95560577 118.60066934 78.95560577 118.60066934 74.30566406 114.79467773 C72.22204929 111.95979261 70.59118628 109.13433577 69 106 C68.07132933 104.53656981 67.13004388 103.08100734 66.171875 101.63671875 C65.36025661 100.32297569 64.55283372 99.00662974 63.75 97.6875 C62.93315516 96.35754218 62.11545941 95.02810658 61.296875 93.69921875 C60.91466797 93.07837402 60.53246094 92.4575293 60.13867188 91.81787109 C58.48189423 89.17285258 56.74780083 86.58562279 55 84 C52.26311825 86.45810146 50.60856088 89.15043396 48.78515625 92.33203125 C48.18123047 93.37810547 47.57730469 94.42417969 46.95507812 95.50195312 C46.01825195 97.14067383 46.01825195 97.14067383 45.0625 98.8125 C43.82596302 100.96584632 42.58773063 103.11822011 41.34765625 105.26953125 C40.80117432 106.22448486 40.25469238 107.17943848 39.69165039 108.16333008 C39.13340576 109.09943115 38.57516113 110.03553223 38 111 C37.42789795 112.09610596 36.8557959 113.19221191 36.26635742 114.3215332 C34 117 34 117 30.51660156 117.68115234 C29.1409102 117.68020828 27.76497699 117.64663512 26.390625 117.5859375 C25.66381531 117.57744781 24.93700562 117.56895813 24.18817139 117.56021118 C21.87391879 117.52670601 19.56319295 117.45144932 17.25 117.375 C15.67843587 117.34489589 14.10681692 117.31752083 12.53515625 117.29296875 C8.68875187 117.2269265 4.84497309 117.12343921 1 117 C2.19118372 113.8541751 3.47425563 111.02754846 5.29296875 108.19921875 C5.75098877 107.48121094 6.20900879 106.76320313 6.6809082 106.0234375 C7.1780835 105.25257813 7.67525879 104.48171875 8.1875 103.6875 C9.26889841 101.99391672 10.34959297 100.29988388 11.4296875 98.60546875 C12.00557617 97.7036084 12.58146484 96.80174805 13.17480469 95.87255859 C17.04228239 89.7857819 20.84416041 83.65772369 24.65893555 77.5378418 C28.73707307 71.0023011 32.85558512 64.49369442 37 58 C32.46561059 50.79418446 27.8094647 43.69027921 23.0078125 36.66015625 C21.71328809 34.75472955 20.41902455 32.84912558 19.125 30.94335938 C17.11301417 27.98343768 15.09924779 25.02478526 13.08105469 22.0690918 C11.11386414 19.1863281 9.15402008 16.29868796 7.1953125 13.41015625 C6.2844841 12.0820266 6.2844841 12.0820266 5.35525513 10.72706604 C4.79732269 9.90198044 4.23939026 9.07689484 3.66455078 8.22680664 C3.17270294 7.50497696 2.6808551 6.78314728 2.17410278 6.03944397 C1.00630434 4.01095078 0.43948172 2.28768196 0 0 Z " fill="#181818" transform="translate(1194,132)"/>
<path d="M0 0 C23.76 0 47.52 0 72 0 C72 7.92 72 15.84 72 24 C57.81 24 43.62 24 29 24 C29 31.26 29 38.52 29 46 C41.54 46 54.08 46 67 46 C67 53.59 67 61.18 67 69 C54.46 69 41.92 69 29 69 C29 77.25 29 85.5 29 94 C43.19 94 57.38 94 72 94 C72 101.59 72 109.18 72 117 C48.24 117 24.48 117 0 117 C0 78.39 0 39.78 0 0 Z " fill="#181818" transform="translate(1099,132)"/>
<path d="M0 0 C30.03 0 60.06 0 91 0 C91 7.92 91 15.84 91 24 C80.77 24 70.54 24 60 24 C60 54.69 60 85.38 60 117 C50.43 117 40.86 117 31 117 C31 86.31 31 55.62 31 24 C20.77 24 10.54 24 0 24 C0 16.08 0 8.16 0 0 Z " fill="#181818" transform="translate(591,132)"/>
<path d="M0 0 C9.57 0 19.14 0 29 0 C29 38.61 29 77.22 29 117 C19.43 117 9.86 117 0 117 C0 78.39 0 39.78 0 0 Z " fill="#181818" transform="translate(400,132)"/>
<path d="M0 0 C0.99 0.33 1.98 0.66 3 1 C3 113.2 3 225.4 3 341 C1.68 341 0.36 341 -1 341 C-2.72742073 339.27257927 -2.1270165 336.95882573 -2.12863445 334.60386753 C-2.13347112 332.8366495 -2.13347112 332.8366495 -2.1384055 331.03373009 C-2.1368569 329.72286665 -2.1353083 328.4120032 -2.13371277 327.06141663 C-2.13557891 325.6677958 -2.13787882 324.2741755 -2.14057809 322.88055605 C-2.14672685 319.03293874 -2.14655891 315.18534305 -2.14538372 311.33772194 C-2.14518048 307.19519151 -2.15069104 303.05266816 -2.15544128 298.91014099 C-2.16376517 290.78751693 -2.16649691 282.66490012 -2.16705366 274.54227216 C-2.16752799 267.94334088 -2.16957857 261.34441201 -2.17275429 254.74548149 C-2.18156552 236.05743515 -2.18617292 217.36939456 -2.18542381 198.68134613 C-2.18538386 197.67283247 -2.1853439 196.66431882 -2.18530273 195.62524414 C-2.18526185 194.61550647 -2.18522097 193.6057688 -2.18517885 192.56543302 C-2.18477223 176.19359286 -2.19434474 159.82177569 -2.2084411 143.44994218 C-2.22278384 126.66017497 -2.22971245 109.87041899 -2.22884732 93.0806455 C-2.22851463 83.64612606 -2.23129328 74.21163072 -2.24202538 64.77711678 C-2.25110278 56.74543385 -2.25332848 48.71378594 -2.24651595 40.68210012 C-2.24323673 36.58065621 -2.24324417 32.47927958 -2.2518692 28.37784195 C-2.25967373 24.62816212 -2.25836547 20.87860358 -2.24958507 17.12892693 C-2.24729926 15.11928551 -2.2549259 13.10964051 -2.26282471 11.10001332 C-2.25822592 9.91926021 -2.25362712 8.73850711 -2.24888897 7.52197361 C-2.24910634 6.49651135 -2.24932371 5.47104909 -2.24954766 4.41451222 C-2 2 -2 2 0 0 Z " fill="#131313" transform="translate(338,21)"/>
</svg>
