<?xml version="1.0" encoding="UTF-8"?>
<svg version="1.1" xmlns="http://www.w3.org/2000/svg" width="374" height="84">
<path d="M0 0 C0.8146875 0.00257812 1.629375 0.00515625 2.46875 0.0078125 C3.2834375 0.00523438 4.098125 0.00265625 4.9375 0 C6.96875 0.1328125 6.96875 0.1328125 7.96875 1.1328125 C8.04080511 2.81890216 8.05261068 4.50781909 8.03125 6.1953125 C8.02222656 7.11441406 8.01320312 8.03351562 8.00390625 8.98046875 C7.99230469 9.69074219 7.98070312 10.40101562 7.96875 11.1328125 C8.59523437 11.12121094 9.22171875 11.10960937 9.8671875 11.09765625 C10.68445313 11.08863281 11.50171875 11.07960938 12.34375 11.0703125 C13.15585938 11.05871094 13.96796875 11.04710937 14.8046875 11.03515625 C16.96875 11.1328125 16.96875 11.1328125 18.96875 12.1328125 C21.25925112 11.91984371 23.50612313 11.55435254 25.77734375 11.19140625 C27.96875 11.1328125 27.96875 11.1328125 30.96875 13.1328125 C32.98559563 12.51898992 34.98518517 11.84689584 36.96875 11.1328125 C39.84375 11.0078125 39.84375 11.0078125 41.96875 11.1328125 C42.65582555 13.62346138 42.96875 15.51167542 42.96875 18.1328125 C43.62875 18.1328125 44.28875 18.1328125 44.96875 18.1328125 C45.2471875 17.2665625 45.2471875 17.2665625 45.53125 16.3828125 C47.64207969 13.07890515 50.37410394 11.46972071 53.96875 10.1328125 C60.46664556 8.98679917 64.61241592 10.48594675 69.96875 14.1328125 C69.96875 13.4728125 69.96875 12.8128125 69.96875 12.1328125 C74.42375 11.6378125 74.42375 11.6378125 78.96875 11.1328125 C80.02936259 15.37883394 80.00410509 19.2579094 79.84765625 23.62109375 C79.81223976 24.6758918 79.81223976 24.6758918 79.77610779 25.7519989 C79.6999407 27.98333322 79.61571693 30.2142785 79.53125 32.4453125 C79.47798218 33.96417409 79.42524215 35.4830543 79.37304688 37.00195312 C79.2443901 40.71247459 79.10850943 44.42269074 78.96875 48.1328125 C76.32875 48.1328125 73.68875 48.1328125 70.96875 48.1328125 C70.63875 47.1428125 70.30875 46.1528125 69.96875 45.1328125 C69.205625 45.7928125 68.4425 46.4528125 67.65625 47.1328125 C63.12776318 50.15538922 58.20195212 49.77233944 52.96875 49.1328125 C47.3677502 47.19792166 44.51520696 44.06294148 41.78125 38.8828125 C39.79555057 32.16198366 39.58107924 26.7340199 41.96875 20.1328125 C40.52497465 20.50510677 39.08875903 20.90678118 37.65625 21.3203125 C36.85574219 21.54074219 36.05523437 21.76117188 35.23046875 21.98828125 C32.04917405 23.59815922 31.30637863 24.80589001 29.96875 28.1328125 C29.62212371 31.58098737 29.68586133 34.98441571 29.78125 38.4453125 C29.79478516 39.37666016 29.80832031 40.30800781 29.82226562 41.26757812 C29.8574758 43.55623962 29.91127866 45.84460179 29.96875 48.1328125 C26.66875 48.1328125 23.36875 48.1328125 19.96875 48.1328125 C19.63875 38.5628125 19.30875 28.9928125 18.96875 19.1328125 C18.47375 19.6278125 18.47375 19.6278125 17.96875 20.1328125 C16.28266034 20.20486761 14.59374341 20.21667318 12.90625 20.1953125 C11.98714844 20.18628906 11.06804687 20.17726563 10.12109375 20.16796875 C9.41082031 20.15636719 8.70054687 20.14476563 7.96875 20.1328125 C7.86087182 22.90468238 7.78151673 25.67236787 7.71875 28.4453125 C7.68523437 29.23099609 7.65171875 30.01667969 7.6171875 30.82617188 C7.43818942 35.4050543 7.43818942 35.4050543 9.75 39.1640625 C12.87224175 40.52729482 15.60769682 40.32671941 18.96875 40.1328125 C19.01116723 42.46576025 19.00967937 44.79983817 18.96875 47.1328125 C17.11584648 48.98571602 14.20250369 48.34939877 11.71875 48.3828125 C10.57921875 48.40859375 9.4396875 48.434375 8.265625 48.4609375 C4.59703667 48.09581733 2.815871 47.45493247 -0.03125 45.1328125 C-2.68163328 40.7071725 -2.69800458 35.35725602 -3.15625 30.3203125 C-3.24261719 29.43666016 -3.32898438 28.55300781 -3.41796875 27.64257812 C-3.62903444 25.47329192 -3.83104426 23.30312792 -4.03125 21.1328125 C-6.01125 20.8028125 -7.99125 20.4728125 -10.03125 20.1328125 C-9.85722656 20.88820313 -9.68320313 21.64359375 -9.50390625 22.421875 C-8.85722412 27.49913143 -9.18254879 32.40882545 -9.46875 37.5078125 C-9.52095703 38.53003906 -9.57316406 39.55226562 -9.62695312 40.60546875 C-9.75594487 43.11494446 -9.89087858 45.6239519 -10.03125 48.1328125 C-11.51031892 48.15970466 -12.98952483 48.17915871 -14.46875 48.1953125 C-15.70431641 48.21271484 -15.70431641 48.21271484 -16.96484375 48.23046875 C-19.03125 48.1328125 -19.03125 48.1328125 -20.03125 47.1328125 C-20.0575145 45.55469119 -20.01919058 43.97539407 -19.953125 42.3984375 C-19.92734375 41.43164062 -19.9015625 40.46484375 -19.875 39.46875 C-19.81295791 37.42653134 -19.7350661 35.38472701 -19.640625 33.34375 C-19.47733921 27.22080795 -19.47733921 27.22080795 -22.3515625 21.9296875 C-24.92610297 19.84274303 -24.92610297 19.84274303 -28.15625 20.1328125 C-31.01561501 21.12737424 -32.26908385 21.72142724 -34.03125 24.1328125 C-34.98293683 26.98787299 -35.2213446 29.04218532 -35.34765625 32.01953125 C-35.38955078 32.95732422 -35.43144531 33.89511719 -35.47460938 34.86132812 C-35.51392578 35.83779297 -35.55324219 36.81425781 -35.59375 37.8203125 C-35.63693359 38.80837891 -35.68011719 39.79644531 -35.72460938 40.81445312 C-35.83066542 43.25374222 -35.93145974 45.69325904 -36.03125 48.1328125 C-39.00125 48.1328125 -41.97125 48.1328125 -45.03125 48.1328125 C-46.0385526 44.10360209 -46.14533767 40.88290515 -46.12890625 36.7421875 C-46.1274913 36.03757385 -46.12607635 35.33296021 -46.12461853 34.60699463 C-46.11903933 32.36555666 -46.10649073 30.12422007 -46.09375 27.8828125 C-46.08873231 26.35937645 -46.08416987 24.83593882 -46.08007812 23.3125 C-46.06907674 19.58590478 -46.05182646 15.85936854 -46.03125 12.1328125 C-42.77656799 11.0479185 -40.4416476 10.91966265 -37.03125 11.1328125 C-36.04125 11.7928125 -35.05125 12.4528125 -34.03125 13.1328125 C-33.391875 12.6378125 -32.7525 12.1428125 -32.09375 11.6328125 C-27.94287642 9.59973157 -24.57348352 9.30558454 -20.03125 10.1328125 C-17.08428503 11.45016439 -14.43768154 12.96899123 -12.03125 15.1328125 C-12.03125 15.7928125 -12.03125 16.4528125 -12.03125 17.1328125 C-11.37125 17.1328125 -10.71125 17.1328125 -10.03125 17.1328125 C-10.03125 15.4828125 -10.03125 13.8328125 -10.03125 12.1328125 C-7.72125 12.1328125 -5.41125 12.1328125 -3.03125 12.1328125 C-3.04285156 11.35035156 -3.05445313 10.56789063 -3.06640625 9.76171875 C-3.07542969 8.74980469 -3.08445313 7.73789062 -3.09375 6.6953125 C-3.10535156 5.68597656 -3.11695313 4.67664063 -3.12890625 3.63671875 C-2.99470535 0.19580766 -2.99470535 0.19580766 0 0 Z M51.96875 23.1328125 C49.61632653 26.34066268 49.5003291 29.22930502 49.96875 33.1328125 C51.74403226 36.55187463 53.07223435 38.60409814 56.40625 40.5703125 C59.47112866 41.24309074 61.02089962 41.23825639 63.96875 40.1328125 C66.74585814 37.86063312 68.58116841 36.11468586 69.90625 32.7578125 C69.99362456 29.08808114 69.38826189 26.52729746 67.96875 23.1328125 C61.87151082 17.96341407 58.14237331 18.30128121 51.96875 23.1328125 Z " fill="#1815DB" transform="translate(169.03125,11.8671875)"/>
<path d="M0 0 C3.7528186 0.81737526 6.43543828 2.69152965 9.0625 5.44921875 C11.36834497 9.86875494 11.47793952 13.73940091 10.0625 18.44921875 C8.00729925 22.69408691 5.60674443 26.71584227 3.1875 30.76171875 C2.50466321 31.91828353 1.82253996 33.07526987 1.14111328 34.23266602 C-0.22625739 36.54973799 -1.60118109 38.86206957 -2.98242188 41.17089844 C-4.74140891 44.12040867 -6.47632143 47.08236485 -8.203125 50.05078125 C-9.15494725 51.66352999 -10.10797972 53.27556539 -11.0625 54.88671875 C-11.48644043 55.61866455 -11.91038086 56.35061035 -12.34716797 57.10473633 C-14.70793369 61.01908381 -16.60210615 63.55907135 -20.9375 65.44921875 C-26.14385305 66.01718454 -29.5546637 65.33790631 -33.9375 62.44921875 C-36.9947866 58.98429393 -37.60535283 55.57093478 -37.39428711 51.06982422 C-36.86574917 48.03758145 -35.82519426 46.004241 -34.3046875 43.33203125 C-33.76046143 42.3692627 -33.21623535 41.40649414 -32.65551758 40.41455078 C-31.80509888 38.94671143 -31.80509888 38.94671143 -30.9375 37.44921875 C-30.40987061 36.53382324 -29.88224121 35.61842773 -29.33862305 34.67529297 C-25.5940532 28.23377904 -21.7662574 21.8409456 -17.9375 15.44921875 C-17.34557861 14.45486816 -17.34557861 14.45486816 -16.74169922 13.44042969 C-15.81792201 11.89509054 -14.87865984 10.35903326 -13.9375 8.82421875 C-13.463125 8.04820313 -12.98875 7.2721875 -12.5 6.47265625 C-9.02773647 1.97607497 -5.84946583 -0.32127748 0 0 Z " fill="#1B18F7" transform="translate(76.9375,11.55078125)"/>
<path d="M0 0 C0.639375 0.33 1.27875 0.66 1.9375 1 C1.9375 1.66 1.9375 2.32 1.9375 3 C2.535625 3.2475 3.13375 3.495 3.75 3.75 C7.25736313 5.7542075 8.56785055 8.16828874 10.1875 11.8125 C11.07891363 15.60100795 10.87885844 18.23456625 9.9375 22 C8.9475 22.66 7.9575 23.32 6.9375 24 C7.9275 24.33 8.9175 24.66 9.9375 25 C9.9375 27.625 9.9375 27.625 8.9375 31 C2.80271543 36.98347822 -2.63466656 38.36871291 -11.05078125 38.27734375 C-16.71302478 37.75591795 -20.17601592 35.19837033 -23.9375 31 C-27.64713032 25.76287485 -27.71435628 20.27293577 -27.0625 14 C-25.21349353 7.3106008 -20.90729152 3.46846971 -15.0625 0 C-10.06597926 -1.66550691 -5.00477317 -1.63421165 0 0 Z M-16.0625 13 C-15.7325 13.33 -15.4025 13.66 -15.0625 14 C-12.70555046 13.90968426 -10.35096418 13.75311872 -8 13.5625 C-6.06447266 13.40974609 -6.06447266 13.40974609 -4.08984375 13.25390625 C-3.09082031 13.17011719 -2.09179688 13.08632813 -1.0625 13 C-1.73784517 9.96154763 -1.73784517 9.96154763 -3.8125 8.8125 C-9.77736618 6.65852055 -11.9904791 8.34626183 -16.0625 13 Z M-16.0625 22 C-15.79215366 24.43717258 -15.79215366 24.43717258 -15.0625 27 C-11.39629707 29.44413529 -8.32342284 29.84555278 -4.0625 29 C-1.03840636 26.72872666 -1.03840636 26.72872666 0.9375 24 C0.9375 23.67 0.9375 23.34 0.9375 23 C-2.89974172 22.09586327 -6.43752274 21.89423102 -10.375 21.9375 C-11.97794922 21.95103516 -11.97794922 21.95103516 -13.61328125 21.96484375 C-14.42152344 21.97644531 -15.22976563 21.98804687 -16.0625 22 Z " fill="#1A17F2" transform="translate(318.0625,23)"/>
<path d="M0 0 C5.4393432 2.56572792 7.474523 5.76197363 10 11 C11.23782626 15.09403697 11.1468656 19.13307363 11.125 23.375 C11.13080078 24.48875 11.13080078 24.48875 11.13671875 25.625 C11.12923668 29.8598522 10.83418021 33.82909897 10 38 C7.03 38 4.06 38 1 38 C0.9498877 37.32420898 0.89977539 36.64841797 0.84814453 35.95214844 C0.61574397 32.88403941 0.37051349 29.81708639 0.125 26.75 C0.04636719 25.68652344 -0.03226562 24.62304688 -0.11328125 23.52734375 C-0.19707031 22.50253906 -0.28085937 21.47773437 -0.3671875 20.421875 C-0.44050293 19.47924805 -0.51381836 18.53662109 -0.58935547 17.56542969 C-1.00759236 14.95256806 -1.53745172 13.20102554 -3 11 C-6.13005815 10.04737361 -8.12350845 9.70783615 -11.25 10.75 C-13.29017165 12.05104872 -13.29017165 12.05104872 -15 15 C-15.36696181 17.51502177 -15.36696181 17.51502177 -15.4140625 20.32421875 C-15.47207031 21.86625977 -15.47207031 21.86625977 -15.53125 23.43945312 C-15.5621875 24.51130859 -15.593125 25.58316406 -15.625 26.6875 C-15.68300781 28.31268555 -15.68300781 28.31268555 -15.7421875 29.97070312 C-15.83650116 32.64685334 -15.91934126 35.32340342 -16 38 C-19.3 38 -22.6 38 -26 38 C-26 26.12 -26 14.24 -26 2 C-22.66507467 1.16626867 -20.36512103 0.73433255 -17 1 C-16.34 1.66 -15.68 2.32 -15 3 C-14.195625 2.505 -13.39125 2.01 -12.5625 1.5 C-8.16568152 -0.35129199 -4.70345908 -0.74309587 0 0 Z " fill="#1B18F6" transform="translate(279,22)"/>
<path d="M0 0 C3.54113396 -0.70537678 6.49192104 -0.95212012 10 0 C13.01699277 3.32452455 15.03033842 6.98241213 17 11 C17.30550781 10.28972656 17.61101562 9.57945313 17.92578125 8.84765625 C19.406584 5.87353692 20.7707294 3.47368968 23 1 C26.71725281 -0.15749848 30.13172704 -0.23402363 34 0 C34 3.80286295 32.77188575 5.22468614 30.6875 8.375 C28.38517086 11.87917391 26.13326281 15.38986293 24 19 C24.49371094 19.67546875 24.98742187 20.3509375 25.49609375 21.046875 C26.13675781 21.93890625 26.77742188 22.8309375 27.4375 23.75 C28.07558594 24.63171875 28.71367187 25.5134375 29.37109375 26.421875 C31 29 31 29 31.53515625 31.265625 C31.68855469 31.83796875 31.84195313 32.4103125 32 33 C32.99 33.33 33.98 33.66 35 34 C35 34.99 35 35.98 35 37 C30.8501683 37.60434442 27.11918207 37.89091724 23 37 C20.15028144 34.02501908 18.54516951 30.79515318 17 27 C13.99564993 30.61798832 13.99564993 30.61798832 11.9375 34.8125 C10 37 10 37 7.3671875 37.3125 C4.56139808 37.3125 1.7971147 37.21370146 -1 37 C0.88623931 31.236491 3.2013132 27.02259557 6.98828125 22.2734375 C8.28427268 19.95756712 8.28427268 19.95756712 7.3984375 17.1171875 C5.41861258 12.7040582 2.91007387 8.71282443 0.36328125 4.609375 C-0.31154297 3.31773438 -0.31154297 3.31773438 -1 2 C-0.67 1.34 -0.34 0.68 0 0 Z " fill="#1B17F3" transform="translate(328,23)"/>
<path d="M0 0 C5.06715354 0.67155047 7.65690657 2.83140873 10.79296875 6.69921875 C12.74255726 11.35656908 12.46373199 14.96773432 10.66796875 19.63671875 C8.43270079 23.14928269 6.98676038 24.87741699 2.87109375 25.890625 C-2.31211309 26.7168073 -5.61943028 26.46803847 -10.08203125 23.38671875 C-13.43598679 20.15254733 -14.59789643 15.93079121 -15.08203125 11.38671875 C-13.46718052 1.69761435 -9.18477389 -0.32443172 0 0 Z " fill="#1C17F4" transform="translate(29.08203125,11.61328125)"/>
<path d="M0 0 C2.31 0 4.62 0 7 0 C7 3.3 7 6.6 7 10 C8.629375 9.979375 10.25875 9.95875 11.9375 9.9375 C13.62499341 9.91613932 15.31391034 9.92794489 17 10 C18 11 18 11 18.0625 14.0625 C18.041875 15.031875 18.02125 16.00125 18 17 C17.04287109 17.07347656 17.04287109 17.07347656 16.06640625 17.1484375 C15.24011719 17.22320313 14.41382813 17.29796875 13.5625 17.375 C12.73878906 17.44460937 11.91507813 17.51421875 11.06640625 17.5859375 C10.38449219 17.72257812 9.70257813 17.85921875 9 18 C7.8517315 20.296537 7.88438825 21.58313167 7.90234375 24.1328125 C7.90556641 24.93847656 7.90878906 25.74414062 7.91210938 26.57421875 C7.92048828 27.41597656 7.92886719 28.25773437 7.9375 29.125 C7.94201172 29.97449219 7.94652344 30.82398437 7.95117188 31.69921875 C7.96297126 33.79950909 7.98090694 35.8997633 8 38 C6.68 38 5.36 38 4 38 C3.67 38.66 3.34 39.32 3 40 C2.34 39.67 1.68 39.34 1 39 C0.97494385 38.36908447 0.9498877 37.73816895 0.92407227 37.08813477 C0.80845863 34.24603175 0.68557684 31.40428917 0.5625 28.5625 C0.52318359 27.56927734 0.48386719 26.57605469 0.44335938 25.55273438 C0.38051758 24.13637695 0.38051758 24.13637695 0.31640625 22.69140625 C0.27974854 21.81685791 0.24309082 20.94230957 0.20532227 20.04125977 C0.21818934 18.0072598 0.21818934 18.0072598 -1 17 C-3.32817964 16.63239269 -5.6618385 16.29758419 -8 16 C-8 14.35 -8 12.7 -8 11 C-4.535 10.505 -4.535 10.505 -1 10 C-0.67 6.7 -0.34 3.4 0 0 Z " fill="#1B18F9" transform="translate(168,14)"/>
<path d="M0 0 C0.721875 0.00257812 1.44375 0.00515625 2.1875 0.0078125 C2.909375 0.00523438 3.63125 0.00265625 4.375 0 C6.1875 0.1328125 6.1875 0.1328125 7.1875 1.1328125 C7.27605161 3.7990728 7.30274673 6.43928364 7.28515625 9.10546875 C7.2837413 9.90311142 7.28232635 10.70075409 7.28086853 11.52256775 C7.27525316 14.08018685 7.26269812 16.63771968 7.25 19.1953125 C7.24498698 20.92512895 7.24042373 22.65494676 7.23632812 24.38476562 C7.22527875 28.63414803 7.20800386 32.88346562 7.1875 37.1328125 C3.8875 37.1328125 0.5875 37.1328125 -2.8125 37.1328125 C-2.8371501 32.02417354 -2.85533607 26.91556891 -2.86743164 21.80688477 C-2.87247204 20.06762082 -2.8793043 18.32836114 -2.88793945 16.58911133 C-2.90001792 14.09455313 -2.90573108 11.60005077 -2.91015625 9.10546875 C-2.91531754 8.32317398 -2.92047882 7.54087921 -2.92579651 6.73487854 C-2.92599226 4.86714136 -2.87449694 2.99952046 -2.8125 1.1328125 C-1.8125 0.1328125 -1.8125 0.1328125 0 0 Z " fill="#1915E6" transform="translate(111.8125,22.8671875)"/>
<path d="M0 0 C4.62 0 9.24 0 14 0 C14 0.66 14 1.32 14 2 C15.32 2.33 16.64 2.66 18 3 C20.0655473 9.76588721 20.23960929 15.95593688 20.125 23 C20.11597656 24.06089844 20.10695312 25.12179688 20.09765625 26.21484375 C20.07427524 28.81013638 20.04150556 31.40494465 20 34 C17.69 34 15.38 34 13 34 C12.97494385 33.2886792 12.9498877 32.5773584 12.92407227 31.84448242 C12.80811561 28.62530483 12.68538755 25.40642015 12.5625 22.1875 C12.52318359 21.06794922 12.48386719 19.94839844 12.44335938 18.79492188 C12.38051758 17.18520508 12.38051758 17.18520508 12.31640625 15.54296875 C12.27974854 14.55321045 12.24309082 13.56345215 12.20532227 12.54370117 C12.09209669 9.8781649 12.09209669 9.8781649 11 7 C9.35 6.67 7.7 6.34 6 6 C6 5.34 6 4.68 6 4 C4.02 4 2.04 4 0 4 C0 4.66 0 5.32 0 6 C-0.99 6 -1.98 6 -3 6 C-2 4 -1 2 0 0 Z " fill="#1B18F8" transform="translate(138,25)"/>
<path d="M0 0 C0.639375 0.33 1.27875 0.66 1.9375 1 C1.9375 1.66 1.9375 2.32 1.9375 3 C2.535625 3.2475 3.13375 3.495 3.75 3.75 C7.25736313 5.7542075 8.56785055 8.16828874 10.1875 11.8125 C11.07891363 15.60100795 10.87885844 18.23456625 9.9375 22 C8.9475 22.66 7.9575 23.32 6.9375 24 C7.9275 24.33 8.9175 24.66 9.9375 25 C9.9375 26.32 9.9375 27.64 9.9375 29 C9.2775 29 8.6175 29 7.9375 29 C7.9375 28.01 7.9375 27.02 7.9375 26 C5.2975 26 2.6575 26 -0.0625 26 C-0.0625 25.34 -0.0625 24.68 -0.0625 24 C-5.3425 23.34 -10.6225 22.68 -16.0625 22 C-16.0625 21.34 -16.0625 20.68 -16.0625 20 C-7.8125 20 0.4375 20 8.9375 20 C8.9375 18.68 8.9375 17.36 8.9375 16 C6.9575 15.34 4.9775 14.68 2.9375 14 C2.9375 14.66 2.9375 15.32 2.9375 16 C-3.47938675 16.10349817 -9.68944402 15.74507544 -16.0625 15 C-16.99673645 11.98968256 -17.10699911 11.13349732 -16.0625 8 C-14.4125 8 -12.7625 8 -11.0625 8 C-12.3825 9.65 -13.7025 11.3 -15.0625 13 C-10.4425 13 -5.8225 13 -1.0625 13 C-1.3925 12.01 -1.7225 11.02 -2.0625 10 C-0.7425 10.33 0.5775 10.66 1.9375 11 C2.5975 9.02 3.2575 7.04 3.9375 5 C2.6175 4.67 1.2975 4.34 -0.0625 4 C-0.0625 3.34 -0.0625 2.68 -0.0625 2 C-8.02118317 1.43676058 -8.02118317 1.43676058 -15.5 3.6875 C-17.31598324 5.32631415 -19.0828314 7.0203314 -20.8125 8.75 C-21.92625 9.86375 -21.92625 9.86375 -23.0625 11 C-23.7225 11 -24.3825 11 -25.0625 11 C-23.75364898 5.43738316 -19.67364029 2.8853868 -15.0625 0 C-10.06597926 -1.66550691 -5.00477317 -1.63421165 0 0 Z " fill="#1C17E7" transform="translate(318.0625,23)"/>
<path d="M0 0 C2.31 0 4.62 0 7 0 C7 11.22 7 22.44 7 34 C4.69 34 2.38 34 0 34 C-0.33 33.34 -0.66 32.68 -1 32 C-2.98 32 -4.96 32 -7 32 C-7.33 30.68 -7.66 29.36 -8 28 C-7.236875 27.5875 -6.47375 27.175 -5.6875 26.75 C-2.8679771 24.9140316 -1.49900198 23.99800395 0 21 C0.55014429 16.26360152 0.69037189 13.03555783 -2 9 C-1.7578125 6.73828125 -1.7578125 6.73828125 -1.125 4.3125 C-0.92132813 3.50425781 -0.71765625 2.69601563 -0.5078125 1.86328125 C-0.25644531 0.94095703 -0.25644531 0.94095703 0 0 Z " fill="#1B17FB" transform="translate(240,25)"/>
<path d="M0 0 C2.31 0 4.62 0 7 0 C6.34 1.65 5.68 3.3 5 5 C5.99 5.33 6.98 5.66 8 6 C7.67 6.99 7.34 7.98 7 9 C7.33 9.33 7.66 9.66 8 10 C9.03430568 15.50424214 9.12103193 20.84995146 9.0625 26.4375 C9.05798828 27.26443359 9.05347656 28.09136719 9.04882812 28.94335938 C9.03715811 30.96227146 9.01922718 32.98114574 9 35 C6.03 35 3.06 35 0 35 C0 23.45 0 11.9 0 0 Z " fill="#1A16EC" transform="translate(190,25)"/>
<path d="M0 0 C1.7654029 3.21926411 2.09042916 5.48307793 1.59375 9.03125 C0.94412986 14.20251991 0.67042517 19.35795885 0.4375 24.5625 C0.39431641 25.47580078 0.35113281 26.38910156 0.30664062 27.33007812 C0.20188243 29.55327991 0.09970983 31.77656707 0 34 C-2.31 34 -4.62 34 -7 34 C-7.07430494 29.80081815 -7.12867413 25.60198726 -7.16479492 21.40234375 C-7.17985681 19.97454154 -7.20031062 18.5467854 -7.22631836 17.11914062 C-7.26281842 15.06368627 -7.27975166 13.00884495 -7.29296875 10.953125 C-7.3086792 9.71723633 -7.32438965 8.48134766 -7.34057617 7.20800781 C-6.76026503 1.74185126 -5.58625737 0 0 0 Z " fill="#1B18F9" transform="translate(132,25)"/>
<path d="M0 0 C0.99 0 1.98 0 3 0 C3 0.66 3 1.32 3 2 C3.99 2 4.98 2 6 2 C6 2.66 6 3.32 6 4 C8.31 4 10.62 4 13 4 C13.33 4.66 13.66 5.32 14 6 C12.68 6.33 11.36 6.66 10 7 C10 7.66 10 8.32 10 9 C9.01 9 8.02 9 7 9 C6.67 17.25 6.34 25.5 6 34 C4.02 34 2.04 34 0 34 C0 22.78 0 11.56 0 0 Z " fill="#1C17FC" transform="translate(255,25)"/>
<path d="M0 0 C6.65545792 -0.54330269 10.45834744 0.22695996 16 4 C16 3.34 16 2.68 16 2 C20.455 1.505 20.455 1.505 25 1 C26.06061259 5.24602144 26.03535509 9.1250969 25.87890625 13.48828125 C25.85529526 14.19147995 25.83168427 14.89467865 25.80735779 15.6191864 C25.7311907 17.85052072 25.64696693 20.081466 25.5625 22.3125 C25.50923218 23.83136159 25.45649215 25.3502418 25.40429688 26.86914062 C25.2756401 30.57966209 25.13975943 34.28987824 25 38 C22.36 38 19.72 38 17 38 C17 37.67 17 37.34 17 37 C19.31 37 21.62 37 24 37 C24 25.78 24 14.56 24 3 C21.69 3 19.38 3 17 3 C16.855625 3.928125 16.71125 4.85625 16.5625 5.8125 C16 9 16 9 15 12 C15.66 12.33 16.32 12.66 17 13 C18.76197683 16.52395365 18.66341624 20.16345139 18 24 C15.82489779 27.94875937 13.4361993 30.53167414 9.125 31.9375 C8.42375 31.958125 7.7225 31.97875 7 32 C8.86758376 30.13241624 10.64555066 28.5011654 12.75 26.875 C15.23990272 23.69345764 15.30221952 23.18291904 14.9375 19.375 C14.44444535 16.12859523 13.88945141 14.83417712 12 12 C9.41493203 10.15352288 8.2079809 9.98266826 5 10.25 C2.37799822 10.90550045 0.32798248 11.65693319 -2 13 C-2 11.68 -2 10.36 -2 9 C-0.35 9 1.3 9 3 9 C3 8.34 3 7.68 3 7 C3.969375 6.87625 4.93875 6.7525 5.9375 6.625 C6.948125 6.41875 7.95875 6.2125 9 6 C9.33 5.34 9.66 4.68 10 4 C9.01 4 8.02 4 7 4 C7 3.34 7 2.68 7 2 C4.69 2 2.38 2 0 2 C0 1.34 0 0.68 0 0 Z " fill="#1D16ED" transform="translate(223,22)"/>
<path d="M0 0 C0.33 0 0.66 0 1 0 C1 6.93 1 13.86 1 21 C4.465 20.505 4.465 20.505 8 20 C7.67 19.34 7.34 18.68 7 18 C6.92818179 15.28239892 6.90700494 12.59140612 6.9375 9.875 C6.94201172 9.12089844 6.94652344 8.36679687 6.95117188 7.58984375 C6.96296501 5.72652873 6.98090058 3.86325445 7 2 C7.66 1.67 8.32 1.34 9 1 C8.93039063 2.68029297 8.93039063 2.68029297 8.859375 4.39453125 C8.82185577 5.86716085 8.78545577 7.33981927 8.75 8.8125 C8.71648437 9.55048828 8.68296875 10.28847656 8.6484375 11.04882812 C8.53665998 15.41885234 8.53665998 15.41885234 10.78125 19 C13.90250444 20.40676256 16.62449224 20.19474083 20 20 C20.04241723 22.33294775 20.04092937 24.66702567 20 27 C18.14709648 28.85290352 15.23375369 28.21658627 12.75 28.25 C11.61046875 28.27578125 10.4709375 28.3015625 9.296875 28.328125 C5.62828667 27.96300483 3.847121 27.32211997 1 25 C-1.25879844 21.04013112 -1.4444096 16.99397653 -1.75 12.5 C-1.84796875 11.2109375 -1.9459375 9.921875 -2.046875 8.59375 C-2.00169655 5.13006852 -1.53230373 3.06460747 0 0 Z " fill="#1714DF" transform="translate(168,32)"/>
<path d="M0 0 C2.0078125 0.23046875 2.0078125 0.23046875 5.0078125 2.23046875 C6.3278125 1.57046875 7.6478125 0.91046875 9.0078125 0.23046875 C7.88329523 3.20240725 6.78487459 5.56487562 5.0078125 8.23046875 C5.9978125 8.23046875 6.9878125 8.23046875 8.0078125 8.23046875 C8.0078125 7.57046875 8.0078125 6.91046875 8.0078125 6.23046875 C9.9878125 6.23046875 11.9678125 6.23046875 14.0078125 6.23046875 C14.0078125 6.89046875 14.0078125 7.55046875 14.0078125 8.23046875 C12.9146875 8.62234375 11.8215625 9.01421875 10.6953125 9.41796875 C8.21393825 10.30751801 7.06699314 11.16252061 5.3203125 13.16796875 C3.36908067 17.72084302 3.43564648 22.13633165 3.3203125 27.04296875 C3.28615234 28.02201172 3.25199219 29.00105469 3.21679688 30.00976562 C3.13462349 32.41627199 3.06953347 34.823351 3.0078125 37.23046875 C0.0378125 37.23046875 -2.9321875 37.23046875 -5.9921875 37.23046875 C-6.99437498 33.22171884 -7.12146181 29.99471418 -7.125 25.875 C-7.12643509 24.82163704 -7.12643509 24.82163704 -7.12789917 23.74699402 C-7.1285777 22.26858429 -7.12674625 20.79017153 -7.12255859 19.31176758 C-7.11718156 17.04046017 -7.12252688 14.76934835 -7.12890625 12.49804688 C-7.12824588 11.06119748 -7.12696558 9.6243482 -7.125 8.1875 C-7.12387207 6.8775708 -7.12274414 5.5676416 -7.12158203 4.21801758 C-6.89522309 -1.00831149 -4.72539949 0.09590294 0 0 Z M-3.72387695 3.79589844 C-5.42584232 7.06288566 -5.33188005 9.50798793 -5.28515625 13.18359375 C-5.28091141 13.84381531 -5.27666656 14.50403687 -5.27229309 15.18426514 C-5.25556185 17.28342266 -5.21792301 19.38160371 -5.1796875 21.48046875 C-5.16463334 22.90753817 -5.15094621 24.33462271 -5.13867188 25.76171875 C-5.10567751 29.25161692 -5.05393493 32.74094745 -4.9921875 36.23046875 C-2.6821875 36.23046875 -0.3721875 36.23046875 2.0078125 36.23046875 C2.03286865 35.67174072 2.0579248 35.1130127 2.08374023 34.53735352 C2.20124355 31.95574447 2.3232563 29.37436639 2.4453125 26.79296875 C2.50428711 25.47522461 2.50428711 25.47522461 2.56445312 24.13085938 C2.80631237 19.08902436 3.20044611 14.12721033 3.90039062 9.12695312 C4.05100169 6.46798321 3.27297269 4.53752557 2.0078125 2.23046875 C-1.88670332 1.78340319 -1.88670332 1.78340319 -3.72387695 3.79589844 Z " fill="#110ED6" transform="translate(129.9921875,22.76953125)"/>
<path d="M0 0 C0 1.32 0 2.64 0 4 C-1.32 4 -2.64 4 -4 4 C-4 3.34 -4 2.68 -4 2 C-4.99 2 -5.98 2 -7 2 C-7 13.22 -7 24.44 -7 36 C-5.02 36 -3.04 36 -1 36 C-1.01160156 34.69804688 -1.02320313 33.39609375 -1.03515625 32.0546875 C-1.04453973 30.32812644 -1.05363934 28.60156382 -1.0625 26.875 C-1.07087891 26.0190625 -1.07925781 25.163125 -1.08789062 24.28125 C-1.10538306 19.73321589 -0.93192358 15.47616836 0 11 C0.99 11 1.98 11 3 11 C2.67 11.99 2.34 12.98 2 14 C1.85164052 15.77166975 1.75229982 17.54767612 1.68359375 19.32421875 C1.64169922 20.35224609 1.59980469 21.38027344 1.55664062 22.43945312 C1.51732422 23.51130859 1.47800781 24.58316406 1.4375 25.6875 C1.39431641 26.77095703 1.35113281 27.85441406 1.30664062 28.97070312 C1.20053258 31.64698385 1.09975945 34.32347511 1 37 C-2.3 37 -5.6 37 -9 37 C-9 25.12 -9 13.24 -9 1 C-6.04335481 -0.4783226 -3.25770263 -0.06032783 0 0 Z " fill="#1E1BC6" transform="translate(262,23)"/>
<path d="M0 0 C2.97 0.33 5.94 0.66 9 1 C9.33 2.65 9.66 4.3 10 6 C8.73299277 6.9841125 7.4612381 7.96211497 6.1875 8.9375 C5.47980469 9.48277344 4.77210938 10.02804688 4.04296875 10.58984375 C0.43220742 13.08216658 -2.66468733 13.16109201 -6.9375 13.1875 C-8.49791016 13.20876953 -8.49791016 13.20876953 -10.08984375 13.23046875 C-12.95046613 13.00392282 -14.57670151 12.47733619 -17 11 C-13.99686252 9.49843126 -11.20932478 9.90718796 -7.875 9.9375 C-6.59367187 9.94652344 -5.31234375 9.95554687 -3.9921875 9.96484375 C-3.00476563 9.97644531 -2.01734375 9.98804688 -1 10 C-1 8.68 -1 7.36 -1 6 C-3.64 6 -6.28 6 -9 6 C-9 5.34 -9 4.68 -9 4 C-6.36 3.67 -3.72 3.34 -1 3 C-0.67 2.01 -0.34 1.02 0 0 Z " fill="#1C19DD" transform="translate(317,48)"/>
<path d="M0 0 C5.06715354 0.67155047 7.65690657 2.83140873 10.79296875 6.69921875 C12.22857889 10.12873186 12.2591374 12.7020973 11.91796875 16.38671875 C11.25796875 17.37671875 10.59796875 18.36671875 9.91796875 19.38671875 C9.88058594 18.6390625 9.84320313 17.89140625 9.8046875 17.12109375 C9.73894531 16.13625 9.67320313 15.15140625 9.60546875 14.13671875 C9.54746094 13.1621875 9.48945312 12.18765625 9.4296875 11.18359375 C8.84674477 7.99743348 8.30905446 6.57517007 5.91796875 4.38671875 C2.96245349 3.68719386 2.96245349 3.68719386 -0.26953125 3.63671875 C-1.35621094 3.58 -2.44289063 3.52328125 -3.5625 3.46484375 C-4.39394531 3.4390625 -5.22539062 3.41328125 -6.08203125 3.38671875 C-6.08203125 4.04671875 -6.08203125 4.70671875 -6.08203125 5.38671875 C-7.07203125 5.38671875 -8.06203125 5.38671875 -9.08203125 5.38671875 C-9.20578125 6.02609375 -9.32953125 6.66546875 -9.45703125 7.32421875 C-9.66328125 8.00484375 -9.86953125 8.68546875 -10.08203125 9.38671875 C-11.07203125 9.88171875 -11.07203125 9.88171875 -12.08203125 10.38671875 C-12.73758244 12.9140511 -12.73758244 12.9140511 -13.08203125 15.38671875 C-14.20703125 13.82421875 -14.20703125 13.82421875 -15.08203125 11.38671875 C-13.34938944 1.68392462 -9.25134815 -0.32678331 0 0 Z " fill="#1D17C1" transform="translate(29.08203125,11.61328125)"/>
<path d="M0 0 C0.66 0.66 1.32 1.32 2 2 C1.8125 5.5 1.8125 5.5 1 9 C-2 11 -2 11 -4.5625 10.75 C-7 10 -7 10 -9 8 C-9.75 5 -9.75 5 -10 2 C-6.8820123 -1.1179877 -4.12216267 -1.51145965 0 0 Z " fill="#1B18F4" transform="translate(118,9)"/>
<path d="M0 0 C3.44986238 -0.48231086 6.57187455 -0.70025733 10 0 C12.44482908 2.30783435 13.94300742 4.80980421 15 8 C14.67 8.66 14.34 9.32 14 10 C10.535 8.02 10.535 8.02 7 6 C7 6.99 7 7.98 7 9 C7 9.99 7 10.98 7 12 C7.66 12 8.32 12 9 12 C9 13.98 9 15.96 9 18 C6.47478766 14.77333979 4.34337749 11.39568033 2.25 7.875 C1.29867188 6.29332031 1.29867188 6.29332031 0.328125 4.6796875 C-0.11015625 3.79539062 -0.5484375 2.91109375 -1 2 C-0.67 1.34 -0.34 0.68 0 0 Z " fill="#1B16D1" transform="translate(328,23)"/>
<path d="M0 0 C0.66 0 1.32 0 2 0 C1.47438602 3.88954344 0.70662997 5.29337003 -2 8 C-3.1027581 9.70377468 -4.16347257 11.43527529 -5.1875 13.1875 C-5.71730469 14.08855469 -6.24710937 14.98960938 -6.79296875 15.91796875 C-7.19128906 16.60503906 -7.58960938 17.29210937 -8 18 C-6.02 18 -4.04 18 -2 18 C-1.87625 17.195625 -1.7525 16.39125 -1.625 15.5625 C-1.41875 14.716875 -1.2125 13.87125 -1 13 C-0.34 12.67 0.32 12.34 1 12 C1.66 11.01 2.32 10.02 3 9 C3.66 8.01 4.32 7.02 5 6 C6.32 6 7.64 6 9 6 C9.66 7.98 10.32 9.96 11 12 C9.68 11.01 8.36 10.02 7 9 C6.69449219 9.721875 6.38898438 10.44375 6.07421875 11.1875 C4.60014741 14.17716582 3.27301088 16.55082004 1 19 C-2.79665393 19.88536511 -6.17189265 19.6130421 -10 19 C-8.13632957 13.30545147 -5.74179082 8.79051724 -2.3046875 3.8828125 C-0.95847264 2.03515229 -0.95847264 2.03515229 0 0 Z " fill="#181AE7" transform="translate(337,41)"/>
<path d="M0 0 C6.65545792 -0.54330269 10.45834744 0.22695996 16 4 C16 3.34 16 2.68 16 2 C20.455 1.505 20.455 1.505 25 1 C26.06061259 5.24602144 26.03535509 9.1250969 25.87890625 13.48828125 C25.85529526 14.19147995 25.83168427 14.89467865 25.80735779 15.6191864 C25.7311907 17.85052072 25.64696693 20.081466 25.5625 22.3125 C25.50923218 23.83136159 25.45649215 25.3502418 25.40429688 26.86914062 C25.2756401 30.57966209 25.13975943 34.28987824 25 38 C22.36 38 19.72 38 17 38 C17 37.67 17 37.34 17 37 C19.31 37 21.62 37 24 37 C24 25.78 24 14.56 24 3 C21.69 3 19.38 3 17 3 C17 3.66 17 4.32 17 5 C13.7 4.67 10.4 4.34 7 4 C7 3.34 7 2.68 7 2 C4.69 2 2.38 2 0 2 C0 1.34 0 0.68 0 0 Z " fill="#1C18C7" transform="translate(223,22)"/>
<path d="M0 0 C5.73109002 -0.5027272 9.05745704 -0.16505774 13.5859375 3.515625 C15.82817141 5.8693512 16.48961054 7.81006585 17 11 C16.74746128 15.79823573 15.83544973 19.10125662 13 23 C12.67 23 12.34 23 12 23 C12 21.02 12 19.04 12 17 C12.33 17 12.66 17 13 17 C13 15.35 13 13.7 13 12 C12.34 11.67 11.68 11.34 11 11 C10.59270772 8.67843403 10.25561323 6.3431213 10 4 C6.17010894 2.19769832 3.21878192 1.80377759 -1 2 C-0.67 1.34 -0.34 0.68 0 0 Z " fill="#1C17DE" transform="translate(71,12)"/>
<path d="M0 0 C0.99 0.33 1.98 0.66 3 1 C5.29453495 0.90593246 5.29453495 0.90593246 7.6875 0.5625 C8.49574219 0.46066406 9.30398437 0.35882812 10.13671875 0.25390625 C11.05904297 0.12822266 11.05904297 0.12822266 12 0 C12.66 0.99 13.32 1.98 14 3 C11.03 2.67 8.06 2.34 5 2 C5.16749756 2.67957764 5.33499512 3.35915527 5.50756836 4.05932617 C6.07925958 7.47331765 6.01139151 10.59144396 5.87890625 14.05078125 C5.85529526 14.70958786 5.83168427 15.36839447 5.80735779 16.04716492 C5.73124327 18.13585822 5.64699771 20.22413074 5.5625 22.3125 C5.50922687 23.73500597 5.45648689 25.15753201 5.40429688 26.58007812 C5.27570006 30.05363909 5.13981289 33.52687034 5 37 C4.67 37 4.34 37 4 37 C3.67 27.43 3.34 17.86 3 8 C2.67 8.33 2.34 8.66 2 9 C0.14712498 9.07226502 -1.70833878 9.0838122 -3.5625 9.0625 C-4.57441406 9.05347656 -5.58632812 9.04445313 -6.62890625 9.03515625 C-7.41136719 9.02355469 -8.19382813 9.01195312 -9 9 C-9 8.67 -9 8.34 -9 8 C-5.7 8 -2.4 8 1 8 C0.67 5.36 0.34 2.72 0 0 Z " fill="#1612B8" transform="translate(185,23)"/>
<path d="M0 0 C4.62186951 -0.36974956 8.05541223 -0.44556027 12.3125 1.5625 C16.43163134 5.29845634 18.90325594 9.48703317 20 15 C20.09546999 17.80232497 20.13943995 20.57365009 20.125 23.375 C20.13080078 24.48875 20.13080078 24.48875 20.13671875 25.625 C20.12923668 29.8598522 19.83418021 33.82909897 19 38 C18.67 38 18.34 38 18 38 C17.505 24.14 17.505 24.14 17 10 C16.34 10 15.68 10 15 10 C14.7525 9.21625 14.505 8.4325 14.25 7.625 C13.22729015 4.99015103 13.22729015 4.99015103 11.375 3.6875 C7.86233535 2.67067602 4.65099493 2.87830017 1 3 C0.67 2.01 0.34 1.02 0 0 Z " fill="#0809B8" transform="translate(270,22)"/>
<path d="M0 0 C0.639375 0.33 1.27875 0.66 1.9375 1 C1.9375 1.66 1.9375 2.32 1.9375 3 C3.2575 3.66 4.5775 4.32 5.9375 5 C5.9375 5.99 5.9375 6.98 5.9375 8 C3.89916576 6.7260411 1.89897874 5.38938077 -0.0625 4 C-0.0625 3.34 -0.0625 2.68 -0.0625 2 C-8.02118317 1.43676058 -8.02118317 1.43676058 -15.5 3.6875 C-17.31598324 5.32631415 -19.0828314 7.0203314 -20.8125 8.75 C-21.92625 9.86375 -21.92625 9.86375 -23.0625 11 C-23.7225 11 -24.3825 11 -25.0625 11 C-23.75364898 5.43738316 -19.67364029 2.8853868 -15.0625 0 C-10.06597926 -1.66550691 -5.00477317 -1.63421165 0 0 Z " fill="#201DD5" transform="translate(318.0625,23)"/>
<path d="M0 0 C1.67542976 0.28604898 3.34385343 0.61781233 5 1 C5.144375 2.051875 5.28875 3.10375 5.4375 4.1875 C5.87526966 7.15460549 6.37804866 10.06794366 7 13 C3.25 14.125 3.25 14.125 1 13 C1 11.68 1 10.36 1 9 C0.34 9 -0.32 9 -1 9 C-1.09765625 2.84765625 -1.09765625 2.84765625 -1 1 C-0.67 0.67 -0.34 0.34 0 0 Z " fill="#1B17FB" transform="translate(212,38)"/>
<path d="M0 0 C8.58 0 17.16 0 26 0 C25.01 0.99 24.02 1.98 23 3 C23.99 3.33 24.98 3.66 26 4 C26 5.32 26 6.64 26 8 C25.34 8 24.68 8 24 8 C24 7.01 24 6.02 24 5 C21.36 5 18.72 5 16 5 C16 4.34 16 3.68 16 3 C10.72 2.34 5.44 1.68 0 1 C0 0.67 0 0.34 0 0 Z " fill="#090A9F" transform="translate(302,44)"/>
<path d="M0 0 C-1.12451727 2.9719385 -2.22293791 5.33440687 -4 8 C-3.01 8 -2.02 8 -1 8 C-1 7.34 -1 6.68 -1 6 C0.98 6 2.96 6 5 6 C5 6.66 5 7.32 5 8 C3.9275 8.391875 2.855 8.78375 1.75 9.1875 C-1.89140865 10.72383468 -3.76947479 12.69882269 -6 16 C-5.98839844 15.39671875 -5.97679687 14.7934375 -5.96484375 14.171875 C-5.95582031 13.37265625 -5.94679687 12.5734375 -5.9375 11.75 C-5.92589844 10.96109375 -5.91429687 10.1721875 -5.90234375 9.359375 C-5.99614694 7.09308998 -6.36758937 5.1711105 -7 3 C-2.25 0 -2.25 0 0 0 Z " fill="#1613E9" transform="translate(139,23)"/>
<path d="M0 0 C1.65 0 3.3 0 5 0 C3.68 1.65 2.36 3.3 1 5 C5.62 5 10.24 5 15 5 C14.67 4.01 14.34 3.02 14 2 C14.99 2.33 15.98 2.66 17 3 C17.75 5 17.75 5 18 7 C17.67 7.33 17.34 7.66 17 8 C14.13311752 7.90903444 11.29699485 7.76232012 8.4375 7.5625 C7.63119141 7.51029297 6.82488281 7.45808594 5.99414062 7.40429688 C3.99578262 7.27422624 1.99784614 7.13770944 0 7 C-0.93423645 3.98968256 -1.04449911 3.13349732 0 0 Z " fill="#1513D4" transform="translate(302,31)"/>
<path d="M0 0 C0.33 1.65 0.66 3.3 1 5 C-4.75 7 -4.75 7 -7 7 C-7.33 7.66 -7.66 8.32 -8 9 C-9.125 3.25 -9.125 3.25 -8 1 C-5.07175348 0.02391783 -3.04386724 -0.08226668 0 0 Z " fill="#1D18F6" transform="translate(209,25)"/>
<path d="M0 0 C2.31 0 4.62 0 7 0 C7 0.99 7 1.98 7 3 C6.01 3.495 6.01 3.495 5 4 C4.59270772 6.32156597 4.25561323 8.6568787 4 11 C3.34 11 2.68 11 2 11 C1.67 10.34 1.34 9.68 1 9 C0.01 8.67 -0.98 8.34 -2 8 C-2 4.23312136 -1.76462683 3.08809695 0 0 Z " fill="#1B18F7" transform="translate(352,25)"/>
<path d="M0 0 C0.33 0 0.66 0 1 0 C1 6.93 1 13.86 1 21 C1.66 21 2.32 21 3 21 C3.33 22.65 3.66 24.3 4 26 C1 25 1 25 -0.140625 22.90625 C-1.17571633 19.40575931 -1.50236338 16.14171504 -1.75 12.5 C-1.84796875 11.2109375 -1.9459375 9.921875 -2.046875 8.59375 C-2.00169655 5.13006852 -1.53230373 3.06460747 0 0 Z " fill="#1B16D4" transform="translate(168,32)"/>
<path d="M0 0 C0.66 0.66 1.32 1.32 2 2 C1.8125 5.5 1.8125 5.5 1 9 C-2 11 -2 11 -4.5625 10.75 C-7 10 -7 10 -9 8 C-9.75 5 -9.75 5 -10 2 C-6.8820123 -1.1179877 -4.12216267 -1.51145965 0 0 Z M-7 1 C-7.93065133 3.60582371 -8.14917407 4.64198224 -7.0625 7.25 C-6.711875 7.8275 -6.36125 8.405 -6 9 C-4.02 9 -2.04 9 0 9 C0.20086443 5.28400809 0.1519437 4.22791555 -2 1 C-4.58380177 0.74969023 -4.58380177 0.74969023 -7 1 Z " fill="#1614A8" transform="translate(118,9)"/>
<path d="M0 0 C0.66 0 1.32 0 2 0 C1.47438602 3.88954344 0.70662997 5.29337003 -2 8 C-3.1027581 9.70377468 -4.16347257 11.43527529 -5.1875 13.1875 C-5.71730469 14.08855469 -6.24710937 14.98960938 -6.79296875 15.91796875 C-7.19128906 16.60503906 -7.58960938 17.29210937 -8 18 C-5.03 18 -2.06 18 1 18 C1 18.33 1 18.66 1 19 C-2.63 19 -6.26 19 -10 19 C-8.13632957 13.30545147 -5.74179082 8.79051724 -2.3046875 3.8828125 C-0.95847264 2.03515229 -0.95847264 2.03515229 0 0 Z " fill="#1717C8" transform="translate(337,41)"/>
<path d="M0 0 C0.66 0.33 1.32 0.66 2 1 C2.48844094 4.98893436 2.81421504 8.51138462 0.83984375 12.12109375 C-1.55690443 15.0695231 -3.22020392 16.74571867 -6.875 17.9375 C-7.57625 17.958125 -8.2775 17.97875 -9 18 C-7.15185138 16.15185138 -5.34872568 14.469893 -3.3125 12.8125 C-0.12131285 8.93132644 -0.67741234 6.9194618 -1 2 C-0.67 1.34 -0.34 0.68 0 0 Z " fill="#1612D3" transform="translate(239,36)"/>
<path d="M0 0 C4.24348127 -0.36372697 6.62712264 0.37665094 10 3 C11.03143037 5.93609626 11.10797324 8.65781976 11.0625 11.75 C11.05347656 12.54921875 11.04445313 13.3484375 11.03515625 14.171875 C11.02355469 14.77515625 11.01195312 15.3784375 11 16 C10.67 16 10.34 16 10 16 C9.89042969 15.22914062 9.78085937 14.45828125 9.66796875 13.6640625 C9.50941406 12.66117188 9.35085938 11.65828125 9.1875 10.625 C9.03667969 9.62726562 8.88585937 8.62953125 8.73046875 7.6015625 C8.21227702 4.6712636 8.21227702 4.6712636 5 3 C1.80079639 3.33325038 -0.94858478 3.98286159 -4 5 C-4.33 4.01 -4.66 3.02 -5 2 C-3.35 2 -1.7 2 0 2 C0 1.34 0 0.68 0 0 Z " fill="#2216C1" transform="translate(269,29)"/>
<path d="M0 0 C9.41002278 -0.3690205 9.41002278 -0.3690205 14 2 C14 2.66 14 3.32 14 4 C15.32 4.66 16.64 5.32 18 6 C18 6.99 18 7.98 18 9 C15.96166576 7.7260411 13.96147874 6.38938077 12 5 C12 4.34 12 3.68 12 3 C8.37 3 4.74 3 1 3 C0.67 2.01 0.34 1.02 0 0 Z " fill="#1B16CF" transform="translate(306,22)"/>
<path d="M0 0 C1.47906892 -0.02689216 2.95827483 -0.04634621 4.4375 -0.0625 C5.26121094 -0.07410156 6.08492187 -0.08570313 6.93359375 -0.09765625 C9 0 9 0 10 1 C10.07205511 2.68608966 10.08386068 4.37500659 10.0625 6.0625 C10.05347656 6.98160156 10.04445312 7.90070312 10.03515625 8.84765625 C10.02355469 9.55792969 10.01195312 10.26820312 10 11 C9.01 11.495 9.01 11.495 8 12 C8 8.7 8 5.4 8 2 C3.545 2.495 3.545 2.495 -1 3 C-0.67 2.01 -0.34 1.02 0 0 Z " fill="#1513AC" transform="translate(167,12)"/>
<path d="M0 0 C0.66 0.66 1.32 1.32 2 2 C-0.31 5.3 -2.62 8.6 -5 12 C-5.33 11.34 -5.66 10.68 -6 10 C-5.0625 7.375 -5.0625 7.375 -4 5 C-3.34 5 -2.68 5 -2 5 C-2 4.01 -2 3.02 -2 2 C-6.82194643 2.32504259 -6.82194643 2.32504259 -10.9375 4.5625 C-11.288125 5.036875 -11.63875 5.51125 -12 6 C-11.34 4.35 -10.68 2.7 -10 1 C-8.37675914 0.77837671 -6.751279 0.57310197 -5.125 0.375 C-4.22007812 0.25898438 -3.31515625 0.14296875 -2.3828125 0.0234375 C-1.59648437 0.01570313 -0.81015625 0.00796875 0 0 Z " fill="#1D19B8" transform="translate(361,23)"/>
<path d="M0 0 C0.7425 0.2475 1.485 0.495 2.25 0.75 C1.26 1.41 0.27 2.07 -0.75 2.75 C-5.11955343 6.19267846 -5.69749791 9.48748955 -6.75 14.75 C-7.875 13.1875 -7.875 13.1875 -8.75 10.75 C-8.07284388 6.95792573 -7.20224428 4.37378522 -4.9375 1.25 C-2.75 -0.25 -2.75 -0.25 0 0 Z " fill="#07044E" transform="translate(22.75,12.25)"/>
<path d="M0 0 C0.33 0.66 0.66 1.32 1 2 C0.109375 3.91015625 0.109375 3.91015625 -1.25 6.0625 C-1.90742187 7.13177734 -1.90742187 7.13177734 -2.578125 8.22265625 C-4 10 -4 10 -7 11 C-7 9.35 -7 7.7 -7 6 C-7.66 5.67 -8.32 5.34 -9 5 C-5.535 4.505 -5.535 4.505 -2 4 C-2 3.01 -2 2.02 -2 1 C-1.34 0.67 -0.68 0.34 0 0 Z " fill="#201ACF" transform="translate(65,64)"/>
<path d="M0 0 C0.99 0 1.98 0 3 0 C2.67 0.99 2.34 1.98 2 3 C1.85164052 4.77166975 1.75229982 6.54767612 1.68359375 8.32421875 C1.64169922 9.35224609 1.59980469 10.38027344 1.55664062 11.43945312 C1.51732422 12.51130859 1.47800781 13.58316406 1.4375 14.6875 C1.39431641 15.77095703 1.35113281 16.85441406 1.30664062 17.97070312 C1.20053162 20.64700791 1.09847639 23.32340526 1 26 C0.67 26 0.34 26 0 26 C0 17.42 0 8.84 0 0 Z " fill="#16139D" transform="translate(262,34)"/>
<path d="M0 0 C1.98 0 3.96 0 6 0 C6.33 0.99 6.66 1.98 7 3 C7.66 3.33 8.32 3.66 9 4 C7.205625 3.6596875 7.205625 3.6596875 5.375 3.3125 C1.1290804 2.75342874 -1.33553273 3.70970796 -5 6 C-5 4.68 -5 3.36 -5 2 C-3.35 2 -1.7 2 0 2 C0 1.34 0 0.68 0 0 Z " fill="#1C18CE" transform="translate(226,29)"/>
<path d="M0 0 C6.40712969 -0.51257038 9.98670247 -0.13597047 15 4 C16 5 16 5 16.0625 7.5625 C16.041875 8.366875 16.02125 9.17125 16 10 C15.773125 9.401875 15.54625 8.80375 15.3125 8.1875 C13.55823799 5.26372999 12.13150836 4.36152537 9 3 C6.27761579 2.76261214 3.742358 2.86055807 1 3 C0.67 2.01 0.34 1.02 0 0 Z " fill="#1612CA" transform="translate(270,22)"/>
<path d="M0 0 C2.33944736 0.28730055 4.6739143 0.61936779 7 1 C4.49447774 3.61940964 3.14652509 4.95696227 -0.6015625 5.09765625 C-2.09816406 5.08025391 -2.09816406 5.08025391 -3.625 5.0625 C-4.62789062 5.05347656 -5.63078125 5.04445313 -6.6640625 5.03515625 C-7.43492187 5.02355469 -8.20578125 5.01195312 -9 5 C-9 4.67 -9 4.34 -9 4 C-5.7 4 -2.4 4 1 4 C1 3.34 1 2.68 1 2 C0.34 1.67 -0.32 1.34 -1 1 C-0.67 0.67 -0.34 0.34 0 0 Z " fill="#1E1BC4" transform="translate(231,56)"/>
<path d="M0 0 C0.66 0 1.32 0 2 0 C0.23570801 4.97209562 -2.3939166 9.43438061 -5 14 C-6.25541557 10.23375329 -5.37061958 8.62811066 -4 5 C-3.34 5 -2.68 5 -2 5 C-2 4.01 -2 3.02 -2 2 C-1.34 2 -0.68 2 0 2 C0 1.34 0 0.68 0 0 Z " fill="#201CCA" transform="translate(81,35)"/>
<path d="M0 0 C1.98 0 3.96 0 6 0 C6 0.66 6 1.32 6 2 C4.9275 2.391875 3.855 2.78375 2.75 3.1875 C-0.89140865 4.72383468 -2.76947479 6.69882269 -5 10 C-4.47731534 7.23723823 -3.89130413 4.6739124 -3 2 C-2.01 2 -1.02 2 0 2 C0 1.34 0 0.68 0 0 Z " fill="#1C1AC6" transform="translate(138,29)"/>
<path d="M0 0 C0.98120464 3.05263664 0.98120464 4.94736336 0 8 C-0.66 7.67 -1.32 7.34 -2 7 C-2 5.68 -2 4.36 -2 3 C-4.31 3 -6.62 3 -9 3 C-9.33 2.34 -9.66 1.68 -10 1 C-6.52674819 -0.1577506 -3.63932552 -0.06866652 0 0 Z " fill="#110CDE" transform="translate(211,23)"/>
<path d="M0 0 C1.45823212 -0.0270043 2.91660675 -0.04639787 4.375 -0.0625 C5.18710938 -0.07410156 5.99921875 -0.08570312 6.8359375 -0.09765625 C9 0 9 0 11 1 C11 1.66 11 2.32 11 3 C7.04 3 3.08 3 -1 3 C-0.67 2.01 -0.34 1.02 0 0 Z " fill="#1C19CE" transform="translate(140,22)"/>
<path d="M0 0 C1.32 0 2.64 0 4 0 C5.8125 2.375 5.8125 2.375 7 5 C6.67 5.66 6.34 6.32 6 7 C2.535 5.02 2.535 5.02 -1 3 C-0.67 2.01 -0.34 1.02 0 0 Z " fill="#1916E1" transform="translate(336,26)"/>
<path d="M0 0 C1.32 0 2.64 0 4 0 C4.66 1.98 5.32 3.96 6 6 C4.68 5.01 3.36 4.02 2 3 C0.68 4.65 -0.64 6.3 -2 8 C-1.125 2.25 -1.125 2.25 0 0 Z " fill="#1B1BC7" transform="translate(342,47)"/>
<path d="M0 0 C5.39449293 -0.27429625 8.51925805 -0.36055646 13 3 C12.67 3.66 12.34 4.32 12 5 C10.96875 4.505 9.9375 4.01 8.875 3.5 C5.47548422 2.02526098 2.72978451 1.72708894 -1 2 C-0.67 1.34 -0.34 0.68 0 0 Z " fill="#2219C3" transform="translate(71,12)"/>
<path d="M0 0 C0.86625 0.556875 0.86625 0.556875 1.75 1.125 C-1.43762365 3.25008244 -3.51512223 3.6270163 -7.25 4.125 C-6.25 1.125 -6.25 1.125 -4.4375 -0.1875 C-2.25 -0.875 -2.25 -0.875 0 0 Z " fill="#1917E1" transform="translate(270.25,23.875)"/>
<path d="M0 0 C2.64 0 5.28 0 8 0 C8 0.99 8 1.98 8 3 C6.824375 3.185625 6.824375 3.185625 5.625 3.375 C2.85942178 3.79117993 2.85942178 3.79117993 1 6 C1 5.01 1 4.02 1 3 C0.34 3 -0.32 3 -1 3 C-0.67 2.01 -0.34 1.02 0 0 Z " fill="#1914C9" transform="translate(124,23)"/>
<path d="M0 0 C0.33 0.66 0.66 1.32 1 2 C0.525625 2.45375 0.05125 2.9075 -0.4375 3.375 C-2.09027808 4.93258204 -2.09027808 4.93258204 -3 7 C-4.32 7 -5.64 7 -7 7 C-5.54744301 3.17053157 -3.57104439 1.87949705 0 0 Z " fill="#1C17D6" transform="translate(221,23)"/>
<path d="M0 0 C1.32 0.99 2.64 1.98 4 3 C3.67 5.31 3.34 7.62 3 10 C2.67 10 2.34 10 2 10 C0.68373308 6.38026598 0 3.90432869 0 0 Z " fill="#1A18C0" transform="translate(116,8)"/>
<path d="M0 0 C0 1.32 0 2.64 0 4 C-0.66 4 -1.32 4 -2 4 C-2 3.01 -2 2.02 -2 1 C-4.31 1 -6.62 1 -9 1 C-6.80036907 -3.39926185 -3.61934676 -1.66294311 0 0 Z " fill="#0E12B3" transform="translate(328,48)"/>
<path d="M0 0 C1.65 0 3.3 0 5 0 C3.68 1.65 2.36 3.3 1 5 C2.32 5.66 3.64 6.32 5 7 C3.35 7 1.7 7 0 7 C-0.93423645 3.98968256 -1.04449911 3.13349732 0 0 Z " fill="#1B19C3" transform="translate(302,31)"/>
<path d="M0 0 C0.99 0.33 1.98 0.66 3 1 C3 1.99 3 2.98 3 4 C-0.96 4 -4.92 4 -9 4 C-9 3.67 -9 3.34 -9 3 C-4.545 2.505 -4.545 2.505 0 2 C0 1.34 0 0.68 0 0 Z " fill="#1C19CA" transform="translate(360,56)"/>
<path d="M0 0 C1.98 0 3.96 0 6 0 C6.33 2.64 6.66 5.28 7 8 C6.401875 7.236875 5.80375 6.47375 5.1875 5.6875 C3.53040668 3.6516425 1.89702326 1.8021721 0 0 Z " fill="#1E18CE" transform="translate(144,31)"/>
<path d="M0 0 C-0.33 0.66 -0.66 1.32 -1 2 C-1.99 2 -2.98 2 -4 2 C-4.33 2.99 -4.66 3.98 -5 5 C-5.66 4.67 -6.32 4.34 -7 4 C-6.67 2.68 -6.34 1.36 -6 0 C-2.25 -1.125 -2.25 -1.125 0 0 Z " fill="#1F1DDD" transform="translate(202,26)"/>
<path d="M0 0 C0.99 0 1.98 0 3 0 C1.92598892 2.91517292 1.22189824 4.77810176 -1 7 C-2 4 -2 4 -1.0625 1.8125 C-0.5365625 0.9153125 -0.5365625 0.9153125 0 0 Z " fill="#1E19D3" transform="translate(67,57)"/>
</svg>
