<?xml version="1.0" encoding="UTF-8"?>
<svg version="1.1" xmlns="http://www.w3.org/2000/svg" width="215" height="200">
<path d="M0 0 C2.00390625 1.5078125 2.00390625 1.5078125 3.4375 2.875 C3.4375 3.535 3.4375 4.195 3.4375 4.875 C4.0975 4.875 4.7575 4.875 5.4375 4.875 C10.92714161 15.53017155 12.86589594 24.23022151 9.4375 35.875 C7.79567708 39.55339916 5.80821286 42.97815774 3.75 46.4375 C3.17693115 47.42564697 2.6038623 48.41379395 2.01342773 49.43188477 C0.17301455 52.59074365 -1.69052314 55.73475399 -3.5625 58.875 C-4.17416016 59.90206055 -4.78582031 60.92912109 -5.41601562 61.98730469 C-8.53502281 67.21254745 -11.67193694 72.42676863 -14.81640625 77.63671875 C-18.40983586 83.60231188 -21.9361271 89.60500766 -25.4375 95.625 C-25.99824219 96.58873535 -26.55898437 97.5524707 -27.13671875 98.54541016 C-28.30993898 100.56254302 -29.48294744 102.57979905 -30.65576172 104.59716797 C-33.89312932 110.16245574 -37.13638986 115.72426949 -40.38653564 121.28210449 C-41.11534408 122.5292646 -41.84336209 123.77688703 -42.57049561 125.02502441 C-59.64510114 154.33198953 -59.64510114 154.33198953 -73.875 158.5625 C-83.71205548 159.70634366 -92.0820458 158.79841939 -100.33984375 152.88671875 C-107.45517857 146.8371169 -112.01537857 140.49427237 -112.80078125 130.9921875 C-112.82527344 129.92226562 -112.84976563 128.85234375 -112.875 127.75 C-112.93107422 126.16832031 -112.93107422 126.16832031 -112.98828125 124.5546875 C-111.88269374 114.9999771 -106.50672344 107.0747951 -101.51062012 99.07012939 C-99.57532204 95.96830611 -97.66595405 92.85056393 -95.75390625 89.734375 C-95.38119598 89.128284 -95.00848572 88.52219299 -94.6244812 87.8977356 C-91.91765467 83.48589436 -89.31112341 79.03242892 -86.8125 74.5 C-82.98204044 67.5668958 -78.97405409 60.74834362 -74.9296875 53.93798828 C-71.68677484 48.47491336 -68.46350358 43.00123111 -65.265625 37.51171875 C-64.51955975 36.23264939 -63.77346595 34.95359669 -63.02734375 33.67456055 C-61.93785931 31.8067242 -60.84928143 29.9383985 -59.76416016 28.06802368 C-55.89846389 21.40597639 -51.96056902 14.79051673 -47.8671875 8.265625 C-47.51279602 7.68756104 -47.15840454 7.10949707 -46.79327393 6.51391602 C-42.64423517 -0.01030234 -37.21766617 -3.53879581 -30.25 -6.5625 C-18.19911998 -8.40076983 -9.87190933 -7.04150176 0 0 Z " fill="#1B17FC" transform="translate(188.5625,22.125)"/>
<path d="M0 0 C7.01608048 5.39227146 11.47231642 13.49333505 12.79296875 22.1796875 C13.53017435 32.50056587 11.30367729 40.96630956 4.7265625 49 C-0.85209752 55.01055628 -6.58200564 58.46837074 -14.78125 58.98828125 C-24.76064722 59.23970903 -32.1070995 58.38048013 -40.7734375 53.0625 C-47.82802836 45.81194828 -52.05563485 37.46802836 -52.3984375 27.3125 C-52.08792884 18.04899177 -49.45960629 10.50579794 -43.0234375 3.75 C-30.8083421 -7.40291319 -14.2429975 -8.79876293 0 0 Z " fill="#1B17F8" transform="translate(65.0234375,20.25)"/>
<path d="M0 0 C1.08784335 3.31395986 1.07262544 3.83580335 -0.4375 7.25 C-0.953125 8.1575 -1.46875 9.065 -2 10 C-2.66 10 -3.32 10 -4 10 C-3.979375 10.804375 -3.95875 11.60875 -3.9375 12.4375 C-4 15 -4 15 -5 16 C-6.05377927 23.76284063 -6.13630006 31.25567804 -5 39 C-10.10768575 32.78194778 -9.64565532 25.77476618 -9 18 C-7.2922653 11.36396571 -3.83249825 5.6230917 0 0 Z " fill="#1914B6" transform="translate(85,125)"/>
<path d="M0 0 C0.99 0 1.98 0 3 0 C3.66 0.66 4.32 1.32 5 2 C5.66 1.67 6.32 1.34 7 1 C7.33 3.31 7.66 5.62 8 8 C8.7425 7.9175 9.485 7.835 10.25 7.75 C13.80789745 8.07344522 14.69585019 9.37803642 17 12 C19.45275141 13.2263757 21.0505781 13.11415314 23.7890625 13.09765625 C25.20058594 13.09282227 25.20058594 13.09282227 26.640625 13.08789062 C28.11789063 13.07532227 28.11789063 13.07532227 29.625 13.0625 C30.61757812 13.05798828 31.61015625 13.05347656 32.6328125 13.04882812 C35.0886016 13.03702145 37.54427104 13.020554 40 13 C34.55418378 16.63054415 28.38473255 16.61846412 22 16 C13.2369227 14.15251362 6.93360791 9.62952489 1 3 C0.67 2.01 0.34 1.02 0 0 Z " fill="#1813B0" transform="translate(80,165)"/>
<path d="M0 0 C0.66 0 1.32 0 2 0 C0.40149976 4.36867605 -1.76692539 8.34412995 -4.0625 12.375 C-4.45300537 13.06529297 -4.84351074 13.75558594 -5.24584961 14.46679688 C-9.37079878 21.72025112 -13.66652037 28.86973564 -18 36 C-19.39195915 31.82412255 -17.82323219 29.86525224 -16 26 C-15.34 26 -14.68 26 -14 26 C-14 25.01 -14 24.02 -14 23 C-13.34 23 -12.68 23 -12 23 C-12 21.35 -12 19.7 -12 18 C-11.34 18 -10.68 18 -10 18 C-10 17.34 -10 16.68 -10 16 C-9.34 16 -8.68 16 -8 16 C-7.87625 15.030625 -7.7525 14.06125 -7.625 13.0625 C-7.41875 12.051875 -7.2125 11.04125 -7 10 C-6.34 9.67 -5.68 9.34 -5 9 C-4.67 8.01 -4.34 7.02 -4 6 C-3.34 6 -2.68 6 -2 6 C-2 4.68 -2 3.36 -2 2 C-1.34 2 -0.68 2 0 2 C0 1.34 0 0.68 0 0 Z " fill="#1814B4" transform="translate(191,65)"/>
<path d="M0 0 C3.78759627 3.78759627 3.96316268 9.60892276 4.04296875 14.7890625 C3.58769904 22.3063066 1.7804829 28.83333892 -3.25 34.5625 C-3.8275 35.036875 -4.405 35.51125 -5 36 C-5 34.35 -5 32.7 -5 31 C-4.34 31 -3.68 31 -3 31 C-3 30.01 -3 29.02 -3 28 C-2.34 28 -1.68 28 -1 28 C-1 26.68 -1 25.36 -1 24 C-0.34 24 0.32 24 1 24 C0.67 16.08 0.34 8.16 0 0 Z " fill="#1914AE" transform="translate(74,33)"/>
<path d="M0 0 C0.94875 0.04125 1.8975 0.0825 2.875 0.125 C-3.1686815 5.45766015 -8.70828558 6.49266868 -16.5 6.4375 C-17.62619751 6.43556641 -17.62619751 6.43556641 -18.77514648 6.43359375 C-24.13532687 6.34030224 -28.29940571 5.58913326 -33.125 3.125 C-33.125 2.795 -33.125 2.465 -33.125 2.125 C-30.79205225 2.08258277 -28.45797433 2.08407063 -26.125 2.125 C-25.795 2.455 -25.465 2.785 -25.125 3.125 C-23.63861008 3.28155027 -22.14550873 3.37566943 -20.65234375 3.44140625 C-19.30366211 3.50424805 -19.30366211 3.50424805 -17.92773438 3.56835938 C-16.50944336 3.62733398 -16.50944336 3.62733398 -15.0625 3.6875 C-14.11310547 3.73068359 -13.16371094 3.77386719 -12.18554688 3.81835938 C-9.83218647 3.92479276 -7.47871646 4.02681008 -5.125 4.125 C-5.125 3.465 -5.125 2.805 -5.125 2.125 C-3.125 0.125 -3.125 0.125 0 0 Z " fill="#1D19BA" transform="translate(62.125,72.875)"/>
<path d="M0 0 C1.32 0 2.64 0 4 0 C2.0137312 5.21072367 -0.65295989 9.86991887 -3.4375 14.6875 C-3.92798828 15.55439453 -4.41847656 16.42128906 -4.92382812 17.31445312 C-5.40142578 18.14267578 -5.87902344 18.97089844 -6.37109375 19.82421875 C-6.80349365 20.57791748 -7.23589355 21.33161621 -7.68139648 22.1081543 C-9 24 -9 24 -12 26 C-12 24.35 -12 22.7 -12 21 C-11.01 20.67 -10.02 20.34 -9 20 C-9 19.34 -9 18.68 -9 18 C-8.34 18 -7.68 18 -7 18 C-6.67 15.69 -6.34 13.38 -6 11 C-5.01 11 -4.02 11 -3 11 C-3.33 9.68 -3.66 8.36 -4 7 C-3.01 7 -2.02 7 -1 7 C-0.67 4.69 -0.34 2.38 0 0 Z " fill="#1814B6" transform="translate(142,145)"/>
<path d="M0 0 C0.64453125 1.75 0.64453125 1.75 1 4 C0.07421875 6 0.07421875 6 -1.3125 8 C-3.08753907 10.60406877 -4.6454295 13.15095031 -6 16 C-6.66 16 -7.32 16 -8 16 C-7.938125 16.928125 -7.87625 17.85625 -7.8125 18.8125 C-8 22 -8 22 -9.375 23.875 C-11 25 -11 25 -13 25 C-13 25.66 -13 26.32 -13 27 C-13.66 27 -14.32 27 -15 27 C-13.33577105 22.40994919 -11.02896491 18.29300687 -8.625 14.0625 C-8.23828125 13.37220703 -7.8515625 12.68191406 -7.453125 11.97070312 C-5.12879714 7.85633082 -2.6717431 3.897817 0 0 Z " fill="#1914B0" transform="translate(134,42)"/>
<path d="M0 0 C-4.14659373 1.19799449 -7.99369047 0.8896192 -12.25 0.5625 C-13.36761719 0.48418945 -13.36761719 0.48418945 -14.5078125 0.40429688 C-16.33894861 0.2751783 -18.16953813 0.13834886 -20 0 C-20 0.66 -20 1.32 -20 2 C-26.4 5.07692308 -26.4 5.07692308 -29.4375 4.6875 C-29.953125 4.460625 -30.46875 4.23375 -31 4 C-22.09927844 -2.51272309 -10.3484006 -4.84720623 0 0 Z " fill="#1813AB" transform="translate(180,17)"/>
<path d="M0 0 C0.66 0.33 1.32 0.66 2 1 C1.06027344 2.03060547 1.06027344 2.03060547 0.1015625 3.08203125 C-0.71570312 3.98308594 -1.53296875 4.88414063 -2.375 5.8125 C-3.18710937 6.70582031 -3.99921875 7.59914063 -4.8359375 8.51953125 C-7.09072907 10.99632674 -7.09072907 10.99632674 -9 14 C-9.66 14 -10.32 14 -11 14 C-11 15.65 -11 17.3 -11 19 C-11.66 19 -12.32 19 -13 19 C-12.66659286 12.33185715 -8.99618187 7.80680694 -4.26953125 3.37890625 C-2.87878594 2.21279439 -1.44365694 1.0999291 0 0 Z " fill="#1713AE" transform="translate(28,19)"/>
<path d="M0 0 C0.33 0 0.66 0 1 0 C1.33 1.98 1.66 3.96 2 6 C1.01 6.33 0.02 6.66 -1 7 C-2.01187895 8.65948148 -3.0126546 10.32580562 -4 12 C-4.66 12 -5.32 12 -6 12 C-4.68315519 7.39104317 -2.84801255 3.85859765 0 0 Z " fill="#1714B7" transform="translate(108,86)"/>
<path d="M0 0 C3 1 3 1 4.0625 3 C4.371875 3.66 4.68125 4.32 5 5 C5.66 5.33 6.32 5.66 7 6 C7.625 8.5625 7.625 8.5625 8 11 C7.34 11 6.68 11 6 11 C4.4921875 9.1015625 4.4921875 9.1015625 2.875 6.625 C2.33617187 5.81289062 1.79734375 5.00078125 1.2421875 4.1640625 C0 2 0 2 0 0 Z " fill="#1813A9" transform="translate(16,60)"/>
<path d="M0 0 C1.65 0 3.3 0 5 0 C3.12819886 2.53243683 2.00453464 2.99900238 -1.125 3.6875 C-5.43463376 4.03505111 -9.68011349 4.08816095 -14 4 C-14 3.67 -14 3.34 -14 3 C-9.38 2.67 -4.76 2.34 0 2 C0 1.34 0 0.68 0 0 Z " fill="#1C15D1" transform="translate(120,175)"/>
<path d="M0 0 C0.66 0 1.32 0 2 0 C2 3 2 3 0.125 5 C-0.57625 5.66 -1.2775 6.32 -2 7 C-2.99 8.485 -2.99 8.485 -4 10 C-4.66 10 -5.32 10 -6 10 C-4.63312778 6.01328937 -2.84804907 3.11505367 0 0 Z " fill="#1813AC" transform="translate(147,22)"/>
<path d="M0 0 C0.66 0 1.32 0 2 0 C0.66654496 3.59007126 -0.8943231 6.79570907 -3 10 C-3.33 10 -3.66 10 -4 10 C-4.33 8.02 -4.66 6.04 -5 4 C-4.34 4 -3.68 4 -3 4 C-2.67 3.34 -2.34 2.68 -2 2 C-1.34 2 -0.68 2 0 2 C0 1.34 0 0.68 0 0 Z " fill="#1A14B6" transform="translate(161,116)"/>
<path d="M0 0 C0.66 0 1.32 0 2 0 C0.43358249 4.30764815 -1.68336156 8.06171464 -4 12 C-5 9 -5 9 -4 6 C-3.34 6 -2.68 6 -2 6 C-2 4.68 -2 3.36 -2 2 C-1.34 2 -0.68 2 0 2 C0 1.34 0 0.68 0 0 Z " fill="#1614A4" transform="translate(191,65)"/>
<path d="M0 0 C0.6875 1.6875 0.6875 1.6875 1 4 C-0.3125 6.75 -0.3125 6.75 -2 9 C-2.66 9 -3.32 9 -4 9 C-4 9.99 -4 10.98 -4 12 C-4.66 12 -5.32 12 -6 12 C-4.43358249 7.69235185 -2.31663844 3.93828536 0 0 Z " fill="#1915B1" transform="translate(98,103)"/>
<path d="M0 0 C0.6875 1.625 0.6875 1.625 1 4 C-0.4375 7.25 -0.4375 7.25 -2 10 C-2.99 10 -3.98 10 -5 10 C-3.66511872 6.40608886 -2.03977277 3.24509304 0 0 Z " fill="#1714AA" transform="translate(85,125)"/>
<path d="M0 0 C0.66 0.99 1.32 1.98 2 3 C1.2884375 3.6496875 1.2884375 3.6496875 0.5625 4.3125 C-1.23686957 6.02309613 -1.23686957 6.02309613 -2 9 C-2.99 9.33 -3.98 9.66 -5 10 C-3.66511872 6.40608886 -2.03977277 3.24509304 0 0 Z " fill="#1613AE" transform="translate(91,115)"/>
<path d="M0 0 C-1.1858237 3.37503669 -2.27573689 5.64722731 -5 8 C-5 5.69 -5 3.38 -5 1 C-3 0 -3 0 0 0 Z " fill="#1916BA" transform="translate(172,101)"/>
<path d="M0 0 C0.6875 1.6875 0.6875 1.6875 1 4 C-0.25 6.6875 -0.25 6.6875 -2 9 C-2.99 9.33 -3.98 9.66 -5 10 C-3.66511872 6.40608886 -2.03977277 3.24509304 0 0 Z " fill="#1814AA" transform="translate(118,69)"/>
<path d="M0 0 C0.99 0 1.98 0 3 0 C2.67 1.65 2.34 3.3 2 5 C0.68 5 -0.64 5 -2 5 C-1.34 3.35 -0.68 1.7 0 0 Z " fill="#1B16D3" transform="translate(140,32)"/>
<path d="M0 0 C3.93673644 1.31224548 6.22719294 2.91910327 9 6 C7.68 6 6.36 6 5 6 C5 5.34 5 4.68 5 4 C4.360625 3.896875 3.72125 3.79375 3.0625 3.6875 C2.381875 3.460625 1.70125 3.23375 1 3 C0.67 2.01 0.34 1.02 0 0 Z " fill="#1610A5" transform="translate(181,18)"/>
<path d="M0 0 C0.94875 0.04125 1.8975 0.0825 2.875 0.125 C-2.26785714 4.55357143 -2.26785714 4.55357143 -6.125 5.125 C-4.7964923 1.13947691 -4.27916485 0.17116659 0 0 Z " fill="#1411A3" transform="translate(62.125,72.875)"/>
<path d="M0 0 C2.31 0 4.62 0 7 0 C7.33 0.99 7.66 1.98 8 3 C2.25 2.25 2.25 2.25 0 0 Z " fill="#1715AC" transform="translate(29,75)"/>
<path d="M0 0 C0.66 0.33 1.32 0.66 2 1 C0.625 2.5 0.625 2.5 -1 4 C-1.66 4 -2.32 4 -3 4 C-3 4.66 -3 5.32 -3 6 C-3.66 6 -4.32 6 -5 6 C-4.1875 3.5625 -4.1875 3.5625 -3 1 C-2.01 0.67 -1.02 0.34 0 0 Z " fill="#1915C6" transform="translate(124,63)"/>
</svg>
